<svg xmlns="http://www.w3.org/2000/svg" xmlns:xlink="http://www.w3.org/1999/xlink" width="1120" height="362"><style><![CDATA[.B{fill-rule:nonzero}.C{opacity:.1}.D{fill:#fa357b}.E{fill:#000}.F{stroke-width:.515}.G{stroke:#fa357b}.H{stroke-width:.834}.I{stroke-width:2.503}.J{stroke-linecap:round}.K{stroke-linejoin:round}]]></style><defs><linearGradient x1="49.9951467%" y1="1.72254642e-14%" x2="50.0048533%" y2="100%" id="A"><stop stop-color="#fa357b" offset="0%"/><stop stop-color="#fff" offset="100%"/></linearGradient><linearGradient x1="64.2112706%" y1="100%" x2="35.7887294%" y2="1.72254642e-14%" id="B"><stop stop-color="#fa357b" offset="0%"/><stop stop-color="#fff" offset="100%"/></linearGradient><linearGradient x1="59.5835906%" y1="1.72254642e-14%" x2="41.9115577%" y2="98.1845336%" id="C"><stop stop-color="#fa357b" offset="0%"/><stop stop-color="#fff" offset="100%"/></linearGradient><linearGradient x1="76.1071182%" y1="100%" x2="23.8928818%" y2="1.72254642e-14%" id="D"><stop stop-color="#fa357b" offset="0%"/><stop stop-color="#fff" offset="100%"/></linearGradient><linearGradient x1="57.8568972%" y1="1.72254642e-14%" x2="43.0749705%" y2="100%" id="E"><stop stop-color="#fa357b" offset="0%"/><stop stop-color="#fff" offset="100%"/></linearGradient><linearGradient x1="69.7537248%" y1="100%" x2="30.2462752%" y2="1.72254642e-14%" id="F"><stop stop-color="#fa357b" offset="0%"/><stop stop-color="#fff" offset="100%"/></linearGradient><path id="G" d="M747.618 324.482c2.294 0 4.592.655 6.645 1.895a14.41 14.41 0 0 1 3.467 2.936l-3.43-.114a.73.73 0 0 0-.753.71c-.013.405.302.745.706.758l4.746.158c.273.113.586.05.794-.16a.74.74 0 0 0 .158-.8l-.156-4.773c-.01-.405-.343-.727-.746-.718s-.723.345-.714.75l.09 2.77a15.94 15.94 0 0 0-3.41-2.777c-2.28-1.376-4.838-2.104-7.397-2.104-4.088 0-7.856 1.696-10.61 4.774-2.44 2.727-3.897 6.398-3.897 9.82 0 .405.327.734.73.734s.73-.33.73-.734c0-3.07 1.316-6.373 3.522-8.838 2.474-2.765 5.857-4.288 9.525-4.288z"/><path id="H" d="M761.58 336.873a.73.73 0 0 0-.73.734c0 3.07-1.316 6.373-3.522 8.838-2.474 2.765-5.857 4.288-9.525 4.288-2.294 0-4.592-.655-6.645-1.894a14.42 14.42 0 0 1-3.467-2.936l3.43.114c.403.013.74-.305.753-.7s-.302-.745-.706-.758l-4.746-.157c-.273-.113-.586-.05-.794.16s-.27.525-.158.8l.156 4.773c.01.406.343.727.746.718s.723-.345.714-.75l-.09-2.77a15.95 15.95 0 0 0 3.41 2.777c2.28 1.376 4.838 2.104 7.397 2.104 4.088 0 7.856-1.695 10.61-4.774 2.44-2.728 3.897-6.4 3.897-9.82a.73.73 0 0 0-.73-.734h0z"/></defs><g fill="none" fill-rule="evenodd"><g class="E"><g class="C"><path d="M100.028 113.042c-3.196 0-6.316 1.1-8.785 3.13-1.975 1.615-3.466 3.75-4.7 6.252a10.66 10.66 0 0 0-6.235-1.992 10.7 10.7 0 0 0-7.581 3.14c-1.942 1.94-3.145 4.615-3.145 7.567 0 2.077.582 4.056 1.67 6.088a6.63 6.63 0 0 0-1.67 4.402c0 1.833.747 3.495 1.953 4.7s2.872 1.95 4.708 1.95h1.835a.85.85 0 0 0 .603-.249c.154-.154.25-.366.25-.6a.84.84 0 0 0-.25-.6.85.85 0 0 0-.603-.249h-1.835a4.95 4.95 0 0 1-3.503-1.45 4.93 4.93 0 0 1-1.453-3.497c0-1.465.646-2.848 1.773-3.792a.85.85 0 0 0 .3-.56c.023-.2-.034-.43-.175-.612a8.91 8.91 0 0 1-1.897-5.525 8.97 8.97 0 0 1 2.645-6.365 9 9 0 0 1 6.375-2.64c2.4 0 4.677.937 7.817 2.215.594-2.783 2.142-5.185 4.255-6.9s4.792-2.715 7.647-2.715c3.355 0 6.398 1.362 8.6 3.562a12.1 12.1 0 0 1 3.568 8.586 12.15 12.15 0 0 1-4.11 9.102.85.85 0 0 0 .132 1.369 4.97 4.97 0 0 1 2.446 4.266 4.93 4.93 0 0 1-1.453 3.497c-.897.896-2.137 1.45-3.503 1.45h-19.12a.85.85 0 0 0-.603.249c-.154.154-.25.366-.25.6a.84.84 0 0 0 .25.6.85.85 0 0 0 .603.249h19.12c1.837 0 3.502-.746 4.708-1.95s1.953-2.866 1.953-4.7c0-1.884-.814-3.673-2.2-5.288 2.387-2.553 3.733-5.93 3.733-9.45 0-3.818-1.556-7.28-4.068-9.788a13.84 13.84 0 0 0-9.806-4.06zm-17.62 33.534a.85.85 0 0 0-.603.249c-.154.154-.25.366-.25.6s.096.447.25.6a.85.85 0 0 0 1.206 0c.154-.154.25-.366.25-.6a.84.84 0 0 0-.25-.6.85.85 0 0 0-.604-.249zm.192 5.022a4.82 4.82 0 0 1 3.414 1.414 4.8 4.8 0 0 1 1.416 3.408c0 1.33-.542 2.535-1.416 3.408a4.82 4.82 0 0 1-6.828 0 4.8 4.8 0 0 1-1.416-3.408c0-1.33.542-2.535 1.416-3.408a4.82 4.82 0 0 1 3.414-1.414zm0 1.7a3.12 3.12 0 0 0-2.209.915 3.11 3.11 0 0 0 0 4.412 3.12 3.12 0 0 0 4.418 0 3.11 3.11 0 0 0 0-4.412 3.12 3.12 0 0 0-2.209-.915zm-10.248 7.416a3.07 3.07 0 0 1 2.164.897c.564.554.898 1.317.898 2.16s-.344 1.607-.898 2.16-1.32.897-2.164.897-1.6-.343-2.165-.897-.898-1.318-.898-2.16.344-1.607.898-2.16 1.32-.897 2.165-.897zm0 1.7a1.36 1.36 0 0 0-.96.397 1.35 1.35 0 0 0 0 1.917c.246.245.585.397.96.397s.714-.152.96-.397a1.35 1.35 0 0 0 0-1.917c-.246-.245-.585-.397-.96-.397zm-8.007 5.14a.86.86 0 0 0-.853.849.85.85 0 0 0 .25.6.86.86 0 0 0 1.206 0 .86.86 0 0 0 .25-.6.85.85 0 0 0-.25-.6.86.86 0 0 0-.603-.249zM91.9 127.62a3.93 3.93 0 0 0-2.785 1.154c-.713.712-1.155 1.695-1.155 2.78a.84.84 0 0 0 .25.6.85.85 0 0 0 1.206 0c.154-.154.25-.366.25-.6a2.22 2.22 0 0 1 .656-1.578c.397-.396.94-.654 1.86-.654a2.51 2.51 0 0 1 1.779.737 2.5 2.5 0 0 1 .738 1.776c0 .693-.282 1.32-.738 1.776a2.51 2.51 0 0 1-1.779.737 1.13 1.13 0 0 0-.801.332c-.205.205-.332.487-.332.8v2.138a.84.84 0 0 0 .25.6.85.85 0 0 0 1.206 0c.154-.154.25-.366.25-.6V136c1.073-.146 2.02-.696 2.68-1.5a4.19 4.19 0 0 0 .971-2.685 4.09 4.09 0 0 0-1.297-3.001c-.8-.752-1.918-1.213-3.205-1.213z" stroke="#fff" class="B F"/><path d="M91.9 143.037a1.12 1.12 0 0 1-.785-.325c-.206-.206-.325-.492-.325-.783a1.12 1.12 0 0 1 1.11-1.108 1.12 1.12 0 0 1 .785.325c.206.206.325.5.325.783s-.12.577-.325.783a1.12 1.12 0 0 1-.785.325zm8.138-23.172c-.622-.005-1.12-.504-1.117-1.115s.507-1.1 1.117-1.1h.005c.612.003 1.114.5 1.113 1.1s-.505 1.105-1.117 1.105h0z"/><path d="M104.232 119.008c-.194-.104-.412-.12-.607-.06s-.368.193-.47.387a.79.79 0 0 0-.059.605c.06.195.193.367.387.47a7.35 7.35 0 0 1 2.851 2.701c.674 1.12 1.048 2.42 1.048 3.78a.79.79 0 0 0 .233.562c.144.144.344.233.564.233s.42-.09.564-.233a.79.79 0 0 0 .233-.562 8.91 8.91 0 0 0-1.274-4.598 8.94 8.94 0 0 0-3.468-3.286z" stroke="#fff" stroke-width=".626" class="B"/></g><path d="M7.402 134.785c5.12 0 8.145-3.164 8.145-8.578s-3.012-8.332-8.145-8.332H.172v16.9h7.23zm-.703-3.95H5.14v-9.012H6.7c2.38 0 3.785 1.535 3.785 4.383 0 3.117-1.3 4.63-3.785 4.63zm17.235 4.277c3.55 0 5.988-1.734 6.387-4.523h-4.277c-.28.773-1.066 1.23-2.04 1.23-1.29 0-2.203-.914-2.203-2.18v-.305h8.578v-1.3c0-3.96-2.6-6.516-6.598-6.516-4.066 0-6.61 2.637-6.61 6.867 0 4.207 2.52 6.727 6.762 6.727zm1.97-8.38h-4.03c.094-1.113.926-1.9 2.016-1.9 1.125 0 1.934.75 2.016 1.9zm12.196 8.05v-9.457h2.344v-3.363h-2.484v-.305c0-.586.457-.984 1.605-.984.328 0 .68.023.914.07v-2.87c-.504-.105-1.43-.2-2.25-.2-3.68 0-4.934 1.172-4.934 3.75v.54h-1.71v3.363h1.71v9.457h4.805zm6.49-14.168c1.277 0 2.285-1.02 2.285-2.238s-1.008-2.238-2.285-2.238-2.285 1.02-2.285 2.238 1.008 2.238 2.285 2.238zm2.426 14.168v-12.937h-4.805v12.938h4.805zm6.9 0v-7.23c0-1.207.69-2.086 1.828-2.086 1.207 0 1.816.797 1.816 2.098v7.22h4.805V126.5c0-3.105-1.594-4.9-4.5-4.9-1.97 0-3.316.984-3.973 2.8h-.094v-2.543h-4.687v12.938h4.805zm16.918.328c3.55 0 5.988-1.734 6.387-4.523H72.94c-.28.773-1.066 1.23-2.04 1.23-1.29 0-2.203-.914-2.203-2.18v-.305h8.578v-1.3c0-3.96-2.6-6.516-6.598-6.516-4.066 0-6.61 2.637-6.61 6.867 0 4.207 2.52 6.727 6.762 6.727zm1.97-8.38h-4.03c.094-1.113.926-1.9 2.016-1.9 1.125 0 1.934.75 2.016 1.9zM5.14 163.785v-5.672h1.63l2.672 5.672h5.555l-3.21-6.4c1.77-.844 2.73-2.766 2.73-4.758 0-3.62-2.32-5.742-6.832-5.742H.172v16.9h4.97zm2.05-8.953H5.14v-4.29h2.063c1.336 0 2.238.902 2.238 2.156 0 1.277-.855 2.133-2.25 2.133zm15.547 9.28c3.55 0 5.988-1.734 6.387-4.523h-4.277c-.28.773-1.066 1.23-2.04 1.23-1.29 0-2.203-.914-2.203-2.18v-.305h8.578v-1.3c0-3.96-2.6-6.516-6.598-6.516-4.066 0-6.61 2.637-6.61 6.867 0 4.207 2.52 6.727 6.762 6.727zm1.97-8.38h-4.03c.094-1.113.926-1.9 2.016-1.9 1.125 0 1.934.75 2.016 1.9zm19.72 12.188v-17.074h-4.805v2.332h-.094c-.504-1.453-1.9-2.52-3.797-2.52-3.223 0-5.12 2.46-5.12 6.62 0 4.22 1.863 6.69 5.05 6.69 1.934 0 3.445-1.066 3.867-2.426h.094v6.375h4.805zm-6.844-7.652c-1.3 0-2.05-1.102-2.05-2.953 0-1.828.762-2.953 2.05-2.953s2.063 1.113 2.063 2.965c0 1.863-.762 2.94-2.062 2.94zm13.696 3.773c1.934 0 3.14-1.043 3.656-2.8h.094v2.543h4.688v-12.937H54.91v7.23c0 1.254-.703 2.086-1.78 2.086-1.125 0-1.863-.727-1.863-2.098v-7.22h-4.805v8.297c0 3.082 2.04 4.898 4.816 4.898zm12.91-14.426c1.277 0 2.285-1.02 2.285-2.238s-1.008-2.238-2.285-2.238-2.285 1.02-2.285 2.238 1.008 2.238 2.285 2.238zm2.426 14.168v-12.937H61.8v12.938h4.805zm6.9 0v-6.445c0-1.805.926-2.73 2.73-2.73.492 0 .984.094 1.395.27v-4.03c-.316-.117-.69-.187-1.125-.187-1.535 0-2.53.89-3.023 2.73h-.094v-2.543H68.71v12.938h4.805zm11.75.328c3.55 0 5.988-1.734 6.387-4.523h-4.277c-.28.773-1.066 1.23-2.04 1.23-1.29 0-2.203-.914-2.203-2.18v-.305h8.578v-1.3c0-3.96-2.6-6.516-6.598-6.516-4.066 0-6.61 2.637-6.61 6.867 0 4.207 2.52 6.727 6.762 6.727zm1.97-8.38H83.2c.094-1.113.926-1.9 2.016-1.9 1.125 0 1.934.75 2.016 1.9zm11.036 8.05v-7.512c0-1.125.586-1.828 1.56-1.828 1.03 0 1.56.62 1.56 1.852v7.488h4.56v-7.512c0-1.137.574-1.828 1.547-1.828 1.043 0 1.57.61 1.57 1.84v7.5h4.805v-8.742c0-2.637-1.734-4.453-4.254-4.453-1.97 0-3.54 1.137-3.973 2.848h-.094c-.316-1.816-1.63-2.848-3.598-2.848-1.77 0-3.223 1.125-3.703 2.87h-.094v-2.613h-4.687v12.938h4.805zm24.078.328c3.55 0 5.988-1.734 6.387-4.523h-4.277c-.28.773-1.066 1.23-2.04 1.23-1.29 0-2.203-.914-2.203-2.18v-.305h8.578v-1.3c0-3.96-2.6-6.516-6.598-6.516-4.066 0-6.61 2.637-6.61 6.867 0 4.207 2.52 6.727 6.762 6.727zm1.97-8.38h-4.03c.094-1.113.926-1.9 2.016-1.9 1.125 0 1.934.75 2.016 1.9zm11.036 8.05v-7.23c0-1.207.69-2.086 1.828-2.086 1.207 0 1.816.797 1.816 2.098v7.22h4.805V155.5c0-3.105-1.594-4.9-4.5-4.9-1.97 0-3.316.984-3.973 2.8h-.094v-2.543h-4.687v12.938h4.805zm16.743 0c.914 0 1.523-.082 1.98-.176v-3.328c-.28.047-.457.06-.82.06-.984 0-1.453-.422-1.453-1.23v-4.78h2.273v-3.48H151.8v-2.836h-4.805v2.836h-1.71v3.48h1.71v5.848c0 2.555 1.44 3.61 5.098 3.61zm9.852.328c3.75 0 6.258-1.758 6.258-4.57 0-1.957-1.254-3.035-4.055-3.55l-2.344-.434c-1.172-.223-1.488-.504-1.488-.96 0-.586.586-.937 1.453-.937 1.03 0 1.63.586 1.688 1.37h4.36c-.06-2.766-2.273-4.512-6.047-4.512-3.762 0-6.047 1.652-6.047 4.348 0 2.004 1.348 3.398 3.914 3.867l2.344.434c1.1.2 1.465.457 1.465.926 0 .54-.574.88-1.5.88-1.078 0-1.71-.492-1.875-1.3h-4.64c.223 2.648 2.438 4.44 6.516 4.44z" class="B"/></g><rect x="12.679" y="176.185" width="141.817" height="21" rx="10.5" class="C D"/><path d="M20.243 191.293c1.08 0 1.872-.504 2.292-1.104v.996h1.38v-8.88h-1.38v3.192c-.504-.624-1.416-1.032-2.28-1.032-1.752 0-3.132 1.344-3.132 3.384s1.38 3.444 3.12 3.444zm.288-1.188c-1.02 0-2.004-.828-2.004-2.256s.984-2.196 2.004-2.196c1.032 0 2.004.804 2.004 2.22 0 1.428-.972 2.232-2.004 2.232zm8.028 1.188c1.62 0 2.664-.924 3.036-2.076H30.12c-.252.516-.72.924-1.56.924-1.008 0-1.788-.66-1.884-1.752h5.052a4.22 4.22 0 0 0 .048-.672c0-1.944-1.332-3.252-3.216-3.252-1.956 0-3.3 1.332-3.3 3.408s1.404 3.42 3.3 3.42zm1.788-4.008h-3.66c.144-1.044.888-1.668 1.812-1.668 1.02 0 1.824.648 1.848 1.668zm5.172 4.008c1.56 0 2.532-.84 2.532-1.956-.072-2.388-3.804-1.644-3.804-2.976 0-.444.384-.744 1.116-.744.744 0 1.188.396 1.236.972h1.368c-.072-1.32-1.056-2.124-2.556-2.124-1.56 0-2.544.852-2.544 1.908 0 2.424 3.84 1.68 3.84 2.976 0 .456-.42.792-1.212.792-.756 0-1.272-.444-1.32-.984H32.76c.06 1.2 1.176 2.136 2.76 2.136zm4.704-7.596c.48 0 .864-.384.864-.876s-.384-.876-.864-.876c-.492 0-.876.384-.876.876s.384.876.876.876zm.672 7.488v-6.612h-1.368v6.612h1.368zm3.168 0v-3.48c0-1.404.624-1.824 1.632-1.824h.348v-1.416c-.936 0-1.596.408-1.98 1.068v-.96h-1.368v6.612h1.368zm6.084.108c1.62 0 2.664-.924 3.036-2.076h-1.476c-.252.516-.72.924-1.56.924-1.008 0-1.788-.66-1.884-1.752h5.052a4.22 4.22 0 0 0 .048-.672c0-1.944-1.332-3.252-3.216-3.252-1.956 0-3.3 1.332-3.3 3.408s1.404 3.42 3.3 3.42zm1.788-4.008h-3.66c.144-1.044.888-1.668 1.812-1.668 1.02 0 1.824.648 1.848 1.668zm5.436 4.008c1.08 0 1.872-.504 2.292-1.104v.996h1.38v-8.88h-1.38v3.192c-.504-.624-1.416-1.032-2.28-1.032-1.752 0-3.132 1.344-3.132 3.384s1.38 3.444 3.12 3.444zm.288-1.188c-1.02 0-2.004-.828-2.004-2.256s.984-2.196 2.004-2.196c1.032 0 2.004.804 2.004 2.22 0 1.428-.972 2.232-2.004 2.232zm9.852 1.08v-5.496h1.224v-1.116H67.51v-.468c0-.756.288-1.044 1.128-1.044v-1.14c-1.728 0-2.508.66-2.508 2.184v.468h-.78v1.116h.78v5.496h1.38zm5.1.096c.78 0 1.524-.324 1.956-.888v.792h1.368v-6.612h-1.368v3.684c0 1.212-.66 1.836-1.668 1.836-.996 0-1.656-.624-1.656-1.836v-3.684h-1.356v3.888c0 1.848 1.176 2.82 2.724 2.82zm6.492-.096v-3.696c0-1.212.66-1.836 1.668-1.836.996 0 1.656.624 1.656 1.836v3.696h1.356v-3.9c0-1.848-1.164-2.82-2.712-2.82-.792 0-1.524.324-1.968.864v-.756h-1.368v6.612h1.368zm9.204.108c1.62 0 2.676-.9 3.048-2.196H89.88c-.252.684-.756 1.044-1.572 1.044-1.104 0-1.836-.816-1.836-2.268 0-1.44.732-2.256 1.836-2.256.816 0 1.344.408 1.572 1.044h1.476c-.372-1.392-1.428-2.196-3.048-2.196-1.896 0-3.24 1.344-3.24 3.408 0 2.076 1.344 3.42 3.24 3.42zm7.62-.108v-1.14h-.84c-.576 0-.768-.204-.768-.696v-3.66h1.608v-1.116H94.32v-1.644h-1.38v1.644h-.78v1.116h.78v3.66c0 1.344.732 1.836 1.908 1.836h1.08zm1.956-7.488c.48 0 .864-.384.864-.876s-.384-.876-.864-.876c-.492 0-.876.384-.876.876s.384.876.876.876zm.672 7.488v-6.612h-1.368v6.612h1.368zm4.668.108c1.896 0 3.432-1.344 3.432-3.42s-1.488-3.408-3.372-3.408-3.372 1.332-3.372 3.408 1.428 3.42 3.312 3.42zm0-1.188c-1.032 0-1.92-.732-1.92-2.232s.924-2.22 1.956-2.22c1.02 0 1.992.72 1.992 2.22s-1.008 2.232-2.028 2.232zm6.156 1.08v-3.696c0-1.212.66-1.836 1.668-1.836.996 0 1.656.624 1.656 1.836v3.696h1.356v-3.9c0-1.848-1.164-2.82-2.712-2.82-.792 0-1.524.324-1.968.864v-.756h-1.368v6.612h1.368zm9.06.108c1.104 0 1.896-.528 2.316-1.092v.984h1.38v-6.612h-1.38v.96c-.408-.54-1.176-1.068-2.292-1.068-1.74 0-3.12 1.344-3.12 3.384s1.38 3.444 3.096 3.444zm.312-1.188c-1.02 0-2.004-.828-2.004-2.256s.984-2.196 2.004-2.196c1.032 0 2.004.804 2.004 2.22 0 1.428-.972 2.232-2.004 2.232zm6.552 1.08v-8.88h-1.368v8.88h1.368zm2.496-7.488c.48 0 .864-.384.864-.876s-.384-.876-.864-.876c-.492 0-.876.384-.876.876s.384.876.876.876zm.672 7.488v-6.612h-1.368v6.612h1.368zm5.004 0v-1.14h-.84c-.576 0-.768-.204-.768-.696v-3.66h1.608v-1.116h-1.608v-1.644h-1.38v1.644h-.78v1.116h.78v3.66c0 1.344.732 1.836 1.908 1.836h1.08zm1.956-7.488c.48 0 .864-.384.864-.876s-.384-.876-.864-.876c-.492 0-.876.384-.876.876s.384.876.876.876zm.672 7.488v-6.612h-1.368v6.612h1.368zm4.644.108c1.62 0 2.664-.924 3.036-2.076h-1.476c-.252.516-.72.924-1.56.924-1.008 0-1.788-.66-1.884-1.752h5.052a4.22 4.22 0 0 0 .048-.672c0-1.944-1.332-3.252-3.216-3.252-1.956 0-3.3 1.332-3.3 3.408s1.404 3.42 3.3 3.42zm1.788-4.008h-3.66c.144-1.044.888-1.668 1.812-1.668 1.02 0 1.824.648 1.848 1.668zm5.172 4.008c1.56 0 2.532-.84 2.532-1.956-.072-2.388-3.804-1.644-3.804-2.976 0-.444.384-.744 1.116-.744.744 0 1.188.396 1.236.972h1.368c-.072-1.32-1.056-2.124-2.556-2.124-1.56 0-2.544.852-2.544 1.908 0 2.424 3.84 1.68 3.84 2.976 0 .456-.42.792-1.212.792-.756 0-1.272-.444-1.32-.984h-1.416c.06 1.2 1.176 2.136 2.76 2.136z" class="B E"/><rect x="38.208" y="202.046" width="87.593" height="21" rx="10.5" class="C D"/><g class="E"><path d="M50.772 217.142c.78 0 1.524-.324 1.956-.888v.792h1.368v-6.612h-1.368v3.684c0 1.212-.66 1.836-1.668 1.836-.996 0-1.656-.624-1.656-1.836v-3.684h-1.356v3.888c0 1.848 1.176 2.82 2.724 2.82zm7.524.012c1.56 0 2.532-.84 2.532-1.956-.072-2.388-3.804-1.644-3.804-2.976 0-.444.384-.744 1.116-.744.744 0 1.188.396 1.236.972h1.368c-.072-1.32-1.056-2.124-2.556-2.124-1.56 0-2.544.852-2.544 1.908 0 2.424 3.84 1.68 3.84 2.976 0 .456-.42.792-1.212.792-.756 0-1.272-.444-1.32-.984h-1.416c.06 1.2 1.176 2.136 2.76 2.136zm6.852 0c1.62 0 2.664-.924 3.036-2.076h-1.476c-.252.516-.72.924-1.56.924-1.008 0-1.788-.66-1.884-1.752h5.052a4.22 4.22 0 0 0 .048-.672c0-1.944-1.332-3.252-3.216-3.252-1.956 0-3.3 1.332-3.3 3.408s1.404 3.42 3.3 3.42zm1.788-4.008h-3.66c.144-1.044.888-1.668 1.812-1.668 1.02 0 1.824.648 1.848 1.668zm4.14 3.9v-3.48c0-1.404.624-1.824 1.632-1.824h.348v-1.416c-.936 0-1.596.408-1.98 1.068v-.96h-1.368v6.612h1.368zm8.76.108c1.56 0 2.532-.84 2.532-1.956-.072-2.388-3.804-1.644-3.804-2.976 0-.444.384-.744 1.116-.744.744 0 1.188.396 1.236.972h1.368c-.072-1.32-1.056-2.124-2.556-2.124-1.56 0-2.544.852-2.544 1.908 0 2.424 3.84 1.68 3.84 2.976 0 .456-.42.792-1.212.792-.756 0-1.272-.444-1.32-.984h-1.416c.06 1.2 1.176 2.136 2.76 2.136zm7.212-.108v-1.14h-.84c-.576 0-.768-.204-.768-.696v-3.66h1.608v-1.116H85.44V208.8h-1.38v1.644h-.78v1.116h.78v3.66c0 1.344.732 1.836 1.908 1.836h1.08zm4.128.108c1.896 0 3.432-1.344 3.432-3.42s-1.488-3.408-3.372-3.408-3.372 1.332-3.372 3.408 1.428 3.42 3.312 3.42zm0-1.188c-1.032 0-1.92-.732-1.92-2.232s.924-2.22 1.956-2.22c1.02 0 1.992.72 1.992 2.22s-1.008 2.232-2.028 2.232zm6.156 1.08v-3.48c0-1.404.624-1.824 1.632-1.824h.348v-1.416c-.936 0-1.596.408-1.98 1.068v-.96h-1.368v6.612h1.368zm3.936-7.488c.48 0 .864-.384.864-.876s-.384-.876-.864-.876c-.492 0-.876.384-.876.876s.384.876.876.876zm.672 7.488v-6.612h-1.368v6.612h1.368zm4.644.108c1.62 0 2.664-.924 3.036-2.076h-1.476c-.252.516-.72.924-1.56.924-1.008 0-1.788-.66-1.884-1.752h5.052a4.22 4.22 0 0 0 .048-.672c0-1.944-1.332-3.252-3.216-3.252-1.956 0-3.3 1.332-3.3 3.408s1.404 3.42 3.3 3.42zm1.788-4.008h-3.66c.144-1.044.888-1.668 1.812-1.668 1.02 0 1.824.648 1.848 1.668zm5.172 4.008c1.56 0 2.532-.84 2.532-1.956-.072-2.388-3.804-1.644-3.804-2.976 0-.444.384-.744 1.116-.744.744 0 1.188.396 1.236.972h1.368c-.072-1.32-1.056-2.124-2.556-2.124-1.56 0-2.544.852-2.544 1.908 0 2.424 3.84 1.68 3.84 2.976 0 .456-.42.792-1.212.792-.756 0-1.272-.444-1.32-.984h-1.416c.06 1.2 1.176 2.136 2.76 2.136z" class="B"/><g stroke="#fff" class="C F"><path d="M276.26 215.08c17.045 0 26.9.234 32.616.624 3.196.22 5.077.484 6.183.787.582.16.936.323 1.145.502.22.2.243.4.243.595h0v14.5a2.53 2.53 0 0 1-.722 1.775 2.42 2.42 0 0 1-1.733.734h0-37.733c-.676 0-1.3-.28-1.733-.734a2.54 2.54 0 0 1-.722-1.774h0V217.6c0-.692.276-1.32.722-1.774a2.42 2.42 0 0 1 1.733-.734zm37.797 1.594l-38.35.193c-.2.167-.348.428-.347.72v14.488c0 .233.01.476.836.914h1.932l11.564-11.784c.284-.3.677-.45 1.078-.437a1.46 1.46 0 0 1 1.052.502l5.8 6.65 4.265-4.347a1.45 1.45 0 0 1 1.078-.436c.402.012.786.195 1.052.502l8.146 9.36 2.406-.2a.92.92 0 0 0 .338-.713l-.002-14.577c-.013-.2-.1-.442-.835-.826zm-23.335 5.728L280.332 233h29.725l-7.152-8.218-4.26 4.34 1.1 1.253a.81.81 0 0 1 .196.579.8.8 0 0 1-.261.55c-.16.145-.362.2-.56.198s-.4-.102-.533-.265l-7.856-9.027zm-13.99 16.518c6.247 0 10.015.28 12.274.75 1.23.255 2 .562 2.472.916.526.395.64.847.64 1.325h0v11.283a3.02 3.02 0 0 1-.86 2.115 2.88 2.88 0 0 1-2.067.875h0-12.46a2.89 2.89 0 0 1-2.067-.875c-.53-.542-.86-1.3-.86-2.115h0V241.9a3.02 3.02 0 0 1 .86-2.115 2.88 2.88 0 0 1 2.067-.875zm6.23 9.522l-6.8 6.147h13.622l-6.8-6.147zm7.603-6.86l-6.427 5.8 6.427 5.8v-11.6zm-15.207 0v11.6l6.427-5.8-6.427-5.8zm14.035-1.066H276.53l6.432 5.804 6.432-5.804zm10.786-1.596c6.247 0 10.015.28 12.274.75 1.23.255 2 .562 2.472.916.526.395.64.847.64 1.325h0v11.283a3.02 3.02 0 0 1-.86 2.115 2.88 2.88 0 0 1-2.067.875h0-12.46a2.89 2.89 0 0 1-2.067-.875c-.53-.542-.86-1.3-.86-2.115h0V241.9a3.02 3.02 0 0 1 .86-2.115 2.88 2.88 0 0 1 2.067-.875zm6.23 9.522l-6.8 6.147h13.622l-6.8-6.147zm7.603-6.86l-6.427 5.8 6.427 5.8v-11.6zm-15.207 0v11.6l6.427-5.8-6.427-5.8zm14.035-1.066h-12.86l6.432 5.804 6.432-5.804z" class="B"/><path d="M274.996 265.08a.77.77 0 0 0-.548.232.81.81 0 0 0-.23.565.8.8 0 0 0 .23.565c.143.145.334.232.548.232h4.602a.77.77 0 0 0 .548-.232c.14-.142.23-.345.08-.853-.155-.106-.4-.194-.82-.27-.805-.15-2.156-.24-4.4-.24zm8.38 0a.77.77 0 0 0-.548.232.81.81 0 0 0-.23.565.8.8 0 0 0 .23.565c.143.145.334.232.548.232h7.552c.214 0 .407-.1.547-.232s.15-.367-.072-.876c-.24-.095-.616-.177-1.194-.248-1.22-.15-3.297-.24-6.834-.24zm-8.38-4.562a.77.77 0 0 0-.548.232.81.81 0 0 0-.23.566.8.8 0 0 0 .23.565c.143.145.334.232.548.232h1.96a.77.77 0 0 0 .548-.232c.14-.142.23-.345-.288-1.124-.43-.152-1.125-.238-2.22-.238zm13.694 0c-.214 0-.407.1-.547.232a.81.81 0 0 0-.23.566.8.8 0 0 0 .23.565.76.76 0 0 0 .547.232h2.147c.214 0 .407-.1.547-.232s.23-.345.124-.876c-.088-.098-.23-.178-.442-.248-.458-.152-1.2-.24-2.376-.24zm-8.275 0c-.214 0-.407.1-.547.232a.81.81 0 0 0-.23.566.8.8 0 0 0 .23.565.76.76 0 0 0 .547.232h4.803a.77.77 0 0 0 .548-.232c.14-.142.23-.345.076-.852-.16-.107-.426-.195-.85-.272-.834-.15-2.234-.24-4.576-.24zm18.91 4.562a.77.77 0 0 0-.548.232c-.14.142-.23.345-.23.565a.8.8 0 0 0 .23.565.76.76 0 0 0 .547.232h4.603c.214 0 .407-.1.547-.232s.23-.345.08-.853c-.155-.106-.4-.194-.82-.27-.805-.15-2.156-.24-4.4-.24zm8.38 0a.77.77 0 0 0-.548.232c-.14.142-.23.345-.23.565a.8.8 0 0 0 .23.565.76.76 0 0 0 .547.232h7.552a.77.77 0 0 0 .548-.232c.14-.142.15-.367-.072-.876-.24-.095-.616-.177-1.194-.248-1.22-.15-3.297-.24-6.834-.24zm-8.38-4.562c-.214 0-.407.1-.547.232a.81.81 0 0 0-.23.566.8.8 0 0 0 .23.565.76.76 0 0 0 .547.232h1.96c.214 0 .407-.1.547-.232s.23-.345-.3-1.124c-.43-.152-1.125-.238-2.22-.238zm13.696 0c-.214 0-.407.1-.547.232a.81.81 0 0 0-.23.566.8.8 0 0 0 .23.565.76.76 0 0 0 .547.232h2.147a.77.77 0 0 0 .548-.232c.14-.142.23-.345.124-.876-.088-.098-.23-.178-.443-.248-.458-.152-1.2-.24-2.376-.24zm-8.276 0a.77.77 0 0 0-.548.232.81.81 0 0 0-.23.566.8.8 0 0 0 .23.565c.143.145.334.232.548.232h4.803c.214 0 .407-.1.547-.232s.23-.345.076-.852c-.16-.107-.426-.195-.85-.272-.834-.15-2.234-.24-4.576-.24z"/></g><path d="M234.8 250.56l2.52-9.68h.094l2.52 9.68h4.688l4.36-16.9h-5.133l-1.945 10.688h-.094l-2.52-10.687h-3.844l-2.52 10.688h-.094l-1.945-10.687h-5.133l4.36 16.9h4.688zm18.22-14.168c1.277 0 2.285-1.02 2.285-2.238s-1.008-2.238-2.285-2.238-2.285 1.02-2.285 2.238 1.008 2.238 2.285 2.238zm2.426 14.168v-12.937h-4.805v12.938h4.805zm6.9 0v-6.445c0-1.805.926-2.73 2.73-2.73.492 0 .984.094 1.395.27v-4.03c-.316-.117-.69-.187-1.125-.187-1.535 0-2.53.89-3.023 2.73h-.094v-2.543h-4.687v12.938h4.805zm11.75.328c3.55 0 5.988-1.734 6.387-4.523h-4.277c-.28.773-1.066 1.23-2.04 1.23-1.29 0-2.203-.914-2.203-2.18v-.305h8.578v-1.3c0-3.96-2.6-6.516-6.598-6.516-4.066 0-6.61 2.637-6.61 6.867 0 4.207 2.52 6.727 6.762 6.727zm1.97-8.38h-4.03c.094-1.113.926-1.9 2.016-1.9 1.125 0 1.934.75 2.016 1.9zm12.196 8.05v-9.457h2.344v-3.363h-2.484v-.305c0-.586.457-.984 1.605-.984.328 0 .68.023.914.07v-2.87c-.504-.105-1.43-.2-2.25-.2-3.68 0-4.934 1.172-4.934 3.75v.54h-1.71v3.363h1.71v9.457h4.805zm8.914 0v-6.445c0-1.805.926-2.73 2.73-2.73.492 0 .984.094 1.395.27v-4.03c-.316-.117-.69-.187-1.125-.187-1.535 0-2.53.89-3.023 2.73h-.094v-2.543h-4.687v12.938h4.805zm9.078.188c1.5 0 3.07-.656 3.75-1.922h.094v1.734h4.688v-8.848c0-2.625-2.402-4.418-5.988-4.418-3.773 0-6.117 1.746-6.234 4.512h4.29c.07-.656.703-1.195 1.688-1.195.902 0 1.56.47 1.56 1.336v.633l-2.836.176c-3.457.21-5.367 1.56-5.367 4.043 0 2.332 2.004 3.95 4.36 3.95zm1.793-3.21c-.844 0-1.418-.4-1.418-1.113 0-.633.516-1.066 1.43-1.137l2.04-.14v.844c0 .95-.984 1.547-2.05 1.547zm13.637 3.023v-7.512c0-1.125.586-1.828 1.56-1.828 1.03 0 1.56.62 1.56 1.852v7.488h4.56v-7.512c0-1.137.574-1.828 1.547-1.828 1.043 0 1.57.61 1.57 1.84v7.5h4.805v-8.742c0-2.637-1.734-4.453-4.254-4.453-1.97 0-3.54 1.137-3.973 2.848h-.094c-.316-1.816-1.63-2.848-3.598-2.848-1.77 0-3.223 1.125-3.703 2.87h-.094v-2.613h-4.687v12.938h4.805zm24.078.328c3.55 0 5.988-1.734 6.387-4.523h-4.277c-.28.773-1.066 1.23-2.04 1.23-1.29 0-2.203-.914-2.203-2.18v-.305h8.578v-1.3c0-3.96-2.6-6.516-6.598-6.516-4.066 0-6.61 2.637-6.61 6.867 0 4.207 2.52 6.727 6.762 6.727zm1.97-8.38h-4.03c.094-1.113.926-1.9 2.016-1.9 1.125 0 1.934.75 2.016 1.9zm12.23 8.38c3.75 0 6.258-1.758 6.258-4.57 0-1.957-1.254-3.035-4.055-3.55l-2.344-.434c-1.172-.223-1.488-.504-1.488-.96 0-.586.586-.937 1.453-.937 1.03 0 1.63.586 1.688 1.37h4.36c-.06-2.766-2.273-4.512-6.047-4.512-3.762 0-6.047 1.652-6.047 4.348 0 2.004 1.348 3.398 3.914 3.867l2.344.434c1.1.2 1.465.457 1.465.926 0 .54-.574.88-1.5.88-1.078 0-1.71-.492-1.875-1.3h-4.64c.223 2.648 2.438 4.44 6.516 4.44z" class="B"/></g><rect x="223.41" y="277.125" width="143" height="21" rx="10.5" class="C D"/><g class="B E"><path d="M232.84 291v-8.88h-1.368V291h1.368zm4.68.084c.64 0 1.216-.136 1.728-.408a2.93 2.93 0 0 0 1.2-1.176c.288-.512.432-1.116.432-1.812 0-.688-.144-1.288-.432-1.8a2.93 2.93 0 0 0-1.2-1.176c-.512-.272-1.088-.408-1.728-.408s-1.214.136-1.722.408-.908.664-1.2 1.176-.438 1.112-.438 1.8.146 1.3.438 1.806.692.9 1.2 1.182 1.082.408 1.722.408zm0-1.2a2.01 2.01 0 0 1-.972-.24c-.296-.16-.534-.404-.714-.732s-.27-.736-.27-1.224c0-.48.1-.886.27-1.218s.418-.578.714-.738a2.01 2.01 0 0 1 .972-.24 2.01 2.01 0 0 1 .972.24c.296.16.534.406.714.738s.27.738.27 1.218c0 .488-.1.896-.27 1.224s-.418.572-.714.732a2.01 2.01 0 0 1-.972.24zm7.308 1.116l1.656-5.112 1.632 5.112h1.512l1.836-6.612h-1.296l-1.26 5.352-1.68-5.352h-1.44l-1.656 5.352-1.26-5.352h-1.38l1.836 6.612h1.5zm11.58-3.768v-1.152h-4.944v1.152h4.944zm3.696 3.768v-5.436h1.452v-1.176h-1.452v-.108c0-.472.108-.806.324-1.002s.592-.282 1.128-.258h0v-1.2c-.944-.048-1.652.13-2.124.534s-.708 1-.708 1.818h0v.216h-.9v1.176h.9V291h1.38zm3.24-7.752c.264 0 .478-.072.642-.216s.246-.332.246-.564a.75.75 0 0 0-.246-.576c-.164-.152-.378-.228-.642-.228s-.476.076-.636.228a.76.76 0 0 0-.24.576c0 .232.08.42.24.564s.372.216.636.216zm.684 7.752v-6.612h-1.368V291h1.368zm4.308.084c.6 0 1.112-.148 1.536-.444a2.32 2.32 0 0 0 .888-1.176h0V291h1.38v-8.88h-1.38v3.804a2.32 2.32 0 0 0-.888-1.176c-.424-.296-.936-.444-1.536-.444-.576 0-1.1.136-1.542.408s-.806.664-1.062 1.176-.384 1.112-.384 1.8c0 .696.128 1.3.384 1.812s.6.904 1.062 1.176.966.408 1.542.408zm.42-1.212c-.608 0-1.094-.194-1.458-.582s-.546-.922-.546-1.602.182-1.214.546-1.602.85-.582 1.458-.582c.384 0 .728.1 1.032.27s.544.436.72.768a2.41 2.41 0 0 1 .264 1.146c0 .44-.088.824-.264 1.152s-.416.582-.72.762-.648.27-1.032.27zm7.968 1.212c.552 0 1.052-.102 1.5-.306s.812-.486 1.092-.846.464-.772.552-1.236h0-1.464c-.072.384-.266.692-.582.924s-.702.348-1.158.348c-.52 0-.956-.164-1.308-.492s-.54-.832-.564-1.512h5.088c.032-.168.048-.364.048-.588a3.17 3.17 0 0 0-.39-1.566c-.26-.468-.632-.836-1.116-1.104s-1.05-.402-1.698-.402c-.64 0-1.206.136-1.698.408a2.9 2.9 0 0 0-1.158 1.176c-.28.512-.42 1.112-.42 1.8 0 .696.14 1.3.42 1.812a2.9 2.9 0 0 0 1.158 1.176c.492.272 1.058.408 1.698.408zm1.824-3.744h-3.756c.032-.64.228-1.124.588-1.452s.808-.492 1.344-.492c.336 0 .646.07.93.2s.508.356.672.648.238.654.222 1.086h0zm4.068 3.66v-8.88h-1.368V291h1.368zm2.34-7.752c.264 0 .478-.072.642-.216s.246-.332.246-.564a.75.75 0 0 0-.246-.576c-.164-.152-.378-.228-.642-.228s-.476.076-.636.228a.76.76 0 0 0-.24.576c0 .232.08.42.24.564s.372.216.636.216zm.684 7.752v-6.612h-1.368V291h1.368zm4.98 0v-1.188h-.66c-.352 0-.598-.072-.738-.216s-.2-.404-.2-.78h0v-3.264h1.596v-1.164h-1.596v-1.644h-1.38v1.644h-.948v1.164h.948v3.24c0 .792.182 1.358.546 1.698s.898.5 1.602.5h.84zm3.408 3.144l3.996-9.756H296.5l-1.836 4.86-1.98-4.86h-1.536l2.784 6.456-1.428 3.3h1.524zm9.072 0v-4.68a2.32 2.32 0 0 0 .888 1.176c.424.296.936.444 1.536.444.576 0 1.1-.136 1.542-.408s.806-.664 1.062-1.176.384-1.116.384-1.812c0-.688-.128-1.288-.384-1.8s-.6-.904-1.062-1.176-.966-.408-1.542-.408c-.6 0-1.112.148-1.536.444a2.32 2.32 0 0 0-.888 1.176h0v-1.536h-1.368v9.756h1.368zm2.004-4.272c-.384 0-.728-.1-1.032-.27s-.544-.434-.72-.762-.264-.712-.264-1.152a2.41 2.41 0 0 1 .264-1.146c.176-.332.416-.588.72-.768s.648-.27 1.032-.27c.608 0 1.096.196 1.464.588s.552.924.552 1.596c0 .68-.184 1.214-.552 1.602s-.856.582-1.464.582zM311.2 291v-3.348c0-.672.182-1.154.546-1.446s.846-.438 1.446-.438h.408v-1.488c-.544 0-1.024.126-1.44.378a2.55 2.55 0 0 0-.96 1.026h0v-1.296h-1.368V291h1.368zm6.444.084c.64 0 1.216-.136 1.728-.408a2.93 2.93 0 0 0 1.2-1.176c.288-.512.432-1.116.432-1.812 0-.688-.144-1.288-.432-1.8a2.93 2.93 0 0 0-1.2-1.176c-.512-.272-1.088-.408-1.728-.408s-1.214.136-1.722.408-.908.664-1.2 1.176-.438 1.112-.438 1.8.146 1.3.438 1.806.692.9 1.2 1.182 1.082.408 1.722.408zm0-1.2a2.01 2.01 0 0 1-.972-.24c-.296-.16-.534-.404-.714-.732s-.27-.736-.27-1.224c0-.48.1-.886.27-1.218s.418-.578.714-.738a2.01 2.01 0 0 1 .972-.24 2.01 2.01 0 0 1 .972.24c.296.16.534.406.714.738s.27.738.27 1.218c0 .488-.1.896-.27 1.224s-.418.572-.714.732a2.01 2.01 0 0 1-.972.24zm8.004 1.116v-1.188h-.66c-.352 0-.598-.072-.738-.216s-.2-.404-.2-.78h0v-3.264h1.596v-1.164h-1.596v-1.644h-1.38v1.644h-.948v1.164h.948v3.24c0 .792.182 1.358.546 1.698s.898.5 1.602.5h.84zm4.308.084c.64 0 1.216-.136 1.728-.408a2.93 2.93 0 0 0 1.2-1.176c.288-.512.432-1.116.432-1.812 0-.688-.144-1.288-.432-1.8a2.93 2.93 0 0 0-1.2-1.176c-.512-.272-1.088-.408-1.728-.408s-1.214.136-1.722.408-.908.664-1.2 1.176-.438 1.112-.438 1.8.146 1.3.438 1.806.692.9 1.2 1.182 1.082.408 1.722.408zm0-1.2a2.01 2.01 0 0 1-.972-.24c-.296-.16-.534-.404-.714-.732s-.27-.736-.27-1.224c0-.48.1-.886.27-1.218s.418-.578.714-.738a2.01 2.01 0 0 1 .972-.24 2.01 2.01 0 0 1 .972.24c.296.16.534.406.714.738s.27.738.27 1.218c0 .488-.1.896-.27 1.224s-.418.572-.714.732a2.01 2.01 0 0 1-.972.24zM337.96 291v-1.188h-.66c-.352 0-.598-.072-.738-.216s-.2-.404-.2-.78h0v-3.264h1.596v-1.164h-1.596v-1.644h-1.38v1.644h-.948v1.164h.948v3.24c0 .792.182 1.358.546 1.698s.898.5 1.602.5h.84zm3.408 3.144l3.996-9.756h-1.524l-1.836 4.86-1.98-4.86h-1.536l2.784 6.456-1.428 3.3h1.524zm6.264 0v-4.68a2.32 2.32 0 0 0 .888 1.176c.424.296.936.444 1.536.444.576 0 1.1-.136 1.542-.408s.806-.664 1.062-1.176.384-1.116.384-1.812c0-.688-.128-1.288-.384-1.8s-.6-.904-1.062-1.176-.966-.408-1.542-.408c-.6 0-1.112.148-1.536.444a2.32 2.32 0 0 0-.888 1.176h0v-1.536h-1.368v9.756h1.368zm2.004-4.272c-.384 0-.728-.1-1.032-.27s-.544-.434-.72-.762-.264-.712-.264-1.152a2.41 2.41 0 0 1 .264-1.146c.176-.332.416-.588.72-.768s.648-.27 1.032-.27c.608 0 1.096.196 1.464.588s.552.924.552 1.596c0 .68-.184 1.214-.552 1.602s-.856.582-1.464.582zm7.668 1.212c.552 0 1.052-.102 1.5-.306s.812-.486 1.092-.846.464-.772.552-1.236h0-1.464c-.072.384-.266.692-.582.924s-.702.348-1.158.348c-.52 0-.956-.164-1.308-.492s-.54-.832-.564-1.512h5.088c.032-.168.048-.364.048-.588a3.17 3.17 0 0 0-.39-1.566c-.26-.468-.632-.836-1.116-1.104s-1.05-.402-1.698-.402c-.64 0-1.206.136-1.698.408a2.9 2.9 0 0 0-1.158 1.176c-.28.512-.42 1.112-.42 1.8 0 .696.14 1.3.42 1.812a2.9 2.9 0 0 0 1.158 1.176c.492.272 1.058.408 1.698.408zm1.824-3.744h-3.756c.032-.64.228-1.124.588-1.452s.808-.492 1.344-.492c.336 0 .646.07.93.2s.508.356.672.648.238.654.222 1.086h0z"/><path d="M512.214 153.36a.72.72 0 0 0-.787.157l-7.895 7.895a.72.72 0 0 0 .511 1.233h7.895a.72.72 0 0 0 .722-.722v-7.895a.72.72 0 0 0-.446-.667zm-6.427 7.84l5.428-5.428v5.428h-5.428zm11.65-19.42a.72.72 0 0 0-.787.157l-2.164 2.164v-14.7a.72.72 0 0 0-.722-.722h-5.55l3.957-3.957a2.19 2.19 0 0 0 0-3.115l-2.245-2.245a2.19 2.19 0 0 0-3.115 0l-9.317 9.317H475.07v-7.147a.72.72 0 0 0-.722-.722 5.69 5.69 0 0 0-5.682 5.682v30.683a.72.72 0 0 0 .017.155 5.44 5.44 0 0 0 5.455 5.056h22.075l-4.158 4.158c-.207.207-.268.517-.157.787a.72.72 0 0 0 .667.446h24.595a.72.72 0 0 0 .722-.722V142.45a.72.72 0 0 0-.446-.667zm-9.605-21.4a.76.76 0 0 1 1.072 0l2.245 2.245a.76.76 0 0 1 0 1.072l-1.43 1.432-3.317-3.317 1.432-1.432zm-2.453 2.453l3.317 3.317-1.326 1.326-3.317-3.317 1.325-1.326zm11.06 27.74h-1.333a.72.72 0 1 0 0 1.444h1.333v2.177h-1.333a.72.72 0 1 0 0 1.444h1.333v2.177h-1.333a.72.72 0 1 0 0 1.444h1.333v2.177h-1.333a.72.72 0 1 0 0 1.444h1.333v3.446h-22.13l7.297-7.297c.282-.282.282-.74 0-1.022a.73.73 0 0 0-.104-.085c-.28-.193-.668-.164-.918.085l-2.928 2.928h-23.52c-2.2 0-3.955-1.7-4.024-3.898l.032-.408.03-.193.004-.022.034-.17.01-.047.035-.14.022-.076.033-.1.037-.108.027-.075.055-.14.017-.04.077-.17a4.26 4.26 0 0 1 2.96-2.32l.192-.035.03-.005.166-.02.047-.006.162-.012.05-.004.214-.005a.72.72 0 0 0 .722-.722v-5.238a.72.72 0 1 0-1.444 0v4.56a5.64 5.64 0 0 0-3.245 1.57l-.27.284v-26.9c0-2.1 1.52-3.832 3.515-4.176v21.772a.72.72 0 1 0 1.444 0V130.1h20.98l-3.994 3.994c-.282.282-.282.74 0 1.022s.74.282 1.022 0l9.956-9.956 3.317 3.317-14.957 14.957-3.317-3.317 2.87-2.87c.282-.282.282-.74 0-1.022s-.74-.282-1.022 0l-3.382 3.382c-.018.018-.035.037-.05.057l-.045.06-.015.025-.023.04-.013.028-.018.043-2.373 6.72a.73.73 0 0 0-.029.11h-2.402a.72.72 0 1 0 0 1.444h20.006a.72.72 0 1 0 0-1.444h-14.354l4.406-1.555.06-.026.02-.01.05-.028.067-.046c.033-.025.052-.043.07-.06l14.866-14.866h6.273v15.433l-10.334 10.334c-.282.282-.282.74 0 1.022a.74.74 0 0 0 .055.05.72.72 0 0 0 .967-.05l12.7-12.7v6.374zm-26.368-6.398l-2.07.73-1.38-1.38.73-2.07 2.718 2.718z" class="C"/><path d="M424.903 155.563c4.465 0 7.453-2.46 7.453-6.316V138.36h-4.97v10.336c0 1.78-.88 2.754-2.484 2.754s-2.484-.973-2.484-2.754V138.36h-4.97v10.887c0 3.855 2.988 6.316 7.453 6.316zm14.645-.293l2.895-5.098h.105l2.906 5.098h5.53l-5.215-8.45v-.094l5.238-8.367H445.5l-2.672 5.39h-.094l-2.66-5.39h-5.79l4.992 8.344v.094l-4.98 8.473h5.25zm16.79 3.668l6.023-20.578h-4.57l-6.023 20.578h4.57zm15.29-3.375c4.465 0 7.453-2.46 7.453-6.316V138.36h-4.97v10.336c0 1.78-.88 2.754-2.484 2.754s-2.484-.973-2.484-2.754V138.36h-4.97v10.887c0 3.855 2.988 6.316 7.453 6.316zm15.055-.293v-16.9h-4.97v16.9h4.97zm14.723 0c5.12 0 8.145-3.164 8.145-8.578s-3.012-8.332-8.145-8.332h-7.23v16.9h7.23zm-.703-3.95h-1.56v-9.012h1.56c2.38 0 3.785 1.535 3.785 4.383 0 3.117-1.3 4.63-3.785 4.63zm17.235 4.277c3.55 0 5.988-1.734 6.387-4.523h-4.277c-.28.773-1.066 1.23-2.04 1.23-1.29 0-2.203-.914-2.203-2.18v-.305h8.578v-1.3c0-3.96-2.6-6.516-6.598-6.516-4.066 0-6.61 2.637-6.61 6.867 0 4.207 2.52 6.727 6.762 6.727zm1.97-8.38h-4.03c.094-1.113.926-1.9 2.016-1.9 1.125 0 1.934.75 2.016 1.9zm12.23 8.38c3.75 0 6.258-1.758 6.258-4.57 0-1.957-1.254-3.035-4.055-3.55l-2.344-.434c-1.172-.223-1.488-.504-1.488-.96 0-.586.586-.937 1.453-.937 1.03 0 1.63.586 1.688 1.37h4.36c-.06-2.766-2.273-4.512-6.047-4.512-3.762 0-6.047 1.652-6.047 4.348 0 2.004 1.348 3.398 3.914 3.867l2.344.434c1.1.2 1.465.457 1.465.926 0 .54-.574.88-1.5.88-1.078 0-1.71-.492-1.875-1.3h-4.64c.223 2.648 2.438 4.44 6.516 4.44zm10.203-14.496c1.277 0 2.285-1.02 2.285-2.238s-1.008-2.238-2.285-2.238-2.285 1.02-2.285 2.238 1.008 2.238 2.285 2.238zm2.426 14.168v-12.938h-4.805v12.938h4.805zm8.55 4.875c4.16 0 7.03-1.898 7.03-4.98v-12.832h-4.805v2.332h-.094c-.504-1.453-1.9-2.52-3.797-2.52-3.223 0-5.12 2.46-5.12 6.62 0 4.055 2.027 6.34 5.05 6.34 1.934 0 3.445-.95 3.867-2.31h.094v2.484c0 1.1-.69 1.828-2.12 1.828-1.078 0-1.84-.445-1.98-1.066h-4.617c.2 2.402 2.566 4.102 6.492 4.102zm.188-8.508c-1.3 0-2.05-.973-2.05-2.836 0-1.828.762-2.953 2.05-2.953s2.063 1.125 2.063 2.965c0 1.863-.762 2.824-2.062 2.824zm13.743 3.633v-7.23c0-1.207.69-2.086 1.828-2.086 1.207 0 1.816.797 1.816 2.098v7.22h4.805v-8.285c0-3.105-1.594-4.9-4.5-4.9-1.97 0-3.316.984-3.973 2.8h-.094v-2.543h-4.687v12.938h4.805z"/></g><rect x="419.837" y="176.186" width="146" height="21" rx="10.5" class="C D"/><g class="E"><path d="M427.972 190v-3.516c0-.672.164-1.182.492-1.53s.764-.522 1.308-.522c.528 0 .944.162 1.248.486s.456.782.456 1.374h0V190h1.368v-3.852c0-.92-.232-1.628-.696-2.124s-1.08-.744-1.848-.744c-.544 0-1.024.136-1.44.408s-.712.656-.888 1.152h0v-3.72h-1.368V190h1.368zm7.152-7.752c.264 0 .478-.072.642-.216s.246-.332.246-.564a.75.75 0 0 0-.246-.576c-.164-.152-.378-.228-.642-.228s-.476.076-.636.228a.76.76 0 0 0-.24.576c0 .232.08.42.24.564s.372.216.636.216zm.684 7.752v-6.612h-1.368V190h1.368zm4.968 3.24c.648 0 1.208-.136 1.68-.408s.834-.646 1.086-1.122.378-1.022.378-1.638h0v-6.684h-1.368v1.536a2.39 2.39 0 0 0-.9-1.176c-.424-.296-.936-.444-1.536-.444-.576 0-1.1.136-1.542.408s-.806.664-1.062 1.176-.384 1.112-.384 1.8c0 .696.128 1.3.384 1.812s.6.904 1.062 1.176.966.408 1.542.408c.6 0 1.112-.148 1.536-.444a2.39 2.39 0 0 0 .9-1.176h0v1.608c0 .64-.176 1.128-.528 1.464s-.8.504-1.344.504c-.496 0-.904-.1-1.224-.33s-.536-.526-.648-.918h0-1.356c.144.752.502 1.348 1.074 1.788s1.322.66 2.25.66zm-.24-4.368c-.608 0-1.094-.194-1.458-.582s-.546-.922-.546-1.602.182-1.214.546-1.602.85-.582 1.458-.582c.384 0 .728.1 1.032.27s.544.436.72.768a2.41 2.41 0 0 1 .264 1.146c0 .44-.088.824-.264 1.152s-.416.582-.72.762-.648.27-1.032.27zm6.396 1.128v-3.516c0-.672.164-1.182.492-1.53s.764-.522 1.308-.522c.528 0 .944.162 1.248.486s.456.782.456 1.374h0V190h1.368v-3.852c0-.92-.232-1.628-.696-2.124s-1.08-.744-1.848-.744c-.544 0-1.024.136-1.44.408s-.712.656-.888 1.152h0v-3.72h-1.368V190h1.368zm10.476-3.768v-1.152h-4.944v1.152h4.944zm3.696 3.768v-5.436h1.452v-1.176h-1.452v-.108c0-.472.108-.806.324-1.002s.592-.282 1.128-.258h0v-1.2c-.944-.048-1.652.13-2.124.534s-.708 1-.708 1.818h0v.216h-.9v1.176h.9V190h1.38zm3.24-7.752c.264 0 .478-.072.642-.216s.246-.332.246-.564a.75.75 0 0 0-.246-.576c-.164-.152-.378-.228-.642-.228s-.476.076-.636.228a.76.76 0 0 0-.24.576c0 .232.08.42.24.564s.372.216.636.216zm.684 7.752v-6.612h-1.368V190h1.368zm4.308.084c.6 0 1.112-.148 1.536-.444a2.32 2.32 0 0 0 .888-1.176h0V190h1.38v-8.88h-1.38v3.804a2.32 2.32 0 0 0-.888-1.176c-.424-.296-.936-.444-1.536-.444-.576 0-1.1.136-1.542.408s-.806.664-1.062 1.176-.384 1.112-.384 1.8c0 .696.128 1.3.384 1.812s.6.904 1.062 1.176.966.408 1.542.408zm.42-1.212c-.608 0-1.094-.194-1.458-.582s-.546-.922-.546-1.602.182-1.214.546-1.602.85-.582 1.458-.582c.384 0 .728.1 1.032.27s.544.436.72.768a2.41 2.41 0 0 1 .264 1.146c0 .44-.088.824-.264 1.152s-.416.582-.72.762-.648.27-1.032.27zm7.968 1.212c.552 0 1.052-.102 1.5-.306s.812-.486 1.092-.846.464-.772.552-1.236h0-1.464c-.072.384-.266.692-.582.924s-.702.348-1.158.348c-.52 0-.956-.164-1.308-.492s-.54-.832-.564-1.512h5.088c.032-.168.048-.364.048-.588a3.17 3.17 0 0 0-.39-1.566c-.26-.468-.632-.836-1.116-1.104s-1.05-.402-1.698-.402c-.64 0-1.206.136-1.698.408a2.9 2.9 0 0 0-1.158 1.176c-.28.512-.42 1.112-.42 1.8 0 .696.14 1.3.42 1.812a2.9 2.9 0 0 0 1.158 1.176c.492.272 1.058.408 1.698.408zm1.824-3.744h-3.756c.032-.64.228-1.124.588-1.452s.808-.492 1.344-.492c.336 0 .646.07.93.2s.508.356.672.648.238.654.222 1.086h0zm4.068 3.66v-8.88h-1.368V190h1.368zm2.34-7.752c.264 0 .478-.072.642-.216s.246-.332.246-.564a.75.75 0 0 0-.246-.576c-.164-.152-.378-.228-.642-.228s-.476.076-.636.228a.76.76 0 0 0-.24.576c0 .232.08.42.24.564s.372.216.636.216zm.684 7.752v-6.612h-1.368V190h1.368zm4.98 0v-1.188h-.66c-.352 0-.598-.072-.738-.216s-.2-.404-.2-.78h0v-3.264h1.596v-1.164h-1.596v-1.644h-1.38v1.644h-.948v1.164h.948v3.24c0 .792.182 1.358.546 1.698s.898.5 1.602.5h.84zm3.408 3.144l3.996-9.756H497.5l-1.836 4.86-1.98-4.86h-1.536l2.784 6.456-1.428 3.3h1.524zm9.072 0v-4.68a2.32 2.32 0 0 0 .888 1.176c.424.296.936.444 1.536.444.576 0 1.1-.136 1.542-.408s.806-.664 1.062-1.176.384-1.116.384-1.812c0-.688-.128-1.288-.384-1.8s-.6-.904-1.062-1.176-.966-.408-1.542-.408c-.6 0-1.112.148-1.536.444a2.32 2.32 0 0 0-.888 1.176h0v-1.536h-1.368v9.756h1.368zm2.004-4.272c-.384 0-.728-.1-1.032-.27s-.544-.434-.72-.762-.264-.712-.264-1.152a2.41 2.41 0 0 1 .264-1.146c.176-.332.416-.588.72-.768s.648-.27 1.032-.27c.608 0 1.096.196 1.464.588s.552.924.552 1.596c0 .68-.184 1.214-.552 1.602s-.856.582-1.464.582zM512.2 190v-3.348c0-.672.182-1.154.546-1.446s.846-.438 1.446-.438h.408v-1.488c-.544 0-1.024.126-1.44.378a2.55 2.55 0 0 0-.96 1.026h0v-1.296h-1.368V190h1.368zm6.444.084c.64 0 1.216-.136 1.728-.408a2.93 2.93 0 0 0 1.2-1.176c.288-.512.432-1.116.432-1.812 0-.688-.144-1.288-.432-1.8a2.93 2.93 0 0 0-1.2-1.176c-.512-.272-1.088-.408-1.728-.408s-1.214.136-1.722.408-.908.664-1.2 1.176-.438 1.112-.438 1.8.146 1.3.438 1.806.692.9 1.2 1.182 1.082.408 1.722.408zm0-1.2a2.01 2.01 0 0 1-.972-.24c-.296-.16-.534-.404-.714-.732s-.27-.736-.27-1.224c0-.48.1-.886.27-1.218s.418-.578.714-.738a2.01 2.01 0 0 1 .972-.24 2.01 2.01 0 0 1 .972.24c.296.16.534.406.714.738s.27.738.27 1.218c0 .488-.1.896-.27 1.224s-.418.572-.714.732a2.01 2.01 0 0 1-.972.24zm8.004 1.116v-1.188h-.66c-.352 0-.598-.072-.738-.216s-.2-.404-.2-.78h0v-3.264h1.596v-1.164h-1.596v-1.644h-1.38v1.644h-.948v1.164h.948v3.24c0 .792.182 1.358.546 1.698s.898.5 1.602.5h.84zm4.308.084c.64 0 1.216-.136 1.728-.408a2.93 2.93 0 0 0 1.2-1.176c.288-.512.432-1.116.432-1.812 0-.688-.144-1.288-.432-1.8a2.93 2.93 0 0 0-1.2-1.176c-.512-.272-1.088-.408-1.728-.408s-1.214.136-1.722.408-.908.664-1.2 1.176-.438 1.112-.438 1.8.146 1.3.438 1.806.692.9 1.2 1.182 1.082.408 1.722.408zm0-1.2a2.01 2.01 0 0 1-.972-.24c-.296-.16-.534-.404-.714-.732s-.27-.736-.27-1.224c0-.48.1-.886.27-1.218s.418-.578.714-.738a2.01 2.01 0 0 1 .972-.24 2.01 2.01 0 0 1 .972.24c.296.16.534.406.714.738s.27.738.27 1.218c0 .488-.1.896-.27 1.224s-.418.572-.714.732a2.01 2.01 0 0 1-.972.24zM538.96 190v-1.188h-.66c-.352 0-.598-.072-.738-.216s-.2-.404-.2-.78h0v-3.264h1.596v-1.164h-1.596v-1.644h-1.38v1.644h-.948v1.164h.948v3.24c0 .792.182 1.358.546 1.698s.898.5 1.602.5h.84zm3.408 3.144l3.996-9.756h-1.524l-1.836 4.86-1.98-4.86h-1.536l2.784 6.456-1.428 3.3h1.524zm6.264 0v-4.68a2.32 2.32 0 0 0 .888 1.176c.424.296.936.444 1.536.444.576 0 1.1-.136 1.542-.408s.806-.664 1.062-1.176.384-1.116.384-1.812c0-.688-.128-1.288-.384-1.8s-.6-.904-1.062-1.176-.966-.408-1.542-.408c-.6 0-1.112.148-1.536.444a2.32 2.32 0 0 0-.888 1.176h0v-1.536h-1.368v9.756h1.368zm2.004-4.272c-.384 0-.728-.1-1.032-.27s-.544-.434-.72-.762-.264-.712-.264-1.152a2.41 2.41 0 0 1 .264-1.146c.176-.332.416-.588.72-.768s.648-.27 1.032-.27c.608 0 1.096.196 1.464.588s.552.924.552 1.596c0 .68-.184 1.214-.552 1.602s-.856.582-1.464.582zm7.668 1.212c.552 0 1.052-.102 1.5-.306s.812-.486 1.092-.846.464-.772.552-1.236h0-1.464c-.072.384-.266.692-.582.924s-.702.348-1.158.348c-.52 0-.956-.164-1.308-.492s-.54-.832-.564-1.512h5.088c.032-.168.048-.364.048-.588a3.17 3.17 0 0 0-.39-1.566c-.26-.468-.632-.836-1.116-1.104s-1.05-.402-1.698-.402c-.64 0-1.206.136-1.698.408a2.9 2.9 0 0 0-1.158 1.176c-.28.512-.42 1.112-.42 1.8 0 .696.14 1.3.42 1.812a2.9 2.9 0 0 0 1.158 1.176c.492.272 1.058.408 1.698.408zm1.824-3.744h-3.756c.032-.64.228-1.124.588-1.452s.808-.492 1.344-.492c.336 0 .646.07.93.2s.508.356.672.648.238.654.222 1.086h0z" class="B"/><g class="C"><path d="M737.28 238.07v-10.065h-5.335v-6.75h-8.374v1.81h6.514v1.808h-36.6v-1.808H721.7v-1.81H687.9v6.75h-3.474v-8.44h-5.273c-2.908 0-5.273 2.298-5.273 5.123v39.784c0 2.825 2.365 5.123 5.273 5.123h58.128v-29.718h-1.86v27.91h-56.266c-1.88 0-3.412-1.487-3.412-3.315 0-.886.355-1.718 1-2.344a3.44 3.44 0 0 1 2.413-.971h5.273v-7.535h-1.86v5.726h-3.412c-1.264 0-2.46.43-3.412 1.216v-35.876c0-1.828 1.53-3.315 3.412-3.315h3.412v30.44h1.86v-22h3.474v19.47h1.86v-22.604h40.323v29.536h-40.323V251.1h-1.86v6.932h44.045v-28.2h3.474v8.256h1.86zm-45.658-13.2h-1.86v-1.808h1.86v1.808z" class="B"/><path d="M709.924 249.583c-1.958 0-3.862-.67-5.363-1.887l-1.192 1.388c1.834 1.487 4.162 2.306 6.555 2.306 5.644 0 10.236-4.462 10.236-9.946 0-2.3-.82-4.527-2.312-6.296l-1.44 1.145c1.22 1.447 1.9 3.276 1.9 5.15 0 4.487-3.756 8.138-8.374 8.138h0zm-10.236-8.137c0 2.256.8 4.466 2.25 6.222l1.45-1.132c-1.204-1.457-1.84-3.218-1.84-5.1 0-4.487 3.757-8.138 8.375-8.138a8.54 8.54 0 0 1 5.301 1.837l1.18-1.4a10.43 10.43 0 0 0-6.48-2.246c-5.644 0-10.236 4.462-10.236 9.946h0zm1.552 18.504h9.926v1.808h-9.926zm-7.446 0h1.86v1.808h-1.86zm3.722 0h1.86v1.808h-1.86zm-3.722 3.618h7.444v1.808h-7.444zm-3.722 0h1.86v1.808h-1.86zm38.152-30.44v-4.52h-4.652v1.808h2.8v2.712zm-14.616 4.665l-5.546 5.4L706 241.17l-1.316 1.28 3.387 3.3 6.86-6.667z"/></g><path d="M615.5 249.907v-16.9h-4.97v16.9h4.97zm7.168 0v-7.512c0-1.125.586-1.828 1.56-1.828 1.03 0 1.56.62 1.56 1.852v7.488h4.56v-7.512c0-1.137.574-1.828 1.547-1.828 1.043 0 1.57.61 1.57 1.84v7.5h4.805v-8.742c0-2.637-1.734-4.453-4.254-4.453-1.97 0-3.54 1.137-3.973 2.848h-.094c-.316-1.816-1.63-2.848-3.598-2.848-1.77 0-3.223 1.125-3.703 2.87h-.094v-2.613h-4.688v12.938h4.805zm22.45 4.137v-6.375h.094c.598 1.512 2.004 2.426 3.914 2.426 3.21 0 5.004-2.39 5.004-6.656 0-4.277-1.805-6.656-5.062-6.656-1.863 0-3.234.938-3.855 2.52h-.082v-2.332h-4.816v17.074h4.805zm2.04-7.652c-1.266 0-2.05-1.125-2.062-2.94.012-1.805.81-2.965 2.063-2.965s2.05 1.16 2.05 2.953c0 1.805-.785 2.953-2.05 2.953zm13.602 3.516v-16.9h-4.805v16.9h4.805zm8.586.328c3.55 0 5.988-1.734 6.387-4.523h-4.277c-.28.773-1.066 1.23-2.04 1.23-1.29 0-2.203-.914-2.203-2.18v-.305h8.578v-1.3c0-3.96-2.6-6.516-6.598-6.516-4.066 0-6.61 2.637-6.61 6.867 0 4.207 2.52 6.727 6.762 6.727zm1.97-8.38h-4.03c.094-1.113.926-1.9 2.016-1.9 1.125 0 1.934.75 2.016 1.9zm11.036 8.05v-7.512c0-1.125.586-1.828 1.56-1.828 1.03 0 1.56.62 1.56 1.852v7.488h4.56v-7.512c0-1.137.574-1.828 1.547-1.828 1.043 0 1.57.61 1.57 1.84v7.5h4.805v-8.742c0-2.637-1.734-4.453-4.254-4.453-1.97 0-3.54 1.137-3.973 2.848h-.094c-.316-1.816-1.63-2.848-3.598-2.848-1.77 0-3.223 1.125-3.703 2.87h-.094v-2.613h-4.687v12.938h4.805zm24.078.328c3.55 0 5.988-1.734 6.387-4.523h-4.277c-.28.773-1.066 1.23-2.04 1.23-1.29 0-2.203-.914-2.203-2.18v-.305h8.578v-1.3c0-3.96-2.6-6.516-6.598-6.516-4.066 0-6.61 2.637-6.61 6.867 0 4.207 2.52 6.727 6.762 6.727zm1.97-8.38h-4.03c.094-1.113.926-1.9 2.016-1.9 1.125 0 1.934.75 2.016 1.9zm11.036 8.05v-7.23c0-1.207.69-2.086 1.828-2.086 1.207 0 1.816.797 1.816 2.098v7.22h4.805v-8.285c0-3.105-1.594-4.9-4.5-4.9-1.97 0-3.316.984-3.973 2.8h-.094v-2.543h-4.687v12.938h4.805zm16.743 0c.914 0 1.523-.082 1.98-.176v-3.328c-.28.047-.457.06-.82.06-.984 0-1.453-.422-1.453-1.23v-4.78h2.273v-3.48h-2.273v-2.836h-4.805v2.836h-1.71v3.48h1.71v5.848c0 2.555 1.44 3.61 5.098 3.61zm7.73.188c1.5 0 3.07-.656 3.75-1.922h.094v1.734h4.688v-8.848c0-2.625-2.402-4.418-5.988-4.418-3.773 0-6.117 1.746-6.234 4.512h4.29c.07-.656.703-1.195 1.688-1.195.902 0 1.56.47 1.56 1.336v.633l-2.836.176c-3.457.21-5.367 1.56-5.367 4.043 0 2.332 2.004 3.95 4.36 3.95zm1.793-3.21c-.844 0-1.418-.4-1.418-1.113 0-.633.516-1.066 1.43-1.137l2.04-.14v.844c0 .95-.984 1.547-2.05 1.547zm15.1 3.023c.914 0 1.523-.082 1.98-.176v-3.328c-.28.047-.457.06-.82.06-.984 0-1.453-.422-1.453-1.23v-4.78h2.273v-3.48h-2.273v-2.836h-4.805v2.836h-1.71v3.48h1.71v5.848c0 2.555 1.44 3.61 5.098 3.61zm6.23-14.168c1.277 0 2.285-1.02 2.285-2.238s-1.008-2.238-2.285-2.238-2.285 1.02-2.285 2.238 1.008 2.238 2.285 2.238zm2.426 14.168V236.97h-4.805v12.938h4.805zm8.563.328c4.23 0 6.81-2.426 6.81-6.81 0-4.277-2.637-6.785-6.81-6.785-4.148 0-6.797 2.53-6.797 6.785 0 4.37 2.578 6.81 6.797 6.81zm0-3.434c-1.207 0-1.922-1.195-1.922-3.363 0-2.11.75-3.363 1.922-3.363 1.184 0 1.934 1.254 1.934 3.363 0 2.168-.738 3.363-1.934 3.363zm13.38 3.105v-7.23c0-1.207.69-2.086 1.828-2.086 1.207 0 1.816.797 1.816 2.098v7.22h4.805v-8.285c0-3.105-1.594-4.9-4.5-4.9-1.97 0-3.316.984-3.973 2.8h-.094v-2.543h-4.687v12.938h4.805z" class="B"/></g><rect x="670.544" y="277.126" width="69.24" height="21" rx="10.5" class="C D"/><g class="E"><path d="M678.228 292.234c1.62 0 2.676-.9 3.048-2.196H679.8c-.252.684-.756 1.044-1.572 1.044-1.104 0-1.836-.816-1.836-2.268 0-1.44.732-2.256 1.836-2.256.816 0 1.344.408 1.572 1.044h1.476c-.372-1.392-1.428-2.196-3.048-2.196-1.896 0-3.24 1.344-3.24 3.408 0 2.076 1.344 3.42 3.24 3.42zm7.284 0c1.896 0 3.432-1.344 3.432-3.42s-1.488-3.408-3.372-3.408-3.372 1.332-3.372 3.408 1.428 3.42 3.312 3.42zm0-1.188c-1.032 0-1.92-.732-1.92-2.232s.924-2.22 1.956-2.22c1.02 0 1.992.72 1.992 2.22s-1.008 2.232-2.028 2.232zm7.452 1.188c1.08 0 1.872-.504 2.292-1.104v.996h1.38v-8.88h-1.38v3.192c-.504-.624-1.416-1.032-2.28-1.032-1.752 0-3.132 1.344-3.132 3.384s1.38 3.444 3.12 3.444zm.288-1.188c-1.02 0-2.004-.828-2.004-2.256s.984-2.196 2.004-2.196c1.032 0 2.004.804 2.004 2.22 0 1.428-.972 2.232-2.004 2.232zm8.028 1.188c1.62 0 2.664-.924 3.036-2.076h-1.476c-.252.516-.72.924-1.56.924-1.008 0-1.788-.66-1.884-1.752h5.052a4.22 4.22 0 0 0 .048-.672c0-1.944-1.332-3.252-3.216-3.252-1.956 0-3.3 1.332-3.3 3.408s1.404 3.42 3.3 3.42zm1.788-4.008h-3.66c.144-1.044.888-1.668 1.812-1.668 1.02 0 1.824.648 1.848 1.668zm6.444 4.008c1.74 0 3.108-1.404 3.108-3.444s-1.356-3.384-3.108-3.384c-1.044 0-1.872.492-2.304 1.092v-3.252h-1.368v8.88h1.368v-.96c.432.576 1.212 1.068 2.304 1.068zm-.3-1.188c-1.02 0-2.004-.804-2.004-2.232 0-1.416.984-2.22 2.004-2.22 1.032 0 2.016.768 2.016 2.196s-.984 2.256-2.016 2.256zm7.404 1.188c1.104 0 1.896-.528 2.316-1.092v.984h1.38v-6.612h-1.38v.96c-.408-.54-1.176-1.068-2.292-1.068-1.74 0-3.12 1.344-3.12 3.384s1.38 3.444 3.096 3.444zm.312-1.188c-1.02 0-2.004-.828-2.004-2.256s.984-2.196 2.004-2.196c1.032 0 2.004.804 2.004 2.22 0 1.428-.972 2.232-2.004 2.232zm7.584 1.188c1.56 0 2.532-.84 2.532-1.956-.072-2.388-3.804-1.644-3.804-2.976 0-.444.384-.744 1.116-.744.744 0 1.188.396 1.236.972h1.368c-.072-1.32-1.056-2.124-2.556-2.124-1.56 0-2.544.852-2.544 1.908 0 2.424 3.84 1.68 3.84 2.976 0 .456-.42.792-1.212.792-.756 0-1.272-.444-1.32-.984h-1.416c.06 1.2 1.176 2.136 2.76 2.136zm6.852 0c1.62 0 2.664-.924 3.036-2.076h-1.476c-.252.516-.72.924-1.56.924-1.008 0-1.788-.66-1.884-1.752h5.052a4.22 4.22 0 0 0 .048-.672c0-1.944-1.332-3.252-3.216-3.252-1.956 0-3.3 1.332-3.3 3.408s1.404 3.42 3.3 3.42zm1.788-4.008h-3.66c.144-1.044.888-1.668 1.812-1.668 1.02 0 1.824.648 1.848 1.668z" class="B"/><g class="C"><path d="M891.183 160.08a2.58 2.58 0 0 0 2.576-2.576 2.58 2.58 0 0 0-2.576-2.576 2.58 2.58 0 0 0-2.576 2.576 2.58 2.58 0 0 0 2.576 2.576zm0-3.434a.86.86 0 0 1 .859.859.86.86 0 0 1-.859.859.86.86 0 0 1-.859-.859.86.86 0 0 1 .859-.859z" class="B"/><path d="M882.597 158.364h1.717v1.717h-1.717zm3.435-5.152h1.717v1.717h-1.717z"/><path d="M879.163 149.778a3.44 3.44 0 0 0-3.434 3.434 3.44 3.44 0 0 0 3.434 3.434 3.44 3.44 0 0 0 3.434-3.434 3.44 3.44 0 0 0-3.434-3.434zm0 5.152a1.72 1.72 0 0 1-1.717-1.717 1.72 1.72 0 0 1 1.717-1.717 1.72 1.72 0 0 1 1.717 1.717 1.72 1.72 0 0 1-1.717 1.717z" class="B"/><path d="M882.597 110.282h1.717V112h-1.717zm5.153 2.576h1.717v1.717h-1.717zm-1.718 4.292h1.717v1.717h-1.717zm-1.718 6v5.152a2.58 2.58 0 0 0 2.576 2.576 2.58 2.58 0 0 0 2.576-2.576v-2.576h-1.717v2.576a.86.86 0 0 1-.859.859.86.86 0 0 1-.859-.859v-5.152h-1.717z"/><path d="M911.8 129.17h-10.303a2.58 2.58 0 0 0-.859 5.005v8.586c-1.633-3.175-4.336-5.773-7.727-7.208V120.44a2.58 2.58 0 0 0-.859-5.005h-1.717v1.717h1.717a.86.86 0 0 1 .859.859.86.86 0 0 1-.859.859h-2.576v1.717h1.717v15.55a.86.86 0 0 0 .555.804c5.317 2 8.9 7.17 8.9 12.84 0 .84-.093 1.673-.244 2.5-5.152-.603-8.43-1.908-11.884-3.287-3.873-1.545-7.877-3.14-14.6-3.6a13.66 13.66 0 0 1 8.151-8.433.86.86 0 0 0 .555-.804v-15.55h1.717v-1.717h-2.576a.86.86 0 0 1-.859-.859.86.86 0 0 1 .859-.859h3.434v-1.717h-3.434a2.58 2.58 0 0 0-.859 5.005v15.115c-3.44 1.45-6.114 4.02-7.727 7.162v-8.54a2.58 2.58 0 0 0-.859-5.005H862a2.58 2.58 0 0 0-.859 5.005v25.046a5.96 5.96 0 0 0 6.007 6.01l.187-.003c3.213-.097 5.827-2.9 5.827-6.224v-2.153c2.33 4.465 6.815 7.707 11.967 8.28.604.067 1.202.1 1.797.1 3.808-.001 7.403-1.367 10.275-3.936.65-.58 1.228-1.225 1.765-1.898l.174-.215a15.64 15.64 0 0 0 .551-.771 15.49 15.49 0 0 0 .297-.456 15.25 15.25 0 0 0 .432-.726c.075-.137.146-.277.217-.417v2.2c0 3.335 2.614 6.127 5.826 6.224l.187.003a5.96 5.96 0 0 0 6.008-6.01v-25.046a2.58 2.58 0 0 0-.859-5.005zm-49.8 1.717h10.303a.86.86 0 0 1 .859.859.86.86 0 0 1-.859.859h-2.576v1.717h1.717v9.918c-2.214.47-3.717 1.357-5.17 2.222-1.076.64-2.1 1.25-3.417 1.685v-13.825H868v-1.717h-6a.86.86 0 0 1-.859-.859.86.86 0 0 1 .859-.859zm9.445 28.118c0 2.416-1.866 4.438-4.16 4.507a4.25 4.25 0 0 1-3.122-1.209 4.26 4.26 0 0 1-1.303-3.081v-9.273c1.757-.5 3.045-1.267 4.296-2.013 1.3-.774 2.54-1.513 4.3-1.94v13zm1.74-8.422a13.77 13.77 0 0 1 .26-3.525c6.664.416 10.44 1.923 14.428 3.516 3.365 1.343 6.838 2.73 12.107 3.374-.08.256-.18.503-.276.75l-.18.464c-.102.24-.216.47-.33.7l-.234.458a14.4 14.4 0 0 1-.41.705c-.072.115-.148.228-.222.342-.173.258-.347.514-.536.76-.015.02-.03.036-.045.055a13.85 13.85 0 0 1-8.744 5.16l-.14.02a14.48 14.48 0 0 1-.976.106c-.175.012-.352.017-.528.023-.236.008-.472.018-.7.015-.44-.01-.883-.03-1.328-.08-6.1-.682-11.164-5.583-12.017-11.658a14.5 14.5 0 0 1-.116-1.186zm37.755 8.638a4.26 4.26 0 0 1-1.304 3.081 4.24 4.24 0 0 1-3.122 1.209c-2.294-.07-4.16-2.1-4.16-4.507v-13c1.75.428 3 1.167 4.3 1.94 1.25.745 2.54 1.513 4.296 2.013v9.272zm-5.152-26.617v1.717h5.152v13.825c-1.308-.435-2.34-1.045-3.417-1.685-1.452-.865-2.955-1.75-5.17-2.222v-9.918h1.717v-1.717h-2.576a.86.86 0 0 1-.859-.859.86.86 0 0 1 .859-.859H911.8a.86.86 0 0 1 .859.859.86.86 0 0 1-.859.859h-6zm-.868 26.62a2.58 2.58 0 0 0 2.576 2.576 2.58 2.58 0 0 0 2.576-2.576 2.58 2.58 0 0 0-2.576-2.576 2.58 2.58 0 0 0-2.576 2.576zm3.434 0a.86.86 0 0 1-.859.859.86.86 0 0 1-.859-.859.86.86 0 0 1 .859-.859.86.86 0 0 1 .859.859z" class="B"/><path d="M905.78 118h1.717v1.717h-1.717zm4.293 4.293h1.717v1.717h-1.717zm-6.01 2.575h1.717v1.717h-1.717zm1.718 25.33a.43.43 0 0 1-.429.429.43.43 0 0 1-.429-.429v-.43h-1.717v.43a2.15 2.15 0 0 0 2.147 2.147 2.15 2.15 0 0 0 2.147-2.147v-.43h-1.717v.43z"/><path d="M866.284 156.647a2.58 2.58 0 0 0-2.576 2.576 2.58 2.58 0 0 0 2.576 2.576 2.58 2.58 0 0 0 2.576-2.576 2.58 2.58 0 0 0-2.576-2.576zm0 3.434a.86.86 0 0 1-.859-.859.86.86 0 0 1 .859-.859.86.86 0 0 1 .859.859.86.86 0 0 1-.859.859z" class="B"/><path d="M867.142 118h1.717v1.717h-1.717zm-3.434 5.15h1.717v1.717h-1.717zm5.152 2.577h1.717v1.717h-1.717zm-2.576 24.04v.43a2.15 2.15 0 0 0 2.147 2.147 2.15 2.15 0 0 0 2.147-2.147v-.43h-1.717v.43a.43.43 0 0 1-.429.429.43.43 0 0 1-.429-.429v-.43h-1.717z"/></g></g><rect x="850.735" y="176.185" width="79.251" height="21" rx="10.5" class="C D"/><g class="E"><path d="M858.183 191.185v-5.496h1.224v-1.116h-1.224v-.468c0-.756.288-1.044 1.128-1.044v-1.14c-1.728 0-2.508.66-2.508 2.184v.468h-.78v1.116h.78v5.496h1.38zm3.132-7.488c.48 0 .864-.384.864-.876s-.384-.876-.864-.876c-.492 0-.876.384-.876.876s.384.876.876.876zm.672 7.488v-6.612h-1.368v6.612h1.368zm2.448 0l1.344-2.244 1.428 2.244h1.548l-2.136-3.348 2.136-3.264h-1.428l-1.344 2.244-1.428-2.244h-1.548l2.136 3.36-2.136 3.252h1.428zm8.184.108c1.62 0 2.664-.924 3.036-2.076h-1.476c-.252.516-.72.924-1.56.924-1.008 0-1.788-.66-1.884-1.752h5.052a4.22 4.22 0 0 0 .048-.672c0-1.944-1.332-3.252-3.216-3.252-1.956 0-3.3 1.332-3.3 3.408s1.404 3.42 3.3 3.42zm1.788-4.008h-3.66c.144-1.044.888-1.668 1.812-1.668 1.02 0 1.824.648 1.848 1.668zm5.436 4.008c1.08 0 1.872-.504 2.292-1.104v.996h1.38v-8.88h-1.38v3.192c-.504-.624-1.416-1.032-2.28-1.032-1.752 0-3.132 1.344-3.132 3.384s1.38 3.444 3.12 3.444zm.288-1.188c-1.02 0-2.004-.828-2.004-2.256s.984-2.196 2.004-2.196c1.032 0 2.004.804 2.004 2.22 0 1.428-.972 2.232-2.004 2.232zm9-6.408c.48 0 .864-.384.864-.876s-.384-.876-.864-.876c-.492 0-.876.384-.876.876s.384.876.876.876zm.672 7.488v-6.612h-1.368v6.612h1.368zm4.2.108c1.56 0 2.532-.84 2.532-1.956-.072-2.388-3.804-1.644-3.804-2.976 0-.444.384-.744 1.116-.744.744 0 1.188.396 1.236.972h1.368c-.072-1.32-1.056-2.124-2.556-2.124-1.56 0-2.544.852-2.544 1.908 0 2.424 3.84 1.68 3.84 2.976 0 .456-.42.792-1.212.792-.756 0-1.272-.444-1.32-.984h-1.416c.06 1.2 1.176 2.136 2.76 2.136zm6.408 0c1.56 0 2.532-.84 2.532-1.956-.072-2.388-3.804-1.644-3.804-2.976 0-.444.384-.744 1.116-.744.744 0 1.188.396 1.236.972h1.368c-.072-1.32-1.056-2.124-2.556-2.124-1.56 0-2.544.852-2.544 1.908 0 2.424 3.84 1.68 3.84 2.976 0 .456-.42.792-1.212.792-.756 0-1.272-.444-1.32-.984h-1.416c.06 1.2 1.176 2.136 2.76 2.136zm6.672-.012c.78 0 1.524-.324 1.956-.888v.792h1.368v-6.612h-1.368v3.684c0 1.212-.66 1.836-1.668 1.836-.996 0-1.656-.624-1.656-1.836v-3.684h-1.356v3.888c0 1.848 1.176 2.82 2.724 2.82zm7.968.012c1.62 0 2.664-.924 3.036-2.076h-1.476c-.252.516-.72.924-1.56.924-1.008 0-1.788-.66-1.884-1.752h5.052a4.22 4.22 0 0 0 .048-.672c0-1.944-1.332-3.252-3.216-3.252-1.956 0-3.3 1.332-3.3 3.408s1.404 3.42 3.3 3.42zm1.788-4.008h-3.66c.144-1.044.888-1.668 1.812-1.668 1.02 0 1.824.648 1.848 1.668zm5.172 4.008c1.56 0 2.532-.84 2.532-1.956-.072-2.388-3.804-1.644-3.804-2.976 0-.444.384-.744 1.116-.744.744 0 1.188.396 1.236.972h1.368c-.072-1.32-1.056-2.124-2.556-2.124-1.56 0-2.544.852-2.544 1.908 0 2.424 3.84 1.68 3.84 2.976 0 .456-.42.792-1.212.792-.756 0-1.272-.444-1.32-.984h-1.416c.06 1.2 1.176 2.136 2.76 2.136z" class="B"/><g class="C"><path d="M1045.107 226.58c-3.133 0-5.673 2.604-5.673 5.815s2.54 5.812 5.673 5.815 5.673-2.604 5.673-5.815-2.54-5.815-5.673-5.815zm0 9.692c-2.1 0-3.782-1.736-3.782-3.877s1.693-3.877 3.782-3.877 3.782 1.736 3.782 3.877-1.693 3.877-3.782 3.877zm10.136 4.508a12.18 12.18 0 0 0-.986-.907l.01-.028c3.116-9.86-.37-20.65-8.6-26.653a.93.93 0 0 0-1.1 0c-8.24 6.003-11.727 16.795-8.6 26.653l.01.028c-5.2 4.278-6.03 12.067-1.857 17.397a12.28 12.28 0 0 0 .884 1.01c.177.182.418.284.668.284.102 0 .202-.017.3-.05.34-.116.586-.42.637-.782l.714-5.12c.067-.477.465-.83.935-.832h2.88l-.72 3.683a.97.97 0 0 0 .737 1.143.92.92 0 0 0 .189.02h7.564c.522 0 .946-.434.946-.97a.99.99 0 0 0-.019-.194l-.72-3.683h2.88c.47 0 .87.355.935.833l.714 5.12a.96.96 0 0 0 .637.782.92.92 0 0 0 .3.05c.25 0 .5-.102.668-.284 4.718-4.83 4.723-12.664.013-17.5zm-10.136-25.594c2.272 1.777 4.173 4.004 5.6 6.55h-11.18c1.416-2.545 3.317-4.772 5.6-6.55zm-6.87 34.656c-1.4.006-2.602 1.067-2.807 2.497l-.4 2.94c-1.263-1.955-1.846-4.3-1.654-6.627h-.001c.208-2.596 1.354-5.02 3.215-6.794l2.502 7.984h-.845zm4.24 4.846l.567-2.908h4.122l.567 2.908h-5.257zm-1.4-4.846l-3.32-10.6a22.3 22.3 0 0 1 .818-15.578h13.08a22.3 22.3 0 0 1 .818 15.578l-.208.664-3.112 9.927h-8.076zm14.124 5.436l-.4-2.94c-.205-1.43-1.398-2.5-2.807-2.497h-.845l2.504-7.984c1.86 1.775 3.004 4.198 3.212 6.794.192 2.337-.4 4.67-1.654 6.627z" class="B"/><path d="M1041.326 258.488v3.16c-2.296-.718-4.8-.093-6.505 1.63-1.437-1.752-3.553-2.767-5.786-2.774a7.32 7.32 0 0 0-2.036.29c-.763-4.656-4.704-8.06-9.3-8.045h-.945v1.938h.945c3.865-.012 7.1 2.98 7.504 6.922a7.65 7.65 0 0 0-2.336 2.174 9.27 9.27 0 0 0-6.113-2.312v1.938c4.175.005 7.56 3.473 7.564 7.754h1.9a9.79 9.79 0 0 0-1.985-5.926 5.75 5.75 0 0 1 2.35-2.216c.01 0 .02 0 .03-.01a5.5 5.5 0 0 1 2.442-.572c1.832.01 3.548.922 4.6 2.454a7.4 7.4 0 0 0-.827 3.36h1.9a5.34 5.34 0 0 1 .788-2.8h-.006c.013-.018.03-.032.044-.05 1.278-1.925 3.713-2.64 5.792-1.704v2.54h1.9v-7.754h-1.9zm31.2-3.8h.945v-1.938h-.945c-4.606-.017-8.546 3.388-9.3 8.045a7.27 7.27 0 0 0-2.036-.29c-2.232.006-4.35 1.02-5.786 2.77-1.714-1.723-4.2-2.35-6.505-1.63v-3.16h-1.9v7.754h1.9v-2.536c2.08-.938 4.514-.222 5.792 1.703.013.02.03.033.044.05h-.006a5.34 5.34 0 0 1 .788 2.801h1.9c-.006-1.173-.3-2.326-.827-3.36 1.06-1.532 2.777-2.445 4.6-2.454a5.49 5.49 0 0 1 2.442.574c.01.005.02.006.03.01.975.492 1.792 1.26 2.355 2.214-1.3 1.692-2 3.778-2 5.926h1.9c.005-4.28 3.388-7.75 7.564-7.754v-1.938c-2.24 0-4.4.82-6.113 2.312a7.65 7.65 0 0 0-2.336-2.174c.395-3.94 3.64-6.934 7.504-6.922zm-32.145-13.568h1.9v1.938h-1.9zm3.782 0h1.9v1.938h-1.9zm3.782 0h1.9v1.938h-1.9zm-20.8 23.26h1.9v1.938h-1.9zm-10.4-15.507h1.9v1.938h-1.9zm52.946 8.723h1.9v1.938h-1.9zm-7.565-3.876h1.9v1.938h-1.9zm-10.4 15.507h1.9v1.938h-1.9zm19.855-22.292h1.9v1.938h-1.9z"/></g><path d="M1013.137 249.907v-3.95h-6.633v-12.96h-4.97v16.9h11.602zm5.774.188c1.5 0 3.07-.656 3.75-1.922h.094v1.734h4.688v-8.848c0-2.625-2.402-4.418-5.988-4.418-3.773 0-6.117 1.746-6.234 4.512h4.29c.07-.656.703-1.195 1.688-1.195.902 0 1.56.47 1.56 1.336v.633l-2.836.176c-3.457.21-5.367 1.56-5.367 4.043 0 2.332 2.004 3.95 4.36 3.95zm1.793-3.21c-.844 0-1.418-.4-1.418-1.113 0-.633.516-1.066 1.43-1.137l2.04-.14v.844c0 .95-.984 1.547-2.05 1.547zm13.6 3.28c1.934 0 3.14-1.043 3.656-2.8h.094v2.543h4.688V236.97h-4.805v7.23c0 1.254-.703 2.086-1.78 2.086-1.125 0-1.863-.727-1.863-2.098v-7.22h-4.805v8.297c0 3.082 2.04 4.898 4.816 4.898zm15.336-.258v-7.23c0-1.207.69-2.086 1.828-2.086 1.207 0 1.816.797 1.816 2.098v7.22h4.805v-8.285c0-3.105-1.594-4.9-4.5-4.9-1.97 0-3.316.984-3.973 2.8h-.094v-2.543h-4.687v12.938h4.805zm16.907.328c3.844 0 6.234-2.098 6.28-5.602h-4.37c-.082 1.277-.773 2.027-1.852 2.027-1.277 0-1.945-1.125-1.945-3.234 0-2.086.68-3.21 1.945-3.21 1.03 0 1.758.797 1.852 2.11h4.37c-.06-3.504-2.543-5.684-6.305-5.684-4.16 0-6.727 2.566-6.727 6.785 0 4.266 2.555 6.81 6.75 6.81zm12.852-.328v-7.23c0-1.207.645-2.086 1.84-2.086 1.207 0 1.84.797 1.84 2.098v7.22h4.805v-8.285c0-3.105-1.57-4.9-4.477-4.9-1.97 0-3.387.984-4.03 2.8h-.094v-6.516h-4.687v16.9h4.805z" class="B"/></g><rect x="973.728" y="277.126" width="146" height="21" rx="10.5" class="C D"/><path d="M981.965 292.33c.65 0 1.205-.16 1.664-.48a2.59 2.59 0 0 0 .975-1.274h0v1.664h1.482v-7.163h-1.482v1.664a2.59 2.59 0 0 0-.975-1.274c-.46-.32-1.014-.48-1.664-.48-.624 0-1.18.147-1.67.442a3.02 3.02 0 0 0-1.15 1.274c-.277.555-.416 1.205-.416 1.95 0 .754.14 1.408.416 1.963a3.02 3.02 0 0 0 1.15 1.274c.5.295 1.047.442 1.67.442zm.455-1.313c-.66 0-1.185-.2-1.58-.63s-.59-1-.59-1.736.197-1.315.59-1.736.92-.63 1.58-.63c.416 0 .79.097 1.118.292s.59.472.78.832.286.774.286 1.242c0 .477-.095.893-.286 1.248s-.45.63-.78.825-.702.293-1.118.293zm9.27 1.222l2.73-7.163h-1.586l-2.028 5.63-2.054-5.63h-1.586l2.73 7.163h1.794zm6.695.09c.65 0 1.205-.16 1.664-.48a2.59 2.59 0 0 0 .975-1.274h0v1.664h1.482v-7.163h-1.482v1.664a2.59 2.59 0 0 0-.975-1.274c-.46-.32-1.014-.48-1.664-.48-.624 0-1.18.147-1.67.442a3.02 3.02 0 0 0-1.15 1.274c-.277.555-.416 1.205-.416 1.95 0 .754.14 1.408.416 1.963a3.02 3.02 0 0 0 1.15 1.274c.5.295 1.047.442 1.67.442zm.455-1.313c-.66 0-1.185-.2-1.58-.63s-.59-1-.59-1.736.197-1.315.59-1.736.92-.63 1.58-.63c.416 0 .79.097 1.118.292s.59.472.78.832.286.774.286 1.242c0 .477-.095.893-.286 1.248s-.45.63-.78.825-.702.293-1.118.293zm6.188-7.176c.286 0 .518-.078.696-.234s.266-.36.266-.61-.09-.46-.266-.624-.41-.247-.696-.247-.516.082-.69.247-.26.373-.26.624.087.455.26.61.403.234.69.234zm.74 8.398v-7.163h-1.482v7.163h1.482zm3.276 0v-9.62h-1.482v9.62h1.482zm4.667.09c.65 0 1.205-.16 1.664-.48a2.59 2.59 0 0 0 .975-1.274h0v1.664h1.482v-7.163h-1.482v1.664a2.59 2.59 0 0 0-.975-1.274c-.46-.32-1.014-.48-1.664-.48-.624 0-1.18.147-1.67.442a3.02 3.02 0 0 0-1.15 1.274c-.277.555-.416 1.205-.416 1.95 0 .754.14 1.408.416 1.963a3.02 3.02 0 0 0 1.15 1.274c.5.295 1.047.442 1.67.442zm.455-1.313c-.66 0-1.185-.2-1.58-.63s-.59-1-.59-1.736.197-1.315.59-1.736.92-.63 1.58-.63c.416 0 .79.097 1.118.292s.59.472.78.832.286.774.286 1.242c0 .477-.095.893-.286 1.248s-.45.63-.78.825-.702.293-1.118.293zm9.555 1.313c.624 0 1.18-.147 1.67-.442a3.02 3.02 0 0 0 1.15-1.274c.277-.555.416-1.21.416-1.963 0-.745-.14-1.395-.416-1.95a3.02 3.02 0 0 0-1.15-1.274c-.5-.295-1.046-.442-1.67-.442-.65 0-1.205.16-1.664.48s-.78.745-.962 1.274h0v-4.12h-1.482v9.62h1.482v-1.664c.182.53.503.953.962 1.274s1.014.48 1.664.48zm-.455-1.313c-.416 0-.79-.098-1.118-.293s-.59-.47-.78-.825-.286-.77-.286-1.248c0-.468.095-.882.286-1.242s.45-.637.78-.832.702-.292 1.118-.292c.66 0 1.187.212 1.586.637s.598 1 .598 1.73c0 .737-.2 1.315-.598 1.736s-.927.63-1.586.63zm6.604 1.222v-9.62h-1.482v9.62h1.482zm4.98.09c.598 0 1.14-.11 1.625-.332a3.09 3.09 0 0 0 1.183-.916c.303-.4.503-.836.598-1.34h0-1.586c-.078.416-.288.75-.63 1s-.76.377-1.255.377c-.563 0-1.036-.178-1.417-.533s-.585-.9-.61-1.638h5.512a3.44 3.44 0 0 0 .052-.637c0-.624-.14-1.2-.422-1.697a3.03 3.03 0 0 0-1.209-1.196c-.524-.3-1.138-.435-1.84-.435-.693 0-1.306.147-1.84.442s-.95.72-1.255 1.274-.455 1.205-.455 1.95c0 .754.152 1.408.455 1.963s.722.98 1.255 1.274 1.146.442 1.84.442zm1.976-4.056h-4.07c.035-.693.247-1.218.637-1.573s.875-.533 1.456-.533c.364 0 .7.076 1.007.228a1.67 1.67 0 0 1 .728.702c.178.316.258.708.24 1.176h0zm6.708-4.433c.286 0 .518-.078.696-.234s.266-.36.266-.61-.09-.46-.266-.624-.41-.247-.696-.247-.516.082-.69.247-.26.373-.26.624.087.455.26.61.403.234.69.234zm.74 8.398v-7.163h-1.482v7.163h1.482zm3.276 0v-3.81c0-.728.178-1.28.533-1.658s.828-.565 1.417-.565c.572 0 1.023.175 1.352.526s.494.847.494 1.488h0v4.017h1.482v-4.173c0-.997-.25-1.764-.754-2.3s-1.17-.806-2.002-.806c-.59 0-1.11.147-1.56.442s-.77.71-.962 1.248h0v-1.573h-1.482v7.163h1.482zm13.65 0v-1.287h-.715c-.38 0-.648-.078-.8-.234s-.228-.438-.228-.845h0v-3.536h1.73v-1.26h-1.73v-1.78h-1.495v1.78h-1.027v1.26h1.027v3.5c0 .858.197 1.47.59 1.84s.973.552 1.736.552h.9zm2.873 0v-3.81c0-.728.178-1.28.533-1.658s.828-.565 1.417-.565c.572 0 1.023.175 1.352.526s.494.847.494 1.488h0v4.017h1.482v-4.173c0-.997-.25-1.764-.754-2.3s-1.17-.806-2.002-.806c-.59 0-1.11.147-1.56.442s-.77.71-.962 1.248h0v-4.03h-1.482v9.62h1.482zm10.192.09c.598 0 1.14-.11 1.625-.332a3.09 3.09 0 0 0 1.183-.916c.303-.4.503-.836.598-1.34h0-1.586c-.078.416-.288.75-.63 1s-.76.377-1.255.377c-.563 0-1.036-.178-1.417-.533s-.585-.9-.61-1.638h5.512a3.44 3.44 0 0 0 .052-.637c0-.624-.14-1.2-.422-1.697a3.03 3.03 0 0 0-1.209-1.196c-.524-.3-1.138-.435-1.84-.435-.693 0-1.306.147-1.84.442s-.95.72-1.255 1.274-.455 1.205-.455 1.95c0 .754.152 1.408.455 1.963s.72.98 1.255 1.274 1.146.442 1.84.442zm1.976-4.056h-4.07c.035-.693.247-1.218.637-1.573s.875-.533 1.456-.533c.364 0 .7.076 1.008.228a1.67 1.67 0 0 1 .728.702c.178.316.258.708.24 1.176h0zm8.827 4.056c.77 0 1.384-.186 1.84-.56a1.79 1.79 0 0 0 .682-1.456c0-.485-.12-.87-.358-1.15s-.524-.487-.858-.617-.77-.256-1.306-.377l-.943-.26c-.22-.078-.405-.186-.553-.325s-.22-.32-.22-.546c0-.303.102-.544.306-.72s.492-.267.864-.267c.45 0 .813.12 1.085.358s.44.553.5.942h1.404c-.113-.72-.422-1.293-.93-1.723s-1.18-.643-2.022-.643c-.806 0-1.437.188-1.89.565s-.683.87-.683 1.476c0 .468.115.84.345 1.11s.507.47.832.59.748.243 1.268.364l.962.253c.234.082.43.197.585.344s.234.347.234.598c0 .286-.102.522-.305.71s-.483.28-.84.28c-.494 0-.893-.12-1.196-.364a1.36 1.36 0 0 1-.52-.949h0-1.443c.113.745.444 1.326.995 1.742s1.272.624 2.165.624zm7.605-.09v-1.287h-.715c-.38 0-.648-.078-.8-.234s-.227-.438-.227-.845h0v-3.536h1.73v-1.26h-1.73v-1.78h-1.495v1.78h-1.027v1.26h1.027v3.5c0 .858.197 1.47.59 1.84s.973.552 1.736.552h.9zm4.667.09c.693 0 1.317-.147 1.872-.442s.988-.72 1.3-1.274.468-1.21.468-1.963c0-.745-.156-1.395-.468-1.95s-.745-.98-1.3-1.274-1.18-.442-1.872-.442-1.315.147-1.865.442-.984.72-1.3 1.274-.474 1.205-.474 1.95.158 1.397.474 1.957.75.986 1.3 1.28 1.172.442 1.865.442zm0-1.3a2.18 2.18 0 0 1-1.053-.26c-.32-.173-.58-.438-.774-.793s-.293-.797-.293-1.326c0-.52.097-.96.293-1.32s.453-.626.774-.8a2.18 2.18 0 0 1 1.053-.26 2.18 2.18 0 0 1 1.053.26c.32.173.578.44.774.8s.292.8.292 1.32c0 .53-.097.97-.292 1.326s-.453.62-.774.793a2.18 2.18 0 0 1-1.053.26zm6.552 1.21v-3.627c0-.728.197-1.25.592-1.567s.916-.474 1.566-.474h.442v-1.612c-.59 0-1.11.137-1.56.41a2.76 2.76 0 0 0-1.04 1.112h0v-1.404h-1.482v7.163h1.482zm6.9.09c.598 0 1.14-.11 1.625-.332a3.09 3.09 0 0 0 1.183-.916c.303-.4.503-.836.598-1.34h0-1.586c-.078.416-.288.75-.63 1s-.76.377-1.255.377c-.563 0-1.036-.178-1.417-.533s-.585-.9-.61-1.638h5.512a3.44 3.44 0 0 0 .052-.637c0-.624-.14-1.2-.422-1.697a3.03 3.03 0 0 0-1.209-1.196c-.524-.3-1.138-.435-1.84-.435-.693 0-1.306.147-1.84.442s-.95.72-1.255 1.274-.455 1.205-.455 1.95c0 .754.152 1.408.455 1.963s.722.98 1.255 1.274 1.146.442 1.84.442zm1.976-4.056h-4.07c.035-.693.247-1.218.637-1.573s.875-.533 1.456-.533c.364 0 .7.076 1.007.228a1.67 1.67 0 0 1 .728.702c.178.316.258.708.24 1.176h0z" class="B E"/><rect x="984.728" y="302.152" width="123" height="21" rx="10.5" class="C D"/><path d="M993.848 317.14c1.08 0 1.872-.504 2.292-1.104v.996h1.38v-8.88h-1.38v3.192c-.504-.624-1.416-1.032-2.28-1.032-1.752 0-3.132 1.344-3.132 3.384s1.38 3.444 3.12 3.444zm.288-1.188c-1.02 0-2.004-.828-2.004-2.256s.984-2.196 2.004-2.196c1.032 0 2.004.804 2.004 2.22 0 1.428-.972 2.232-2.004 2.232zm8.028 1.188c1.62 0 2.664-.924 3.036-2.076h-1.476c-.252.516-.72.924-1.56.924-1.008 0-1.788-.66-1.884-1.752h5.052a4.22 4.22 0 0 0 .048-.672c0-1.944-1.332-3.252-3.216-3.252-1.956 0-3.3 1.332-3.3 3.408s1.404 3.42 3.3 3.42zm1.788-4.008h-3.66c.144-1.044.888-1.668 1.812-1.668 1.02 0 1.824.648 1.848 1.668zm4.14 7.044v-4.104a2.99 2.99 0 0 0 2.304 1.068c1.74 0 3.108-1.404 3.108-3.444s-1.368-3.384-3.108-3.384c-1.08 0-1.884.528-2.304 1.08v-.972h-1.368v9.756h1.368zm2.004-4.224c-1.02 0-2.004-.804-2.004-2.232 0-1.416.984-2.22 2.004-2.22 1.032 0 2.016.768 2.016 2.196s-.984 2.256-2.016 2.256zm6.132 1.08v-8.88h-1.368v8.88h1.368zm4.668.108c1.896 0 3.432-1.344 3.432-3.42s-1.488-3.408-3.372-3.408-3.372 1.332-3.372 3.408 1.428 3.42 3.312 3.42zm0-1.188c-1.032 0-1.92-.732-1.92-2.232s.924-2.22 1.956-2.22c1.02 0 1.992.72 1.992 2.22s-1.008 2.232-2.028 2.232zm6.684 4.188l4.056-9.72h-1.416l-1.932 5.04-1.86-5.04h-1.524l2.604 6.504-1.344 3.216h1.416zm7.932-3c1.62 0 2.664-.924 3.036-2.076h-1.476c-.252.516-.72.924-1.56.924-1.008 0-1.788-.66-1.884-1.752h5.052a4.22 4.22 0 0 0 .048-.672c0-1.944-1.332-3.252-3.216-3.252-1.956 0-3.3 1.332-3.3 3.408s1.404 3.42 3.3 3.42zm1.788-4.008h-3.66c.144-1.044.888-1.668 1.812-1.668 1.02 0 1.824.648 1.848 1.668zm5.436 4.008c1.08 0 1.872-.504 2.292-1.104v.996h1.38v-8.88h-1.38v3.192c-.504-.624-1.416-1.032-2.28-1.032-1.752 0-3.132 1.344-3.132 3.384s1.38 3.444 3.12 3.444zm.288-1.188c-1.02 0-2.004-.828-2.004-2.256s.984-2.196 2.004-2.196c1.032 0 2.004.804 2.004 2.22 0 1.428-.972 2.232-2.004 2.232zm11.028 1.08l1.332-4.884 1.332 4.884h1.44l2.052-6.612h-1.344l-1.368 5.292-1.344-5.292h-1.428l-1.404 5.316-1.38-5.316h-1.392l2.064 6.612h1.44zm10.02.108c1.62 0 2.664-.924 3.036-2.076h-1.476c-.252.516-.72.924-1.56.924-1.008 0-1.788-.66-1.884-1.752h5.052a4.22 4.22 0 0 0 .048-.672c0-1.944-1.332-3.252-3.216-3.252-1.956 0-3.3 1.332-3.3 3.408s1.404 3.42 3.3 3.42zm1.788-4.008h-3.66c.144-1.044.888-1.668 1.812-1.668 1.02 0 1.824.648 1.848 1.668zm6.444 4.008c1.74 0 3.108-1.404 3.108-3.444s-1.356-3.384-3.108-3.384c-1.044 0-1.872.492-2.304 1.092v-3.252h-1.368v8.88H1070v-.96c.432.576 1.212 1.068 2.304 1.068zm-.3-1.188c-1.02 0-2.004-.804-2.004-2.232 0-1.416.984-2.22 2.004-2.22 1.032 0 2.016.768 2.016 2.196s-.984 2.256-2.016 2.256zm10.524 1.188c1.104 0 1.896-.528 2.316-1.092v.984h1.38v-6.612h-1.38v.96c-.408-.54-1.176-1.068-2.292-1.068-1.74 0-3.12 1.344-3.12 3.384s1.38 3.444 3.096 3.444zm.312-1.188c-1.02 0-2.004-.828-2.004-2.256s.984-2.196 2.004-2.196c1.032 0 2.004.804 2.004 2.22 0 1.428-.972 2.232-2.004 2.232zm6.552 4.224v-4.104a2.99 2.99 0 0 0 2.304 1.068c1.74 0 3.108-1.404 3.108-3.444s-1.368-3.384-3.108-3.384c-1.08 0-1.884.528-2.304 1.08v-.972h-1.368v9.756h1.368zm2.004-4.224c-1.02 0-2.004-.804-2.004-2.232 0-1.416.984-2.22 2.004-2.22 1.032 0 2.016.768 2.016 2.196s-.984 2.256-2.016 2.256zm6.132 4.224v-4.104a2.99 2.99 0 0 0 2.304 1.068c1.74 0 3.108-1.404 3.108-3.444s-1.368-3.384-3.108-3.384c-1.08 0-1.884.528-2.304 1.08v-.972h-1.368v9.756h1.368zm2.004-4.224c-1.02 0-2.004-.804-2.004-2.232 0-1.416.984-2.22 2.004-2.22 1.032 0 2.016.768 2.016 2.196s-.984 2.256-2.016 2.256z" class="B E"/><rect x="1000.728" y="327.179" width="90.93" height="21" rx="10.5" class="C D"/><path d="M1007.096 342.42v-3.696c0-1.212.66-1.836 1.668-1.836.996 0 1.656.624 1.656 1.836v3.696h1.356v-3.696c0-1.212.66-1.836 1.668-1.836.996 0 1.656.624 1.656 1.836v3.696h1.356v-3.9c0-1.848-1.176-2.82-2.724-2.82-.96 0-1.896.504-2.304 1.308-.456-.864-1.332-1.308-2.376-1.308-.792 0-1.512.324-1.956.864v-.756h-1.368v6.612h1.368zm13.74.108c1.104 0 1.896-.528 2.316-1.092v.984h1.38v-6.612h-1.38v.96c-.408-.54-1.176-1.068-2.292-1.068-1.74 0-3.12 1.344-3.12 3.384s1.38 3.444 3.096 3.444zm.312-1.188c-1.02 0-2.004-.828-2.004-2.256s.984-2.196 2.004-2.196c1.032 0 2.004.804 2.004 2.22 0 1.428-.972 2.232-2.004 2.232zm5.88-6.408c.48 0 .864-.384.864-.876s-.384-.876-.864-.876c-.492 0-.876.384-.876.876s.384.876.876.876zm.672 7.488v-6.612h-1.368v6.612h1.368zm3.168 0v-3.696c0-1.212.66-1.836 1.668-1.836.996 0 1.656.624 1.656 1.836v3.696h1.356v-3.9c0-1.848-1.164-2.82-2.712-2.82-.792 0-1.524.324-1.968.864v-.756h-1.368v6.612h1.368zm9.624 0v-1.14h-.84c-.576 0-.768-.204-.768-.696v-3.66h1.608v-1.116h-1.608v-1.644h-1.38v1.644h-.78v1.116h.78v3.66c0 1.344.732 1.836 1.908 1.836h1.08zm4.104.108c1.62 0 2.664-.924 3.036-2.076h-1.476c-.252.516-.72.924-1.56.924-1.008 0-1.788-.66-1.884-1.752h5.052a4.22 4.22 0 0 0 .048-.672c0-1.944-1.332-3.252-3.216-3.252-1.956 0-3.3 1.332-3.3 3.408s1.404 3.42 3.3 3.42zm1.788-4.008h-3.66c.144-1.044.888-1.668 1.812-1.668 1.02 0 1.824.648 1.848 1.668zm4.14 3.9v-3.696c0-1.212.66-1.836 1.668-1.836.996 0 1.656.624 1.656 1.836v3.696h1.356v-3.9c0-1.848-1.164-2.82-2.712-2.82-.792 0-1.524.324-1.968.864v-.756h-1.368v6.612h1.368zm9.06.108c1.104 0 1.896-.528 2.316-1.092v.984h1.38v-6.612h-1.38v.96c-.408-.54-1.176-1.068-2.292-1.068-1.74 0-3.12 1.344-3.12 3.384s1.38 3.444 3.096 3.444zm.312-1.188c-1.02 0-2.004-.828-2.004-2.256s.984-2.196 2.004-2.196c1.032 0 2.004.804 2.004 2.22 0 1.428-.972 2.232-2.004 2.232zm6.552 1.08v-3.696c0-1.212.66-1.836 1.668-1.836.996 0 1.656.624 1.656 1.836v3.696h1.356v-3.9c0-1.848-1.164-2.82-2.712-2.82-.792 0-1.524.324-1.968.864v-.756h-1.368v6.612h1.368zm9.204.108c1.62 0 2.676-.9 3.048-2.196h-1.476c-.252.684-.756 1.044-1.572 1.044-1.104 0-1.836-.816-1.836-2.268 0-1.44.732-2.256 1.836-2.256.816 0 1.344.408 1.572 1.044h1.476c-.372-1.392-1.428-2.196-3.048-2.196-1.896 0-3.24 1.344-3.24 3.408 0 2.076 1.344 3.42 3.24 3.42zm7.26 0c1.62 0 2.664-.924 3.036-2.076h-1.476c-.252.516-.72.924-1.56.924-1.008 0-1.788-.66-1.884-1.752h5.052a4.22 4.22 0 0 0 .048-.672c0-1.944-1.332-3.252-3.216-3.252-1.956 0-3.3 1.332-3.3 3.408s1.404 3.42 3.3 3.42zm1.788-4.008h-3.66c.144-1.044.888-1.668 1.812-1.668 1.02 0 1.824.648 1.848 1.668zm-307.526-16.346v-4.172c0-1.778.924-2.324 2.142-2.324h.336v-1.316c-1.218 0-2.044.532-2.478 1.386v-1.246H775.9v7.672h1.274zm7.266.126c1.904 0 3.136-1.092 3.528-2.492h-1.372c-.28.826-1.008 1.414-2.156 1.414-1.302 0-2.394-.854-2.492-2.408h6.132a7.04 7.04 0 0 0 .042-.77c0-2.1-1.456-3.668-3.682-3.668-2.24 0-3.794 1.526-3.794 3.948 0 2.436 1.6 3.976 3.794 3.976zm2.366-4.522h-4.844c.14-1.498 1.176-2.324 2.422-2.324 1.316 0 2.436.826 2.422 2.324zm3.654-4.522c.462 0 .84-.378.84-.868s-.378-.868-.84-.868c-.5 0-.868.378-.868.868s.378.868.868.868zm.616 8.918v-7.672h-1.274v7.672h1.274zm5.726 0v-1.078h-.938c-.784 0-1.064-.266-1.064-1.022v-4.522h2.002v-1.05H794.8v-1.932h-1.274v1.932h-.994v1.05h.994v4.522c0 1.54.77 2.1 2.128 2.1h1.148zm4.858.126c1.904 0 3.136-1.092 3.528-2.492h-1.372c-.28.826-1.008 1.414-2.156 1.414-1.302 0-2.394-.854-2.492-2.408h6.132a7.04 7.04 0 0 0 .042-.77c0-2.1-1.456-3.668-3.682-3.668-2.24 0-3.794 1.526-3.794 3.948 0 2.436 1.6 3.976 3.794 3.976zm2.366-4.522h-4.844c.14-1.498 1.176-2.324 2.422-2.324 1.316 0 2.436.826 2.422 2.324zm4.27 4.396v-4.172c0-1.778.924-2.324 2.142-2.324h.336v-1.316c-1.218 0-2.044.532-2.478 1.386v-1.246h-1.274v7.672h1.274zm7.098.126c1.414 0 2.408-.728 2.87-1.554v1.428h1.288v-7.672h-1.288v1.4c-.448-.798-1.428-1.526-2.856-1.526-2.058 0-3.64 1.54-3.64 3.934 0 2.38 1.582 4 3.626 4zm.266-1.12c-1.4 0-2.6-1.064-2.6-2.87s1.2-2.828 2.6-2.828 2.604 1.064 2.604 2.842c0 1.806-1.204 2.856-2.604 2.856zm9.604.994v-1.078h-.938c-.784 0-1.064-.266-1.064-1.022v-4.522h2.002v-1.05h-2.002v-1.932h-1.274v1.932h-.994v1.05h.994v4.522c0 1.54.77 2.1 2.128 2.1h1.148zm4.858.126c1.904 0 3.136-1.092 3.528-2.492h-1.372c-.28.826-1.008 1.414-2.156 1.414-1.302 0-2.394-.854-2.492-2.408h6.132a7.04 7.04 0 0 0 .042-.77c0-2.1-1.456-3.668-3.682-3.668-2.24 0-3.794 1.526-3.794 3.948 0 2.436 1.6 3.976 3.794 3.976zm2.366-4.522h-4.844c.14-1.498 1.176-2.324 2.422-2.324 1.316 0 2.436.826 2.422 2.324zm9.814 4.508c1.022 0 1.96-.448 2.45-1.246v1.134h1.274v-7.672h-1.274v4.214c0 1.652-.882 2.464-2.198 2.464-1.288 0-2.142-.798-2.142-2.352v-4.326h-1.26v4.494c0 2.198 1.386 3.3 3.15 3.3zm7.154-.112v-4.242c0-1.652.896-2.464 2.198-2.464 1.288 0 2.142.798 2.142 2.366v4.34h1.26v-4.522c0-2.198-1.358-3.3-3.136-3.3-1.036 0-1.96.434-2.464 1.232v-1.092h-1.274v7.672h1.274zm11.242 0v-1.078h-.938c-.784 0-1.064-.266-1.064-1.022v-4.522h2.002v-1.05h-2.002v-1.932h-1.274v1.932h-.994v1.05h.994v4.522c0 1.54.77 2.1 2.128 2.1h1.148zm2.198-8.918c.462 0 .84-.378.84-.868s-.378-.868-.84-.868c-.5 0-.868.378-.868.868s.378.868.868.868zm.616 8.918v-7.672h-1.274v7.672h1.274zm3.444 0v-10.36h-1.274v10.36h1.274zm9.464 0v-1.078h-.938c-.784 0-1.064-.266-1.064-1.022v-4.522h2.002v-1.05h-2.002v-1.932h-1.274v1.932h-.994v1.05h.994v4.522c0 1.54.77 2.1 2.128 2.1h1.148zm2.814 0v-4.242c0-1.652.896-2.464 2.198-2.464 1.288 0 2.142.798 2.142 2.366v4.34h1.26v-4.522c0-2.198-1.358-3.3-3.066-3.3-1.078 0-2.03.434-2.534 1.246v-3.794h-1.274v10.36h1.274zm11.004.126c1.904 0 3.136-1.092 3.528-2.492h-1.372c-.28.826-1.008 1.414-2.156 1.414-1.302 0-2.394-.854-2.492-2.408h6.132a7.04 7.04 0 0 0 .042-.77c0-2.1-1.456-3.668-3.682-3.668-2.24 0-3.794 1.526-3.794 3.948 0 2.436 1.6 3.976 3.794 3.976zm2.366-4.522h-4.844c.14-1.498 1.176-2.324 2.422-2.324 1.316 0 2.436.826 2.422 2.324zm-115.43 27.67v-5.054c.476.784 1.47 1.54 2.87 1.54 2.058 0 3.64-1.6 3.64-4 0-2.394-1.582-3.934-3.64-3.934-1.4 0-2.408.728-2.87 1.54v-1.414H775.9v11.312h1.274zm2.604-4.634c-1.386 0-2.604-1.05-2.604-2.856 0-1.778 1.218-2.842 2.604-2.842 1.414 0 2.604 1.022 2.604 2.828s-1.2 2.87-2.604 2.87zm6.86.994v-4.172c0-1.778.924-2.324 2.142-2.324h.336v-1.316c-1.218 0-2.044.532-2.478 1.386v-1.246h-1.274v7.672h1.274zm7.294.126c2.184 0 3.934-1.54 3.934-3.976 0-2.422-1.694-3.948-3.878-3.948-2.17 0-3.878 1.526-3.878 3.948 0 2.436 1.652 3.976 3.822 3.976zm0-1.12c-1.33 0-2.52-.9-2.52-2.856 0-1.932 1.218-2.842 2.562-2.842 1.316 0 2.6.9 2.6 2.842s-1.302 2.856-2.632 2.856zm8.778 1.12c1.4 0 2.394-.714 2.856-1.568v1.442h1.288v-10.36h-1.288v4.06c-.532-.882-1.638-1.498-2.842-1.498-2.072 0-3.654 1.54-3.654 3.934 0 2.38 1.582 4 3.64 4zm.252-1.12c-1.4 0-2.6-1.064-2.6-2.87s1.2-2.828 2.6-2.828 2.604 1.064 2.604 2.842c0 1.806-1.204 2.856-2.604 2.856zm9.128 1.106c1.022 0 1.96-.448 2.45-1.246v1.134h1.274v-7.672h-1.274v4.214c0 1.652-.882 2.464-2.198 2.464-1.288 0-2.142-.798-2.142-2.352v-4.326h-1.26v4.494c0 2.198 1.386 3.3 3.15 3.3zm9.142.014c1.904 0 3.15-1.064 3.542-2.6h-1.372c-.28.966-1.036 1.512-2.17 1.512-1.4 0-2.436-.994-2.436-2.898 0-1.876 1.036-2.87 2.436-2.87 1.134 0 1.904.588 2.17 1.512h1.372c-.392-1.6-1.638-2.6-3.542-2.6-2.184 0-3.738 1.54-3.738 3.948 0 2.436 1.554 3.976 3.738 3.976zm8.792-.126v-1.078h-.938c-.784 0-1.064-.266-1.064-1.022v-4.522h2.002v-1.05h-2.002v-1.932h-1.274v1.932h-.994v1.05h.994v4.522c0 1.54.77 2.1 2.128 2.1h1.148zm5.936-8.918c.462 0 .84-.378.84-.868s-.378-.868-.84-.868c-.5 0-.868.378-.868.868s.378.868.868.868zm.616 8.918v-7.672h-1.274v7.672h1.274zm4.886.126c1.694 0 2.8-.952 2.8-2.212-.056-2.744-4.508-1.75-4.508-3.57 0-.616.56-1.064 1.498-1.064 1.022 0 1.6.56 1.666 1.33h1.274c-.084-1.498-1.204-2.408-2.898-2.408-1.708 0-2.814.966-2.814 2.142 0 2.856 4.536 1.862 4.536 3.57 0 .63-.56 1.134-1.568 1.134-1.078 0-1.736-.56-1.806-1.302h-1.316c.084 1.4 1.344 2.38 3.136 2.38zm11.48 0c1.414 0 2.408-.728 2.87-1.554v1.428h1.288v-7.672h-1.288v1.4c-.448-.798-1.428-1.526-2.856-1.526-2.058 0-3.64 1.54-3.64 3.934 0 2.38 1.582 4 3.626 4zm.266-1.12c-1.4 0-2.6-1.064-2.6-2.87s1.2-2.828 2.6-2.828 2.604 1.064 2.604 2.842c0 1.806-1.204 2.856-2.604 2.856zm7.322 4.634v-5.054c.476.784 1.47 1.54 2.87 1.54 2.058 0 3.64-1.6 3.64-4 0-2.394-1.582-3.934-3.64-3.934-1.4 0-2.408.728-2.87 1.54v-1.414h-1.274v11.312h1.274zm2.604-4.634c-1.386 0-2.604-1.05-2.604-2.856 0-1.778 1.218-2.842 2.604-2.842 1.414 0 2.604 1.022 2.604 2.828s-1.2 2.87-2.604 2.87zm6.86 4.634v-5.054c.476.784 1.47 1.54 2.87 1.54 2.058 0 3.64-1.6 3.64-4 0-2.394-1.582-3.934-3.64-3.934-1.4 0-2.408.728-2.87 1.54v-1.414h-1.274v11.312h1.274zm2.604-4.634c-1.386 0-2.604-1.05-2.604-2.856 0-1.778 1.218-2.842 2.604-2.842 1.414 0 2.604 1.022 2.604 2.828s-1.2 2.87-2.604 2.87zm6.86.994v-4.172c0-1.778.924-2.324 2.142-2.324h.336v-1.316c-1.218 0-2.044.532-2.478 1.386v-1.246h-1.274v7.672h1.274zm7.294.126c2.184 0 3.934-1.54 3.934-3.976 0-2.422-1.694-3.948-3.878-3.948-2.17 0-3.878 1.526-3.878 3.948 0 2.436 1.652 3.976 3.822 3.976zm0-1.12c-1.33 0-2.52-.9-2.52-2.856 0-1.932 1.218-2.842 2.562-2.842 1.316 0 2.6.9 2.6 2.842s-1.302 2.856-2.632 2.856zm9.198.994l3-7.672h-1.358l-2.38 6.496-2.394-6.496h-1.372l3 7.672h1.484zm7.588.126c1.904 0 3.136-1.092 3.528-2.492h-1.372c-.28.826-1.008 1.414-2.156 1.414-1.302 0-2.394-.854-2.492-2.408h6.132a7.04 7.04 0 0 0 .042-.77c0-2.1-1.456-3.668-3.682-3.668-2.24 0-3.794 1.526-3.794 3.948 0 2.436 1.6 3.976 3.794 3.976zm2.366-4.522h-4.844c.14-1.498 1.176-2.324 2.422-2.324 1.316 0 2.436.826 2.422 2.324zm6.16 4.522c1.4 0 2.394-.714 2.856-1.568v1.442h1.288v-10.36h-1.288v4.06c-.532-.882-1.638-1.498-2.842-1.498-2.072 0-3.654 1.54-3.654 3.934 0 2.38 1.582 4 3.64 4zm.252-1.12c-1.4 0-2.6-1.064-2.6-2.87s1.2-2.828 2.6-2.828 2.604 1.064 2.604 2.842c0 1.806-1.204 2.856-2.604 2.856zm-134.904 20.628v-6.622h1.6v-1.05h-1.6v-.546c0-.994.378-1.414 1.526-1.414v-1.064c-1.96 0-2.8.77-2.8 2.478v.546h-.994v1.05h.994v6.622h1.274zm6.44.126c2.184 0 3.934-1.54 3.934-3.976 0-2.422-1.694-3.948-3.878-3.948-2.17 0-3.878 1.526-3.878 3.948 0 2.436 1.652 3.976 3.822 3.976zm0-1.12c-1.33 0-2.52-.9-2.52-2.856 0-1.932 1.218-2.842 2.562-2.842 1.316 0 2.6.9 2.6 2.842s-1.302 2.856-2.632 2.856zm6.888.994v-4.172c0-1.778.924-2.324 2.142-2.324h.336v-1.316c-1.218 0-2.044.532-2.478 1.386v-1.246h-1.274v7.672h1.274zm8.96 0v-10.36h-1.274v10.36h1.274zm5.32.126c1.414 0 2.408-.728 2.87-1.554v1.428h1.288v-7.672H807.9v1.4c-.448-.798-1.428-1.526-2.856-1.526-2.058 0-3.64 1.54-3.64 3.934 0 2.38 1.582 4 3.626 4zm.266-1.12c-1.4 0-2.6-1.064-2.6-2.87s1.2-2.828 2.6-2.828 2.604 1.064 2.604 2.842c0 1.806-1.204 2.856-2.604 2.856zm9.128 1.106c1.022 0 1.96-.448 2.45-1.246v1.134h1.274v-7.672h-1.274v4.214c0 1.652-.882 2.464-2.198 2.464-1.288 0-2.142-.798-2.142-2.352v-4.326h-1.26v4.494c0 2.198 1.386 3.3 3.15 3.3zm7.154-.112V357.2c0-1.652.896-2.464 2.198-2.464 1.288 0 2.142.798 2.142 2.366v4.34h1.26v-4.522c0-2.198-1.358-3.3-3.136-3.3-1.036 0-1.96.434-2.464 1.232v-1.092h-1.274v7.672h1.274zm10.948.126c1.904 0 3.15-1.064 3.542-2.6h-1.372c-.28.966-1.036 1.512-2.17 1.512-1.4 0-2.436-.994-2.436-2.898 0-1.876 1.036-2.87 2.436-2.87 1.134 0 1.904.588 2.17 1.512h1.372c-.392-1.6-1.638-2.6-3.542-2.6-2.184 0-3.738 1.54-3.738 3.948 0 2.436 1.554 3.976 3.738 3.976zm6.5-.126V357.2c0-1.652.896-2.464 2.198-2.464 1.288 0 2.142.798 2.142 2.366v4.34h1.26v-4.522c0-2.198-1.358-3.3-3.066-3.3-1.078 0-2.03.434-2.534 1.246v-3.794h-1.274v10.36h1.274z" class="B E"/><g class="D G H"><use xlink:href="#G"/><use xlink:href="#H"/></g><g class="I"><path stroke="url(#A)" d="M1045.112 199.126l-.004-168.512" class="J K"/><g class="G"><path d="M69.075 96.935v-66.32m944.263-29.198H99.94" stroke-linecap="square"/><path d="M1013.645 1.416c20.978-.183 31.467 9.447 31.467 28.9m-944.334-28.9C79.64 1.246 69.07 10.88 69.07 30.324"/></g></g><path d="M68.233 98.89l-8.247-8.167a1.32 1.32 0 0 1 0-1.881c.524-.52 1.375-.52 1.9 0l7.297 7.226 7.297-7.226c.525-.52 1.375-.52 1.9 0a1.32 1.32 0 0 1 0 1.881l-8.247 8.167c-.262.26-.606.39-.95.39s-.688-.13-.95-.4z" class="D"/><g class="I J K"><path d="M172.212 168.424c13.06 6.278 21.32 14.323 24.78 24.135 5.19 14.717.884 34.17 16.984 40.022" stroke="url(#B)"/><path d="M369.612 229.714c12.01-10.33 16.012-23.724 12.01-40.185s3.288-28.864 21.873-37.207" stroke="url(#C)"/><path d="M579.682 148.97c25.723 2.442 40.765 9.942 45.124 22.498 6.54 18.835-13.432 35.714 9.015 52.426" stroke="url(#D)"/><path d="M807.02 234.532c15.007-12.732 19.58-29.26 13.72-49.584s-.35-32.08 16.535-35.272" stroke="url(#E)"/><path d="M943.855 153.556c23.88 9.525 35.82 22.63 35.82 39.314s4.19 29.244 12.573 37.68" stroke="url(#F)"/></g><path d="M215.757 235.176l-11.248 2.863a1.32 1.32 0 0 1-1.612-.969c-.175-.717.263-1.446.978-1.628l9.953-2.533-2.436-9.977c-.175-.717.263-1.446.978-1.628a1.32 1.32 0 0 1 1.612.969l2.753 11.275c.087.36.022.72-.155 1.014s-.465.522-.823.613z" class="D"/><path d="M406.986 151.68l-3.533 11.056a1.32 1.32 0 0 1-1.676.854c-.7-.232-1.087-.99-.862-1.692l3.126-9.783-9.75-3.22c-.7-.232-1.087-.99-.862-1.692a1.32 1.32 0 0 1 1.676-.854l11.02 3.64c.35.116.622.363.778.67s.196.672.084 1.023z" fill="#fa367c"/><path d="M635.48 226.6l-11.574.866a1.32 1.32 0 0 1-1.42-1.234c-.048-.736.5-1.378 1.246-1.433l10.24-.767-.666-10.248c-.048-.737.5-1.378 1.246-1.434a1.32 1.32 0 0 1 1.42 1.234l.753 11.582c.024.368-.104.713-.33.972s-.55.434-.917.46zm204.82-76.362l-6.6 9.54a1.32 1.32 0 0 1-1.852.327c-.602-.426-.75-1.264-.33-1.87l5.85-8.44-8.383-5.93c-.603-.426-.75-1.264-.33-1.87a1.32 1.32 0 0 1 1.852-.327l9.475 6.704c.3.213.5.53.548.867s-.01.7-.22 1.003zm153.34 83.512l-11.582-.753a1.32 1.32 0 0 1-1.234-1.42c.055-.736.697-1.294 1.433-1.246l10.248.666.766-10.24c.055-.736.697-1.294 1.434-1.246a1.32 1.32 0 0 1 1.234 1.42l-.866 11.574c-.028.368-.202.7-.46.917a1.34 1.34 0 0 1-.972.33z" class="D"/><g class="B E"><path d="M790.76 123.464l-3.624-4.56c.992-.8 1.768-1.788 2.328-2.964s.84-2.468.84-3.876c0-1.664-.38-3.16-1.14-4.488a8.14 8.14 0 0 0-3.12-3.108c-1.32-.744-2.78-1.116-4.38-1.116-1.584 0-3.04.372-4.368 1.116s-2.376 1.78-3.144 3.108S773 110.4 773 112.064s.384 3.16 1.152 4.488 1.816 2.364 3.144 3.108 2.784 1.116 4.368 1.116a8.33 8.33 0 0 0 1.584-.144h0l1.896 2.832h5.616zm-9.096-7.08c-1.2 0-2.144-.392-2.832-1.176s-1.032-1.832-1.032-3.144c0-1.344.344-2.404 1.032-3.18s1.632-1.164 2.832-1.164 2.14.388 2.82 1.164 1.02 1.836 1.02 3.18c0 1.312-.344 2.36-1.032 3.144s-1.624 1.176-2.808 1.176zm15 4.344c.992 0 1.856-.216 2.592-.648s1.296-1.008 1.68-1.728h0v2.256h4.704v-13.464h-4.704v7.128c0 .816-.208 1.448-.624 1.896s-.976.672-1.68.672c-.688 0-1.236-.22-1.644-.66s-.612-1.044-.612-1.812h0v-7.224h-4.704v7.8c0 1.792.444 3.204 1.332 4.236s2.108 1.548 3.66 1.548zm15.984.048c.944 0 1.764-.204 2.46-.612a3.77 3.77 0 0 0 1.548-1.692h0v2.136h4.704v-13.464h-4.704v2.136a3.77 3.77 0 0 0-1.548-1.692c-.696-.408-1.516-.612-2.46-.612-1.072 0-2.04.276-2.904.828s-1.544 1.348-2.04 2.388-.744 2.264-.744 3.672.248 2.636.744 3.684 1.176 1.848 2.04 2.4 1.832.828 2.904.828zm1.56-4.128c-.736 0-1.332-.244-1.788-.732s-.684-1.172-.684-2.052c0-.864.228-1.54.684-2.028s1.052-.732 1.788-.732c.704 0 1.288.248 1.752.744s.696 1.168.696 2.016c0 .864-.232 1.544-.696 2.04s-1.048.744-1.752.744zm13.872 3.96v-17.76h-4.728v17.76h4.728zm4.416-14.832c.816 0 1.476-.224 1.98-.672s.756-1.008.756-1.68c0-.704-.248-1.284-.744-1.74s-1.16-.684-1.992-.684-1.504.228-2.016.684-.768 1.036-.768 1.74a2.14 2.14 0 0 0 .768 1.68c.512.448 1.184.672 2.016.672zm2.328 14.832v-13.464h-4.728v13.464h4.728zm10.032 0v-4.032h-1.272c-.432 0-.74-.088-.924-.264s-.276-.472-.276-.888h0v-4.344h2.424v-3.936h-2.424v-3.264h-4.728v3.264h-1.728v3.936h1.728v4.248c0 1.888.464 3.24 1.392 4.056s2.216 1.224 3.864 1.224h1.944zm7.632 6.432l8.52-19.896h-5.232l-2.664 7.536-2.88-7.536h-5.256l5.616 12.888-3.288 7.008h5.184zm16.656-6.432l.936-2.832h6.024l.936 2.832h4.992l-6.192-16.92h-5.448l-6.216 16.92h4.968zm5.784-6.384h-3.672l1.848-5.52 1.824 5.52zm13.992 6.552c1.12 0 2.092-.172 2.916-.516s1.452-.82 1.884-1.428.648-1.304.648-2.088c0-.976-.252-1.752-.756-2.328s-1.096-.992-1.776-1.248-1.54-.496-2.58-.72c-.896-.208-1.54-.396-1.932-.564s-.588-.42-.588-.756c0-.272.092-.484.276-.636s.452-.228.804-.228c.496 0 .916.12 1.26.36s.572.6.684 1.08h4.416c-.272-1.424-.936-2.568-1.992-3.432s-2.472-1.296-4.248-1.296c-1.744 0-3.088.384-4.032 1.152s-1.416 1.76-1.416 2.976c0 .976.244 1.74.732 2.292s1.06.952 1.716 1.2 1.496.476 2.52.684c.896.176 1.548.352 1.956.528s.612.456.612.84c0 .256-.096.464-.288.624s-.472.24-.84.24c-.544 0-.996-.12-1.356-.36s-.572-.608-.636-1.104h0-4.536c.24 1.52.92 2.688 2.04 3.504s2.624 1.224 4.512 1.224zm13.008 0c1.12 0 2.092-.172 2.916-.516s1.452-.82 1.884-1.428.648-1.304.648-2.088c0-.976-.252-1.752-.756-2.328s-1.096-.992-1.776-1.248-1.54-.496-2.58-.72c-.896-.208-1.54-.396-1.932-.564s-.588-.42-.588-.756c0-.272.092-.484.276-.636s.452-.228.804-.228c.496 0 .916.12 1.26.36s.572.6.684 1.08h4.416c-.272-1.424-.936-2.568-1.992-3.432s-2.472-1.296-4.248-1.296c-1.744 0-3.088.384-4.032 1.152s-1.416 1.76-1.416 2.976c0 .976.244 1.74.732 2.292s1.06.952 1.716 1.2 1.496.476 2.52.684c.896.176 1.548.352 1.956.528s.612.456.612.84c0 .256-.096.464-.288.624s-.472.24-.84.24c-.544 0-.996-.12-1.356-.36s-.572-.608-.636-1.104h0-4.536c.24 1.52.92 2.688 2.04 3.504s2.624 1.224 4.512 1.224zm11.76-.048c.992 0 1.856-.216 2.592-.648s1.296-1.008 1.68-1.728h0v2.256h4.704v-13.464h-4.704v7.128c0 .816-.208 1.448-.624 1.896s-.976.672-1.68.672c-.688 0-1.236-.22-1.644-.66s-.612-1.044-.612-1.812h0v-7.224h-4.704v7.8c0 1.792.444 3.204 1.332 4.236s2.108 1.548 3.66 1.548zm15.72-.12V114.8c0-1.008.264-1.716.792-2.124s1.32-.612 2.376-.612h1.368v-5.04c-.896 0-1.744.24-2.544.72s-1.464 1.12-1.992 1.92h0v-2.52h-4.728v13.464h4.728zm10.488.168c.944 0 1.764-.204 2.46-.612a3.77 3.77 0 0 0 1.548-1.692h0v2.136h4.704v-13.464h-4.704v2.136a3.77 3.77 0 0 0-1.548-1.692c-.696-.408-1.516-.612-2.46-.612-1.072 0-2.04.276-2.904.828s-1.544 1.348-2.04 2.388-.744 2.264-.744 3.672.248 2.636.744 3.684 1.176 1.848 2.04 2.4 1.832.828 2.904.828zm1.56-4.128c-.736 0-1.332-.244-1.788-.732s-.684-1.172-.684-2.052c0-.864.228-1.54.684-2.028s1.052-.732 1.788-.732c.704 0 1.288.248 1.752.744s.696 1.168.696 2.016c0 .864-.232 1.544-.696 2.04s-1.048.744-1.752.744zm13.872 3.96v-7.152c0-.8.208-1.428.624-1.884s.976-.684 1.68-.684c.688 0 1.236.22 1.644.66s.612 1.052.612 1.836h0v7.224h4.68v-7.824c0-1.776-.44-3.18-1.32-4.212s-2.096-1.548-3.648-1.548c-.992 0-1.856.216-2.592.648s-1.296 1.008-1.68 1.728h0v-2.256H950.6v13.464h4.728zm17.304.168c1.744 0 3.208-.488 4.392-1.464s1.928-2.32 2.232-4.032h0-4.992c-.112.464-.316.82-.612 1.068s-.676.372-1.14.372c-.576 0-1.044-.24-1.404-.72s-.54-1.192-.54-2.136c0-.928.18-1.636.54-2.124s.828-.732 1.404-.732c.464 0 .844.124 1.14.372s.5.604.612 1.068h4.992c-.304-1.712-1.048-3.052-2.232-4.02s-2.648-1.452-4.392-1.452c-1.328 0-2.512.276-3.552.828s-1.848 1.348-2.424 2.388-.864 2.264-.864 3.672.288 2.636.864 3.684 1.38 1.848 2.412 2.4 2.22.828 3.564.828zm14.064 0c1.104 0 2.12-.216 3.048-.648a6.31 6.31 0 0 0 2.304-1.788 5.71 5.71 0 0 0 1.176-2.556h0-4.992a1.68 1.68 0 0 1-.624.888c-.304.224-.688.336-1.152.336-1.248 0-1.912-.76-1.992-2.28h8.904a5.66 5.66 0 0 0 .12-1.104c0-1.328-.284-2.496-.852-3.504a5.82 5.82 0 0 0-2.388-2.328c-1.024-.544-2.208-.816-3.552-.816-1.328 0-2.512.276-3.552.828s-1.848 1.348-2.424 2.388-.864 2.264-.864 3.672.288 2.636.864 3.684 1.38 1.848 2.412 2.4 2.22.828 3.564.828zm1.992-8.016h-4.2c.064-.688.292-1.208.684-1.56s.9-.528 1.524-.528c.576 0 1.056.176 1.44.528s.568.872.552 1.56h0zm-137.28 41.016c.816 0 1.548-.136 2.196-.408s1.188-.648 1.62-1.128c.208-.208.352-.368.432-.48h0l1.464 1.848h4.704l-8.208-11.112-.492-.768a1.27 1.27 0 0 1-.132-.576c0-.24.076-.432.228-.576s.356-.216.612-.216c.592 0 .912.336.96 1.008.048.24.072.552.072.936h4.392c.048-.928-.064-1.8-.336-2.616-.736-2.16-2.464-3.24-5.184-3.24-1.088 0-2.02.196-2.796.588s-1.364.908-1.764 1.548-.6 1.32-.6 2.04c0 .752.192 1.528.576 2.328h0l.288.504c-1.072.24-1.948.804-2.628 1.692s-1.02 1.988-1.02 3.3c0 .992.216 1.892.648 2.7s1.072 1.448 1.92 1.92 1.864.708 3.048.708zm.024-3.912c-.464 0-.848-.14-1.152-.42s-.456-.652-.456-1.116.144-.828.432-1.092.664-.396 1.128-.396.856.14 1.176.42.48.644.48 1.092-.148.812-.444 1.092-.684.42-1.164.42zm23.184 3.744v-13.224h4.584v-3.768h-13.824v3.768h4.536v13.224h4.704zm11.688.168c1.104 0 2.12-.216 3.048-.648a6.31 6.31 0 0 0 2.304-1.788 5.71 5.71 0 0 0 1.176-2.556h0-4.992a1.68 1.68 0 0 1-.624.888c-.304.224-.688.336-1.152.336-1.248 0-1.912-.76-1.992-2.28h8.904a5.66 5.66 0 0 0 .12-1.104c0-1.328-.284-2.496-.852-3.504a5.82 5.82 0 0 0-2.388-2.328c-1.024-.544-2.208-.816-3.552-.816-1.328 0-2.512.276-3.552.828s-1.848 1.348-2.424 2.388-.864 2.264-.864 3.672.288 2.636.864 3.684 1.38 1.848 2.412 2.4 2.22.828 3.564.828zm1.992-8.016h-4.2c.064-.688.292-1.208.684-1.56s.9-.528 1.524-.528c.576 0 1.056.176 1.44.528s.568.872.552 1.56h0zm12.192 8.016c1.12 0 2.092-.172 2.916-.516s1.452-.82 1.884-1.428.648-1.304.648-2.088c0-.976-.252-1.752-.756-2.328s-1.096-.992-1.776-1.248-1.54-.496-2.58-.72c-.896-.208-1.54-.396-1.932-.564s-.588-.42-.588-.756c0-.272.092-.484.276-.636s.452-.228.804-.228c.496 0 .916.12 1.26.36s.572.6.684 1.08h4.416c-.272-1.424-.936-2.568-1.992-3.432s-2.472-1.296-4.248-1.296c-1.744 0-3.088.384-4.032 1.152s-1.416 1.76-1.416 2.976c0 .976.244 1.74.732 2.292s1.06.952 1.716 1.2 1.496.476 2.52.684c.896.176 1.548.352 1.956.528s.612.456.612.84c0 .256-.096.464-.288.624s-.472.24-.84.24c-.544 0-.996-.12-1.356-.36s-.572-.608-.636-1.104h0-4.536c.24 1.52.92 2.688 2.04 3.504s2.624 1.224 4.512 1.224zm14.928-.168v-4.032h-1.272c-.432 0-.74-.088-.924-.264s-.276-.472-.276-.888h0v-4.344h2.424v-3.936h-2.424v-3.264h-4.728v3.264h-1.728v3.936h1.728v4.248c0 1.888.464 3.24 1.392 4.056s2.216 1.224 3.864 1.224h1.944zm3.96-14.832c.816 0 1.476-.224 1.98-.672s.756-1.008.756-1.68c0-.704-.248-1.284-.744-1.74s-1.16-.684-1.992-.684-1.504.228-2.016.684-.768 1.036-.768 1.74a2.14 2.14 0 0 0 .768 1.68c.512.448 1.184.672 2.016.672zm2.328 14.832v-13.464h-4.728v13.464h4.728zm6.744 0v-7.152c0-.8.208-1.428.624-1.884s.976-.684 1.68-.684c.688 0 1.236.22 1.644.66s.612 1.052.612 1.836h0v7.224h4.68v-7.824c0-1.776-.44-3.18-1.32-4.212s-2.096-1.548-3.648-1.548c-.992 0-1.856.216-2.592.648s-1.296 1.008-1.68 1.728h0v-2.256h-4.728v13.464h4.728zm18.096 6.6c1.536 0 2.808-.304 3.816-.912s1.752-1.42 2.232-2.436.72-2.148.72-3.396h0v-13.32h-4.704v2.136a3.77 3.77 0 0 0-1.548-1.692c-.696-.408-1.516-.612-2.46-.612-1.072 0-2.04.276-2.904.828s-1.544 1.348-2.04 2.388-.744 2.264-.744 3.672.248 2.636.744 3.684 1.176 1.848 2.04 2.4 1.832.828 2.904.828c.944 0 1.764-.204 2.46-.612a3.77 3.77 0 0 0 1.548-1.692h0v1.992c0 1.776-.8 2.664-2.4 2.664-.624 0-1.12-.12-1.488-.36s-.608-.584-.72-1.032h0-4.632c.208 1.696.932 3.032 2.172 4.008s2.908 1.464 5.004 1.464zm-.384-10.56c-.736 0-1.332-.244-1.788-.732s-.684-1.172-.684-2.052c0-.864.228-1.54.684-2.028s1.052-.732 1.788-.732c.704 0 1.288.248 1.752.744s.696 1.168.696 2.016c0 .864-.232 1.544-.696 2.04s-1.048.744-1.752.744z"/><path d="M449.326 67.738v-4.172c0-1.778.924-2.324 2.142-2.324h.336v-1.316c-1.218 0-2.044.532-2.478 1.386v-1.246h-1.274v7.672h1.274zm7.266.126c1.904 0 3.136-1.092 3.528-2.492h-1.372c-.28.826-1.008 1.414-2.156 1.414-1.302 0-2.394-.854-2.492-2.408h6.132c.028-.266.042-.5.042-.77 0-2.1-1.456-3.668-3.682-3.668-2.24 0-3.794 1.526-3.794 3.948 0 2.436 1.6 3.976 3.794 3.976zm2.366-4.522h-4.844c.14-1.498 1.176-2.324 2.422-2.324 1.316 0 2.436.826 2.422 2.324zm3.654-4.522c.462 0 .84-.378.84-.868s-.378-.868-.84-.868c-.5 0-.868.378-.868.868s.378.868.868.868zm.616 8.918v-7.672h-1.274v7.672h1.274zm5.726 0V66.66h-.938c-.784 0-1.064-.266-1.064-1.022v-4.522h2.002v-1.05h-2.002v-1.932h-1.274v1.932h-.994v1.05h.994v4.522c0 1.54.77 2.1 2.128 2.1h1.148zm4.858.126c1.904 0 3.136-1.092 3.528-2.492h-1.372c-.28.826-1.008 1.414-2.156 1.414-1.302 0-2.394-.854-2.492-2.408h6.132c.028-.266.042-.5.042-.77 0-2.1-1.456-3.668-3.682-3.668-2.24 0-3.794 1.526-3.794 3.948 0 2.436 1.6 3.976 3.794 3.976zm2.366-4.522h-4.844c.14-1.498 1.176-2.324 2.422-2.324 1.316 0 2.436.826 2.422 2.324zm4.27 4.396v-4.172c0-1.778.924-2.324 2.142-2.324h.336v-1.316c-1.218 0-2.044.532-2.478 1.386v-1.246h-1.274v7.672h1.274zm7.098.126c1.414 0 2.408-.728 2.87-1.554v1.428h1.288v-7.672h-1.288v1.4c-.448-.798-1.428-1.526-2.856-1.526-2.058 0-3.64 1.54-3.64 3.934 0 2.38 1.582 4 3.626 4zm.266-1.12c-1.4 0-2.6-1.064-2.6-2.87s1.2-2.828 2.6-2.828 2.604 1.064 2.604 2.842c0 1.806-1.204 2.856-2.604 2.856zm9.604.994V66.66h-.938c-.784 0-1.064-.266-1.064-1.022v-4.522h2.002v-1.05h-2.002v-1.932h-1.274v1.932h-.994v1.05h.994v4.522c0 1.54.77 2.1 2.128 2.1h1.148zm4.858.126c1.904 0 3.136-1.092 3.528-2.492h-1.372c-.28.826-1.008 1.414-2.156 1.414-1.302 0-2.394-.854-2.492-2.408h6.132c.028-.266.042-.5.042-.77 0-2.1-1.456-3.668-3.682-3.668-2.24 0-3.794 1.526-3.794 3.948 0 2.436 1.6 3.976 3.794 3.976zm2.366-4.522h-4.844c.14-1.498 1.176-2.324 2.422-2.324 1.316 0 2.436.826 2.422 2.324zm9.814 4.508c1.022 0 1.96-.448 2.45-1.246v1.134h1.274v-7.672h-1.274v4.214c0 1.652-.882 2.464-2.198 2.464-1.288 0-2.142-.798-2.142-2.352v-4.326h-1.26v4.494c0 2.198 1.386 3.3 3.15 3.3zm7.154-.112v-4.242c0-1.652.896-2.464 2.198-2.464 1.288 0 2.142.798 2.142 2.366v4.34h1.26v-4.522c0-2.198-1.358-3.3-3.136-3.3-1.036 0-1.96.434-2.464 1.232v-1.092h-1.274v7.672h1.274zm11.242 0V66.66h-.938c-.784 0-1.064-.266-1.064-1.022v-4.522h2.002v-1.05h-2.002v-1.932h-1.274v1.932h-.994v1.05h.994v4.522c0 1.54.77 2.1 2.128 2.1h1.148zm2.198-8.918c.462 0 .84-.378.84-.868s-.378-.868-.84-.868c-.5 0-.868.378-.868.868s.378.868.868.868zm.616 8.918v-7.672H534.4v7.672h1.274zm3.444 0v-10.36h-1.274v10.36h1.274zm9.464 0V66.66h-.938c-.784 0-1.064-.266-1.064-1.022v-4.522h2.002v-1.05h-2.002v-1.932h-1.274v1.932h-.994v1.05h.994v4.522c0 1.54.77 2.1 2.128 2.1h1.148zm2.814 0v-4.242c0-1.652.896-2.464 2.198-2.464 1.288 0 2.142.798 2.142 2.366v4.34h1.26v-4.522c0-2.198-1.358-3.3-3.066-3.3-1.078 0-2.03.434-2.534 1.246v-3.794h-1.274v10.36h1.274zm11.004.126c1.904 0 3.136-1.092 3.528-2.492h-1.372c-.28.826-1.008 1.414-2.156 1.414-1.302 0-2.394-.854-2.492-2.408h6.132c.028-.266.042-.5.042-.77 0-2.1-1.456-3.668-3.682-3.668-2.24 0-3.794 1.526-3.794 3.948 0 2.436 1.6 3.976 3.794 3.976zm2.366-4.522h-4.844c.14-1.498 1.176-2.324 2.422-2.324 1.316 0 2.436.826 2.422 2.324zm-113.54 24.156c1.4 0 2.394-.714 2.856-1.568v1.442h1.288v-10.36h-1.288v4.06c-.532-.882-1.638-1.498-2.842-1.498-2.072 0-3.654 1.54-3.654 3.934 0 2.38 1.582 4 3.64 4zm.252-1.12c-1.4 0-2.6-1.064-2.6-2.87s1.2-2.828 2.6-2.828 2.604 1.064 2.604 2.842c0 1.806-1.204 2.856-2.604 2.856zm9.366 1.12c1.904 0 3.136-1.092 3.528-2.492H463c-.28.826-1.008 1.414-2.156 1.414-1.302 0-2.394-.854-2.492-2.408h6.132c.028-.266.042-.5.042-.77 0-2.1-1.456-3.668-3.682-3.668-2.24 0-3.794 1.526-3.794 3.948 0 2.436 1.6 3.976 3.794 3.976zm2.366-4.522h-4.844c.14-1.498 1.176-2.324 2.422-2.324 1.316 0 2.436.826 2.422 2.324zm5.712 4.522c1.694 0 2.8-.952 2.8-2.212-.056-2.744-4.508-1.75-4.508-3.57 0-.616.56-1.064 1.498-1.064 1.022 0 1.6.56 1.666 1.33h1.274c-.084-1.498-1.204-2.408-2.898-2.408-1.708 0-2.814.966-2.814 2.142 0 2.856 4.536 1.862 4.536 3.57 0 .63-.56 1.134-1.568 1.134-1.078 0-1.736-.56-1.806-1.302h-1.316c.084 1.4 1.344 2.38 3.136 2.38zm5.25-9.044c.462 0 .84-.378.84-.868s-.378-.868-.84-.868c-.5 0-.868.378-.868.868s.378.868.868.868zm.616 8.918V79.7h-1.274v7.672h1.274zm5.8 3.78c2.254 0 3.668-1.498 3.668-3.612V79.7h-1.288v1.4c-.448-.826-1.456-1.526-2.856-1.526-2.058 0-3.64 1.54-3.64 3.934 0 2.38 1.582 4 3.64 4 1.4 0 2.394-.742 2.856-1.568v1.6c0 1.638-1.022 2.506-2.38 2.506-1.26 0-2.17-.63-2.45-1.554h-1.26c.252 1.638 1.694 2.66 3.7 2.66zm-.224-4.774c-1.4 0-2.6-1.064-2.6-2.87s1.2-2.828 2.6-2.828 2.604 1.064 2.604 2.842c0 1.806-1.204 2.856-2.604 2.856zm7.322.994V83.13c0-1.652.896-2.464 2.198-2.464 1.288 0 2.142.798 2.142 2.366v4.34h1.26V82.85c0-2.198-1.358-3.3-3.136-3.3-1.036 0-1.96.434-2.464 1.232V79.7h-1.274v7.672h1.274zm12.082-8.918c.462 0 .84-.378.84-.868s-.378-.868-.84-.868c-.5 0-.868.378-.868.868s.378.868.868.868zm.616 8.918V79.7H499.1v7.672h1.274zm4.886.126c1.694 0 2.8-.952 2.8-2.212-.056-2.744-4.508-1.75-4.508-3.57 0-.616.56-1.064 1.498-1.064 1.022 0 1.6.56 1.666 1.33H508c-.084-1.498-1.204-2.408-2.898-2.408-1.708 0-2.814.966-2.814 2.142 0 2.856 4.536 1.862 4.536 3.57 0 .63-.56 1.134-1.568 1.134-1.078 0-1.736-.56-1.806-1.302h-1.316c.084 1.4 1.344 2.38 3.136 2.38zm11.48 0c1.414 0 2.408-.728 2.87-1.554v1.428h1.288V79.7h-1.288v1.4c-.448-.798-1.428-1.526-2.856-1.526-2.058 0-3.64 1.54-3.64 3.934 0 2.38 1.582 4 3.626 4zm.266-1.12c-1.4 0-2.6-1.064-2.6-2.87s1.2-2.828 2.6-2.828 2.604 1.064 2.604 2.842c0 1.806-1.204 2.856-2.604 2.856zm7.322 4.634v-5.054c.476.784 1.47 1.54 2.87 1.54 2.058 0 3.64-1.6 3.64-4 0-2.394-1.582-3.934-3.64-3.934-1.4 0-2.408.728-2.87 1.54V79.7h-1.274v11.312h1.274zm2.604-4.634c-1.386 0-2.604-1.05-2.604-2.856 0-1.778 1.218-2.842 2.604-2.842 1.414 0 2.604 1.022 2.604 2.828s-1.2 2.87-2.604 2.87zm6.86 4.634v-5.054c.476.784 1.47 1.54 2.87 1.54 2.058 0 3.64-1.6 3.64-4 0-2.394-1.582-3.934-3.64-3.934-1.4 0-2.408.728-2.87 1.54V79.7h-1.274v11.312h1.274zm2.604-4.634c-1.386 0-2.604-1.05-2.604-2.856 0-1.778 1.218-2.842 2.604-2.842 1.414 0 2.604 1.022 2.604 2.828s-1.2 2.87-2.604 2.87zm6.86.994V83.2c0-1.778.924-2.324 2.142-2.324h.336V79.56c-1.218 0-2.044.532-2.478 1.386V79.7h-1.274v7.672h1.274zm7.294.126c2.184 0 3.934-1.54 3.934-3.976 0-2.422-1.694-3.948-3.878-3.948-2.17 0-3.878 1.526-3.878 3.948 0 2.436 1.652 3.976 3.822 3.976zm0-1.12c-1.33 0-2.52-.9-2.52-2.856 0-1.932 1.218-2.842 2.562-2.842 1.316 0 2.6.9 2.6 2.842 0 1.946-1.302 2.856-2.632 2.856zm9.198.994l3-7.672H561.4l-2.38 6.496-2.394-6.496h-1.372l3 7.672h1.484zm7.588.126c1.904 0 3.136-1.092 3.528-2.492h-1.372c-.28.826-1.008 1.414-2.156 1.414-1.302 0-2.394-.854-2.492-2.408h6.132c.028-.266.042-.5.042-.77 0-2.1-1.456-3.668-3.682-3.668-2.24 0-3.794 1.526-3.794 3.948 0 2.436 1.6 3.976 3.794 3.976zm2.366-4.522h-4.844c.14-1.498 1.176-2.324 2.422-2.324 1.316 0 2.436.826 2.422 2.324zm6.16 4.522c1.4 0 2.394-.714 2.856-1.568v1.442h1.288v-10.36h-1.288v4.06c-.532-.882-1.638-1.498-2.842-1.498-2.072 0-3.654 1.54-3.654 3.934 0 2.38 1.582 4 3.64 4zm.252-1.12c-1.4 0-2.6-1.064-2.6-2.87s1.2-2.828 2.6-2.828 2.604 1.064 2.604 2.842c0 1.806-1.204 2.856-2.604 2.856z"/></g><g class="D G H"><use xlink:href="#G" x="-325.345" y="-263.612"/><use xlink:href="#H" x="-325.346" y="-263.613"/></g></g></svg>