<svg xmlns="http://www.w3.org/2000/svg" xmlns:xlink="http://www.w3.org/1999/xlink" width="273" height="1196"><style><![CDATA[.B{fill-rule:nonzero}.C{opacity:.1}.D{fill:#fa357b}.E{fill:#000}.F{stroke-linecap:round}.G{stroke-linejoin:round}.H{stroke-width:2}.I{stroke:#fa357b}.J{stroke-width:.5}]]></style><defs><linearGradient x1="49.9540863%" y1="1.72254642e-14%" x2="50.0459137%" y2="100%" id="A"><stop stop-color="#fa357b" offset="0%"/><stop stop-color="#fff" offset="100%"/></linearGradient><path id="B" d="M27.835 541.766c2.75 0 5.505.785 7.966 2.27a17.27 17.27 0 0 1 4.155 3.519l-4.112-.136c-.483-.016-.887.365-.903.85s.363.893.846.91l5.69.19a.87.87 0 0 0 .952-.192c.25-.252.324-.63.19-.958l-.187-5.722a.88.88 0 0 0-.895-.86.88.88 0 0 0-.855.9l.11 3.32a19.11 19.11 0 0 0-4.088-3.329c-2.733-1.65-5.8-2.522-8.866-2.522-4.9 0-9.418 2.033-12.72 5.723-2.925 3.27-4.67 7.67-4.67 11.772 0 .486.392.88.875.88s.875-.394.875-.88c0-3.68 1.578-7.64 4.222-10.594 2.966-3.315 7.02-5.14 11.418-5.14z"/><path id="C" d="M44.57 556.62c-.483 0-.875.394-.875.88 0 3.678-1.578 7.64-4.222 10.594-2.966 3.315-7.02 5.14-11.418 5.14-2.75 0-5.505-.785-7.966-2.27-1.56-.945-2.964-2.133-4.155-3.52l4.112.136c.483.016.887-.365.903-.85a.88.88 0 0 0-.846-.909l-5.69-.19a.87.87 0 0 0-.952.192c-.25.252-.324.63-.19.958l.187 5.722c.01.486.412.872.895.86a.88.88 0 0 0 .855-.9l-.11-3.32a19.12 19.12 0 0 0 4.088 3.329c2.733 1.65 5.8 2.522 8.866 2.522 4.9 0 9.418-2.032 12.72-5.723 2.925-3.27 4.67-7.67 4.67-11.772 0-.486-.392-.88-.875-.88h0z"/></defs><g fill="none" fill-rule="evenodd"><g stroke-width="3" class="I"><path stroke-linecap="square" d="M270.945 1014.5L270.5 94.625"/><path d="M270.908 1014.808c.232 24.83-11.304 37.247-34.6 37.247M270.5 95.63c.204-25.34-11.346-38.008-34.652-38.008"/></g><path d="M233.655 56.616l9.8-9.886c.623-.63 1.632-.63 2.255 0a1.62 1.62 0 0 1 0 2.277l-8.662 8.748 8.662 8.747a1.62 1.62 0 0 1 0 2.277c-.622.63-1.632.63-2.255 0l-9.8-9.886c-.31-.314-.467-.726-.467-1.138s.156-.824.467-1.138z" class="D"/><path stroke="url(#A)" stroke-width="3" d="M204.943 1052h32" class="F G"/><g class="E"><g class="C"><path d="M132.55.25a16.74 16.74 0 0 0-10.568 3.765c-2.375 1.942-4.17 4.5-5.562 7.492-2.176-1.558-4.777-2.398-7.508-2.398a12.87 12.87 0 0 0-9.128 3.78 12.84 12.84 0 0 0-3.787 9.112c0 2.502.7 4.884 2.016 7.258a8 8 0 0 0-2.016 5.316 7.99 7.99 0 0 0 2.36 5.674c1.458 1.454 3.467 2.355 5.685 2.355h2.2a1.08 1.08 0 0 0 .764-.316c.195-.195.316-.465.316-.762a1.07 1.07 0 0 0-.316-.762 1.08 1.08 0 0 0-.764-.316h-2.2a5.87 5.87 0 0 1-4.158-1.722 5.85 5.85 0 0 1-1.725-4.151 5.86 5.86 0 0 1 2.104-4.5 1.08 1.08 0 0 0 .38-.712 1.07 1.07 0 0 0-.22-.775A10.58 10.58 0 0 1 98.157 22a10.69 10.69 0 0 1 3.154-7.588 10.73 10.73 0 0 1 7.601-3.148c2.874 0 5.576 1.118 7.607 3.146a1.08 1.08 0 0 0 1.558-.03 1.07 1.07 0 0 0 .263-.507 14.43 14.43 0 0 1 5.08-8.227c2.523-2.027 5.722-3.242 9.13-3.242 4.006 0 7.638 1.626 10.27 4.253a14.44 14.44 0 0 1 4.26 10.25c0 4.15-1.788 8.112-4.907 10.866a1.08 1.08 0 0 0 .168 1.736 5.9 5.9 0 0 1 2.903 5.063 5.85 5.85 0 0 1-1.725 4.151 5.87 5.87 0 0 1-4.158 1.722h-22.92a1.08 1.08 0 0 0-.764.316c-.195.195-.316.465-.316.762a1.07 1.07 0 0 0 .316.762 1.08 1.08 0 0 0 .764.316h22.92a8.02 8.02 0 0 0 5.685-2.355c1.455-1.455 2.36-3.46 2.36-5.674 0-2.275-.983-4.436-2.654-6.298 2.87-3.07 4.5-7.133 4.5-11.367 0-4.593-1.872-8.758-4.894-11.775A16.68 16.68 0 0 0 132.55.25zm-21.122 40.2c-.298 0-.568.12-.764.316s-.316.465-.316.762a1.07 1.07 0 0 0 .317.762 1.08 1.08 0 0 0 1.529 0c.195-.195.316-.465.316-.762a1.07 1.07 0 0 0-.316-.762 1.08 1.08 0 0 0-.765-.316zm.242 6.017c1.613 0 3.075.655 4.134 1.712s1.715 2.517 1.715 4.126-.656 3.07-1.715 4.126a5.84 5.84 0 0 1-4.134 1.712c-1.614 0-3.075-.655-4.134-1.712s-1.715-2.517-1.715-4.126.656-3.07 1.715-4.126a5.84 5.84 0 0 1 4.134-1.712zm0 2.156a3.68 3.68 0 0 0-2.607 1.08 3.67 3.67 0 0 0 0 5.206 3.68 3.68 0 0 0 5.213 0 3.67 3.67 0 0 0 0-5.206 3.68 3.68 0 0 0-2.607-1.079zm-12.296 8.772a3.72 3.72 0 0 1 2.636 1.092 3.71 3.71 0 0 1-.001 5.261 3.72 3.72 0 0 1-5.272 0 3.71 3.71 0 0 1-1.094-2.63c0-1.025.418-1.957 1.094-2.63a3.72 3.72 0 0 1 2.636-1.092zm0 2.156a1.57 1.57 0 0 0-1.11.46 1.56 1.56 0 0 0 0 2.215c.284.284.676.46 1.1.46s.825-.176 1.1-.46a1.56 1.56 0 0 0 0-2.215c-.284-.284-.676-.46-1.1-.46zm-9.6 6.043a1.09 1.09 0 0 0-1.08 1.078 1.09 1.09 0 0 0 1.08 1.078 1.09 1.09 0 0 0 1.08-1.078 1.09 1.09 0 0 0-1.08-1.078zm33.02-47.868a4.77 4.77 0 0 0-3.38 1.4c-.866.864-1.402 2.058-1.402 3.374a1.07 1.07 0 0 0 .316.762 1.08 1.08 0 0 0 1.528 0c.195-.195.316-.465.316-.762 0-.722.294-1.376.77-1.85.467-.466 1.108-.767 2.2-.767a2.95 2.95 0 0 1 2.091.866 2.94 2.94 0 0 1 0 4.175 2.95 2.95 0 0 1-2.091.866 1.42 1.42 0 0 0-1.002.415 1.41 1.41 0 0 0-.415.999v2.563a1.07 1.07 0 0 0 .316.762 1.08 1.08 0 0 0 1.528 0c.195-.195.316-.465.316-.762v-1.874c1.28-.187 2.4-.85 3.198-1.8a5.08 5.08 0 0 0 1.177-3.256 4.96 4.96 0 0 0-1.573-3.64c-.97-.9-2.323-1.47-3.883-1.47z" stroke="#fff" class="B J"/><path d="M122.796 36.265a1.34 1.34 0 0 1-1.33-1.328 1.34 1.34 0 0 1 2.271-.939c.247.247.4.588.4.94a1.34 1.34 0 0 1-1.33 1.328zm9.754-27.777a1.34 1.34 0 0 1-1.34-1.336c.003-.732.608-1.32 1.34-1.32h.006a1.34 1.34 0 0 1 1.334 1.33c-.001.73-.605 1.325-1.34 1.325h0z"/><path d="M137.59 7.46c-.233-.124-.494-.142-.728-.07a.95.95 0 0 0-.636 1.189.95.95 0 0 0 .464.563 8.81 8.81 0 0 1 3.417 3.238c.808 1.343 1.256 2.902 1.256 4.53a.95.95 0 0 0 .28.674c.173.173.412.28.676.28s.503-.107.676-.28a.95.95 0 0 0 .28-.674 10.68 10.68 0 0 0-1.527-5.511 10.72 10.72 0 0 0-4.157-3.939z" stroke="#fff" stroke-width=".75" class="B"/></g><path d="M21.248 27c5.975 0 9.502-3.69 9.502-10.008s-3.514-9.72-9.502-9.72h-8.436V27h8.436zm-.82-4.607H18.61V11.88h1.818c2.775 0 4.416 1.79 4.416 5.113 0 3.637-1.518 5.4-4.416 5.4zm20.107 5c4.143 0 6.986-2.023 7.45-5.277h-5c-.328.902-1.244 1.436-2.38 1.436-1.504 0-2.57-1.066-2.57-2.543v-.355h10.008v-1.518c0-4.62-3.02-7.602-7.697-7.602-4.744 0-7.71 3.076-7.71 8.012 0 4.908 2.94 7.848 7.89 7.848zm2.297-9.775h-4.703c.11-1.3 1.08-2.23 2.352-2.23 1.313 0 2.256.875 2.352 2.23zM57.06 27V15.967h2.734v-3.924h-2.898v-.355c0-.684.533-1.148 1.873-1.148a6.04 6.04 0 0 1 1.066.082V7.27c-.588-.123-1.668-.232-2.625-.232-4.293 0-5.756 1.367-5.756 4.375v.63h-1.996v3.924h1.996V27h5.605zm7.57-16.53c1.5 0 2.666-1.19 2.666-2.61s-1.176-2.61-2.666-2.61-2.666 1.19-2.666 2.61 1.176 2.61 2.666 2.61zM67.46 27V11.906h-5.605V27h5.605zm8.05 0v-8.436c0-1.408.807-2.434 2.133-2.434 1.408 0 2.12.93 2.12 2.447V27h5.605v-9.666c0-3.623-1.86-5.73-5.25-5.73-2.297 0-3.87 1.148-4.635 3.268h-.11v-2.967h-5.47V27h5.605zm19.738.383c4.143 0 6.986-2.023 7.45-5.277h-5c-.328.902-1.244 1.436-2.38 1.436-1.504 0-2.57-1.066-2.57-2.543v-.355h10.008v-1.518c0-4.62-3.02-7.602-7.697-7.602-4.744 0-7.71 3.076-7.71 8.012 0 4.908 2.94 7.848 7.89 7.848zm2.297-9.775H92.84c.11-1.3 1.08-2.23 2.352-2.23 1.313 0 2.256.875 2.352 2.23zM18.61 61v-6.617h1.9L23.627 61h6.48l-3.746-7.48c2.064-.984 3.186-3.227 3.186-5.55 0-4.225-2.707-6.7-7.97-6.7h-8.764V61h5.797zm2.393-10.445H18.61V45.55h2.406c1.56 0 2.61 1.053 2.61 2.516 0 1.5-.998 2.488-2.625 2.488zM39.14 61.383c4.143 0 6.986-2.023 7.45-5.277h-5c-.328.902-1.244 1.436-2.38 1.436-1.504 0-2.57-1.066-2.57-2.543v-.355H46.66v-1.518c0-4.62-3.02-7.602-7.697-7.602-4.744 0-7.71 3.076-7.71 8.012 0 4.908 2.94 7.848 7.89 7.848zm2.297-9.775h-4.703c.11-1.3 1.08-2.23 2.352-2.23 1.313 0 2.256.875 2.352 2.23zm23.006 14.22v-19.92h-5.605v2.72h-.11c-.588-1.695-2.23-2.94-4.43-2.94-3.76 0-5.975 2.87-5.975 7.725 0 4.922 2.174 7.807 5.893 7.807 2.256 0 4.02-1.244 4.512-2.83h.11v7.438h5.605zm-7.984-8.928c-1.518 0-2.393-1.285-2.393-3.445 0-2.133.89-3.445 2.393-3.445s2.406 1.3 2.406 3.46c0 2.174-.89 3.432-2.406 3.432zM72.436 61.3c2.256 0 3.664-1.217 4.266-3.268h.11V61h5.47V45.906h-5.605v8.436c0 1.463-.82 2.434-2.078 2.434-1.312 0-2.174-.848-2.174-2.447v-8.422h-5.605v9.68c0 3.596 2.38 5.715 5.62 5.715zM87.5 44.47c1.5 0 2.666-1.19 2.666-2.61s-1.176-2.61-2.666-2.61-2.666 1.19-2.666 2.61 1.176 2.61 2.666 2.61zM90.33 61V45.906h-5.605V61h5.605zm8.05 0v-7.52c0-2.105 1.08-3.186 3.186-3.186.574 0 1.148.11 1.627.314v-4.703c-.37-.137-.807-.22-1.312-.22-1.79 0-2.953 1.04-3.527 3.186h-.11v-2.967h-5.47V61h5.605zm13.71.383c4.143 0 6.986-2.023 7.45-5.277h-5c-.328.902-1.244 1.436-2.38 1.436-1.504 0-2.57-1.066-2.57-2.543v-.355h10.008v-1.518c0-4.62-3.02-7.602-7.697-7.602-4.744 0-7.71 3.076-7.71 8.012 0 4.908 2.94 7.848 7.89 7.848zm2.297-9.775h-4.703c.11-1.3 1.08-2.23 2.352-2.23 1.313 0 2.256.875 2.352 2.23zM127.258 61v-8.764c0-1.312.684-2.133 1.818-2.133 1.203 0 1.818.725 1.818 2.16V61h5.318v-8.764c0-1.326.67-2.133 1.805-2.133 1.217 0 1.832.71 1.832 2.146V61h5.605V50.8c0-3.076-2.023-5.195-4.963-5.195-2.297 0-4.13 1.326-4.635 3.322h-.11c-.37-2.12-1.9-3.322-4.197-3.322-2.064 0-3.76 1.313-4.32 3.35h-.11v-3.05h-5.47V61h5.605zm28.092.383c4.143 0 6.986-2.023 7.45-5.277h-5c-.328.902-1.244 1.436-2.38 1.436-1.504 0-2.57-1.066-2.57-2.543v-.355h10.008v-1.518c0-4.62-3.02-7.602-7.697-7.602-4.744 0-7.71 3.076-7.71 8.012 0 4.908 2.94 7.848 7.89 7.848zm2.297-9.775h-4.703c.11-1.3 1.08-2.23 2.352-2.23 1.313 0 2.256.875 2.352 2.23zM170.52 61v-8.436c0-1.408.807-2.434 2.133-2.434 1.408 0 2.12.93 2.12 2.447V61h5.605v-9.666c0-3.623-1.86-5.73-5.25-5.73-2.297 0-3.87 1.148-4.635 3.268h-.11v-2.967h-5.47V61h5.605zm19.533 0c1.066 0 1.777-.096 2.31-.205v-3.883c-.328.055-.533.068-.957.068-1.148 0-1.695-.492-1.695-1.436v-5.578h2.652v-4.06h-2.652v-3.31h-5.605v3.31h-1.996v4.06h1.996v6.822c0 2.98 1.682 4.21 5.947 4.21zm11.494.383c4.375 0 7.3-2.05 7.3-5.332 0-2.283-1.463-3.54-4.73-4.143l-2.734-.506c-1.367-.26-1.736-.588-1.736-1.12 0-.684.684-1.094 1.695-1.094 1.203 0 1.9.684 1.97 1.6h5.086c-.068-3.227-2.652-5.264-7.055-5.264-4.39 0-7.055 1.928-7.055 5.072 0 2.338 1.572 3.965 4.566 4.512l2.734.506c1.27.232 1.71.533 1.71 1.08 0 .63-.67 1.025-1.75 1.025-1.258 0-1.996-.574-2.187-1.518h-5.414c.26 3.1 2.844 5.182 7.602 5.182z" class="B"/></g><rect x="25.445" y="76" width="170" height="20" rx="10" class="C D"/><path d="M36.603 91.126c1.26 0 2.184-.588 2.674-1.288V91h1.6V80.64h-1.6v3.724c-.588-.728-1.652-1.204-2.66-1.204-2.044 0-3.654 1.568-3.654 3.948s1.6 4.018 3.64 4.018zm.336-1.386c-1.2 0-2.338-.966-2.338-2.632s1.148-2.562 2.338-2.562c1.204 0 2.338.938 2.338 2.6 0 1.666-1.134 2.604-2.338 2.604zm9.366 1.386c1.9 0 3.108-1.078 3.542-2.422h-1.722c-.294.602-.84 1.078-1.82 1.078-1.176 0-2.086-.77-2.198-2.044H50c.042-.266.056-.518.056-.784 0-2.268-1.554-3.794-3.752-3.794-2.282 0-3.85 1.554-3.85 3.976s1.638 4 3.85 4zm2.086-4.676h-4.27c.168-1.218 1.036-1.946 2.114-1.946 1.2 0 2.128.756 2.156 1.946zm6.034 4.676c1.82 0 2.954-.98 2.954-2.282-.084-2.786-4.438-1.918-4.438-3.472 0-.518.448-.868 1.302-.868.868 0 1.386.462 1.442 1.134h1.596c-.084-1.54-1.232-2.478-2.982-2.478-1.82 0-2.968.994-2.968 2.226 0 2.828 4.48 1.96 4.48 3.472 0 .532-.5.924-1.414.924-.882 0-1.484-.518-1.54-1.148h-1.652c.07 1.4 1.372 2.492 3.22 2.492zm5.488-8.862c.56 0 1.008-.448 1.008-1.022s-.448-1.022-1.008-1.022a1.01 1.01 0 1 0 0 2.044zM60.697 91v-7.714H59.1V91h1.596zm3.696 0v-4.06c0-1.638.728-2.128 1.904-2.128h.406V83.16c-1.092 0-1.862.476-2.3 1.246v-1.12h-1.596V91h1.596zm7.098.126c1.9 0 3.108-1.078 3.542-2.422H73.31c-.294.602-.84 1.078-1.82 1.078-1.176 0-2.086-.77-2.198-2.044h5.894c.042-.266.056-.518.056-.784 0-2.268-1.554-3.794-3.752-3.794-2.282 0-3.85 1.554-3.85 3.976s1.638 4 3.85 4zm2.086-4.676h-4.27c.168-1.218 1.036-1.946 2.114-1.946 1.2 0 2.128.756 2.156 1.946zm6.342 4.676c1.26 0 2.184-.588 2.674-1.288V91h1.6V80.64h-1.6v3.724c-.588-.728-1.652-1.204-2.66-1.204-2.044 0-3.654 1.568-3.654 3.948s1.6 4.018 3.64 4.018zm.336-1.386c-1.2 0-2.338-.966-2.338-2.632s1.148-2.562 2.338-2.562c1.204 0 2.338.938 2.338 2.6 0 1.666-1.134 2.604-2.338 2.604zM91.75 91v-6.412h1.428v-1.302H91.75v-.546c0-.882.336-1.218 1.316-1.218v-1.33c-2.016 0-2.926.77-2.926 2.548v.546h-.9v1.302h.9V91h1.6zm5.95.112c.9 0 1.778-.378 2.282-1.036V91h1.596v-7.714H99.98v4.298c0 1.414-.77 2.142-1.946 2.142-1.162 0-1.932-.728-1.932-2.142v-4.298H94.52v4.536c0 2.156 1.372 3.3 3.178 3.3zm7.574-.112v-4.312c0-1.414.77-2.142 1.946-2.142 1.162 0 1.932.728 1.932 2.142V91h1.582v-4.55c0-2.156-1.358-3.3-3.164-3.3-.924 0-1.778.378-2.296 1.008v-.882h-1.596V91h1.596zm10.738.126c1.9 0 3.122-1.05 3.556-2.562h-1.722c-.294.798-.882 1.218-1.834 1.218-1.288 0-2.142-.952-2.142-2.646 0-1.68.854-2.632 2.142-2.632.952 0 1.568.476 1.834 1.218h1.722c-.434-1.624-1.666-2.562-3.556-2.562-2.212 0-3.78 1.568-3.78 3.976 0 2.422 1.568 4 3.78 4zm8.9-.126v-1.33h-.98c-.672 0-.896-.238-.896-.812v-4.27h1.876v-1.302h-1.876v-1.918h-1.6v1.918h-.9v1.302h.9v4.27c0 1.568.854 2.142 2.226 2.142h1.26zm2.282-8.736c.56 0 1.008-.448 1.008-1.022s-.448-1.022-1.008-1.022a1.01 1.01 0 1 0 0 2.044zm.784 8.736v-7.714h-1.596V91h1.596zm5.446.126c2.212 0 4.004-1.568 4.004-4s-1.736-3.976-3.934-3.976-3.934 1.554-3.934 3.976 1.666 4 3.864 4zm0-1.386c-1.204 0-2.24-.854-2.24-2.604s1.078-2.6 2.282-2.6c1.2 0 2.324.84 2.324 2.6s-1.176 2.604-2.366 2.604zm7.182 1.26v-4.312c0-1.414.77-2.142 1.946-2.142 1.162 0 1.932.728 1.932 2.142V91h1.582v-4.55c0-2.156-1.358-3.3-3.164-3.3-.924 0-1.778.378-2.296 1.008v-.882H139V91h1.596zm10.57.126c1.288 0 2.212-.616 2.702-1.274V91h1.6v-7.714h-1.6v1.12c-.476-.63-1.372-1.246-2.674-1.246-2.03 0-3.64 1.568-3.64 3.948s1.6 4.018 3.612 4.018zm.364-1.386c-1.2 0-2.338-.966-2.338-2.632s1.148-2.562 2.338-2.562c1.204 0 2.338.938 2.338 2.6 0 1.666-1.134 2.604-2.338 2.604zm7.644 1.26V80.64h-1.596V91h1.596zm2.912-8.736c.56 0 1.008-.448 1.008-1.022s-.448-1.022-1.008-1.022a1.01 1.01 0 1 0 0 2.044zM162.87 91v-7.714h-1.596V91h1.596zm5.838 0v-1.33h-.98c-.672 0-.896-.238-.896-.812v-4.27h1.876v-1.302h-1.876v-1.918h-1.6v1.918h-.9v1.302h.9v4.27c0 1.568.854 2.142 2.226 2.142h1.26zm2.282-8.736c.56 0 1.008-.448 1.008-1.022s-.448-1.022-1.008-1.022a1.01 1.01 0 1 0 0 2.044zm.784 8.736v-7.714h-1.596V91h1.596zm5.418.126c1.9 0 3.108-1.078 3.542-2.422h-1.722c-.294.602-.84 1.078-1.82 1.078-1.176 0-2.086-.77-2.198-2.044h5.894c.042-.266.056-.518.056-.784 0-2.268-1.554-3.794-3.752-3.794-2.282 0-3.85 1.554-3.85 3.976s1.638 4 3.85 4zm2.086-4.676h-4.27c.168-1.218 1.036-1.946 2.114-1.946 1.2 0 2.128.756 2.156 1.946zm6.034 4.676c1.82 0 2.954-.98 2.954-2.282-.084-2.786-4.438-1.918-4.438-3.472 0-.518.448-.868 1.302-.868.868 0 1.386.462 1.442 1.134h1.596c-.084-1.54-1.232-2.478-2.982-2.478-1.82 0-2.968.994-2.968 2.226 0 2.828 4.48 1.96 4.48 3.472 0 .532-.5.924-1.414.924-.882 0-1.484-.518-1.54-1.148h-1.652c.07 1.4 1.372 2.492 3.22 2.492z" class="B E"/><rect x="58.445" y="107" width="105" height="20" rx="10" class="C D"/><g class="E"><path d="M74.603 122.112c.9 0 1.778-.378 2.282-1.036V122h1.596v-7.714h-1.596v4.298c0 1.414-.77 2.142-1.946 2.142-1.162 0-1.932-.728-1.932-2.142v-4.298h-1.582v4.536c0 2.156 1.372 3.3 3.178 3.3zm8.778.014c1.82 0 2.954-.98 2.954-2.282-.084-2.786-4.438-1.918-4.438-3.472 0-.518.448-.868 1.302-.868.868 0 1.386.462 1.442 1.134h1.596c-.084-1.54-1.232-2.478-2.982-2.478-1.82 0-2.968.994-2.968 2.226 0 2.828 4.48 1.96 4.48 3.472 0 .532-.5.924-1.414.924-.882 0-1.484-.518-1.54-1.148H80.16c.07 1.4 1.372 2.492 3.22 2.492zm7.994 0c1.9 0 3.108-1.078 3.542-2.422h-1.722c-.294.602-.84 1.078-1.82 1.078-1.176 0-2.086-.77-2.198-2.044h5.894c.042-.266.056-.518.056-.784 0-2.268-1.554-3.794-3.752-3.794-2.282 0-3.85 1.554-3.85 3.976s1.638 4 3.85 4zm2.086-4.676h-4.27c.168-1.218 1.036-1.946 2.114-1.946 1.2 0 2.128.756 2.156 1.946zm4.83 4.55v-4.06c0-1.638.728-2.128 1.904-2.128h.406v-1.652c-1.092 0-1.862.476-2.3 1.246v-1.12h-1.596V122h1.596zm10.22.126c1.82 0 2.954-.98 2.954-2.282-.084-2.786-4.438-1.918-4.438-3.472 0-.518.448-.868 1.302-.868.868 0 1.386.462 1.442 1.134h1.596c-.084-1.54-1.232-2.478-2.982-2.478-1.82 0-2.968.994-2.968 2.226 0 2.828 4.48 1.96 4.48 3.472 0 .532-.5.924-1.414.924-.882 0-1.484-.518-1.54-1.148h-1.652c.07 1.4 1.372 2.492 3.22 2.492zm8.414-.126v-1.33h-.98c-.672 0-.896-.238-.896-.812v-4.27h1.876v-1.302h-1.876v-1.918h-1.6v1.918h-.9v1.302h.9v4.27c0 1.568.854 2.142 2.226 2.142h1.26zm4.816.126c2.212 0 4.004-1.568 4.004-4s-1.736-3.976-3.934-3.976-3.934 1.554-3.934 3.976 1.666 4 3.864 4zm0-1.386c-1.204 0-2.24-.854-2.24-2.604s1.078-2.6 2.282-2.6c1.2 0 2.324.84 2.324 2.6s-1.176 2.604-2.366 2.604zm7.182 1.26v-4.06c0-1.638.728-2.128 1.904-2.128h.406v-1.652c-1.092 0-1.862.476-2.3 1.246v-1.12h-1.596V122h1.596zm4.592-8.736c.56 0 1.008-.448 1.008-1.022s-.448-1.022-1.008-1.022a1.01 1.01 0 1 0 0 2.044zM134.3 122v-7.714h-1.596V122h1.596zm5.418.126c1.9 0 3.108-1.078 3.542-2.422h-1.722c-.294.602-.84 1.078-1.82 1.078-1.176 0-2.086-.77-2.198-2.044h5.894c.042-.266.056-.518.056-.784 0-2.268-1.554-3.794-3.752-3.794-2.282 0-3.85 1.554-3.85 3.976s1.638 4 3.85 4zm2.086-4.676h-4.27c.168-1.218 1.036-1.946 2.114-1.946 1.2 0 2.128.756 2.156 1.946zm6.034 4.676c1.82 0 2.954-.98 2.954-2.282-.084-2.786-4.438-1.918-4.438-3.472 0-.518.448-.868 1.302-.868.868 0 1.386.462 1.442 1.134h1.596c-.084-1.54-1.232-2.478-2.982-2.478-1.82 0-2.968.994-2.968 2.226 0 2.828 4.48 1.96 4.48 3.472 0 .532-.5.924-1.414.924-.882 0-1.484-.518-1.54-1.148h-1.652c.07 1.4 1.372 2.492 3.22 2.492z" class="B"/><g stroke="#fff" class="C J"><path d="M88.804 227.567c20.435 0 32.26.28 39.102.75 3.837.262 6.096.582 7.424.946.7.194 1.14.395 1.396.613.282.24.312.497.312.758h0V248a3.09 3.09 0 0 1-.882 2.168 2.96 2.96 0 0 1-2.12.897h0-45.232a2.96 2.96 0 0 1-2.12-.897 3.09 3.09 0 0 1-.882-2.168h0v-17.368a3.09 3.09 0 0 1 .882-2.168 2.96 2.96 0 0 1 2.12-.897zm17.334 8.923l-12.312 12.548H129.2l-8.447-9.706-5.024 5.12 1.27 1.46a1.03 1.03 0 0 1 .25.736 1.02 1.02 0 0 1-.333.699c-.204.185-.462.268-.714.253a.98.98 0 0 1-.68-.337l-9.375-10.773zm27.898-6.894H88.804a1.01 1.01 0 0 0-.724.306 1.04 1.04 0 0 0-.297.731V248a1.04 1.04 0 0 0 .298.731 1.01 1.01 0 0 0 .724.306h2.214l13.844-14.108a1.8 1.8 0 0 1 1.336-.541c.498.015.973.242 1.303.622l6.897 7.925 5.068-5.165c.352-.36.837-.557 1.336-.54a1.81 1.81 0 0 1 1.303.622l9.736 11.187h2.193a1.01 1.01 0 0 0 .724-.306 1.04 1.04 0 0 0 .298-.731v-17.368a1.04 1.04 0 0 0-.298-.731 1.01 1.01 0 0 0-.724-.306zm-44.666 26.55c7.495 0 12.015.337 14.725.9 1.487.3 2.417.68 2.987 1.108.65.487.792 1.045.792 1.635h0v13.525a3.67 3.67 0 0 1-1.048 2.576 3.52 3.52 0 0 1-2.52 1.066h0H89.37a3.52 3.52 0 0 1-2.52-1.067 3.67 3.67 0 0 1-1.048-2.576h0v-13.525a3.67 3.67 0 0 1 1.048-2.576 3.52 3.52 0 0 1 2.52-1.067zm7.468 11.55l-8.013 7.23h16.024l-8.012-7.23zm9.055-8.172l-7.558 6.82 7.558 6.82v-13.64zm-18.112 0v13.64l7.558-6.82-7.558-6.82zm16.613-1.35H89.28l7.557 6.82 7.557-6.82zm13.084-2.028c7.495 0 12.015.337 14.725.9 1.487.3 2.417.68 2.987 1.108.65.487.792 1.045.792 1.635h0v13.525a3.67 3.67 0 0 1-1.048 2.576 3.52 3.52 0 0 1-2.52 1.066h0-14.936a3.52 3.52 0 0 1-2.52-1.067 3.67 3.67 0 0 1-1.048-2.576h0v-13.525a3.67 3.67 0 0 1 1.048-2.576 3.52 3.52 0 0 1 2.52-1.067zm7.468 11.55l-8.013 7.23h16.024l-8.012-7.23zm9.055-8.172l-7.558 6.82 7.558 6.82v-13.64zm-18.112 0v13.64l7.558-6.82-7.558-6.82zm16.613-1.35H117.4l7.557 6.82 7.557-6.82z" class="B"/><path d="M87.3 287.502a.98.98 0 0 0-.7.295c-.18.182-.292.438-.292.72a1.02 1.02 0 0 0 .292.72.97.97 0 0 0 .7.295h5.517a.98.98 0 0 0 .7-.295c.18-.182.292-.438.087-1.112-.2-.13-.503-.24-1.005-.333-.967-.18-2.6-.288-5.298-.288zm10.045 0a.98.98 0 0 0-.7.295c-.18.182-.292.438-.292.72a1.02 1.02 0 0 0 .292.72.97.97 0 0 0 .7.295h9.053c.273 0 .52-.113.698-.295s.212-.46-.084-1.136c-.3-.12-.75-.222-1.468-.3-1.462-.18-3.955-.287-8.2-.287zM87.3 282.034a.98.98 0 0 0-.7.295c-.18.182-.292.438-.292.72a1.02 1.02 0 0 0 .292.72.97.97 0 0 0 .7.295h2.35a.98.98 0 0 0 .7-.295c.18-.182.292-.438.154-1.132-.105-.122-.273-.224-.523-.312-.52-.183-1.36-.3-2.68-.3zm16.415 0c-.273 0-.52.113-.698.295s-.292.44-.292.72.1.535.292.72a.97.97 0 0 0 .698.295h2.574c.273 0 .52-.113.698-.295s.292-.438.15-1.13c-.1-.123-.3-.225-.555-.314-.553-.183-1.446-.3-2.866-.3zm-9.92 0c-.273 0-.52.113-.698.295a1.03 1.03 0 0 0-.292.72 1.02 1.02 0 0 0 .292.72.97.97 0 0 0 .698.295h5.758a.98.98 0 0 0 .7-.295c.18-.182.292-.438.082-1.1-.196-.13-.52-.24-1.042-.334-1-.18-2.683-.288-5.496-.288zm22.667 5.468c-.273 0-.52.113-.698.295a1.03 1.03 0 0 0-.292.72 1.02 1.02 0 0 0 .292.72.97.97 0 0 0 .698.295h5.518c.273 0 .52-.113.698-.295s.292-.438.087-1.112c-.2-.13-.503-.24-1.005-.333-.967-.18-2.6-.288-5.298-.288zm10.046 0c-.273 0-.52.113-.698.295a1.03 1.03 0 0 0-.292.72 1.02 1.02 0 0 0 .292.72.97.97 0 0 0 .698.295h9.053a.98.98 0 0 0 .7-.295c.18-.182.212-.46-.084-1.136-.3-.12-.75-.222-1.468-.3-1.462-.18-3.956-.287-8.2-.287zm-10.046-5.468c-.273 0-.52.113-.698.295a1.03 1.03 0 0 0-.292.72 1.02 1.02 0 0 0 .292.72.97.97 0 0 0 .698.295h2.35c.273 0 .52-.113.698-.295s.292-.438.154-1.132c-.105-.122-.273-.224-.523-.312-.52-.183-1.36-.3-2.68-.3zm16.416 0c-.273 0-.52.113-.698.295a1.03 1.03 0 0 0-.292.72 1.02 1.02 0 0 0 .292.72.97.97 0 0 0 .698.295h2.574a.98.98 0 0 0 .7-.295c.18-.182.292-.438.15-1.13-.1-.123-.3-.225-.556-.314-.553-.183-1.446-.3-2.867-.3zm-9.92 0a.98.98 0 0 0-.7.295c-.18.182-.292.438-.292.72a1.02 1.02 0 0 0 .292.72.97.97 0 0 0 .7.295h5.758c.273 0 .52-.113.698-.295s.292-.438.082-1.1c-.196-.13-.52-.24-1.042-.334-1-.18-2.683-.288-5.495-.288z"/></g><path d="M39.448 271l2.94-11.293h.11L45.436 271h5.47l5.086-19.73h-5.988l-2.27 12.47h-.11l-2.94-12.47H40.2l-2.94 12.47h-.11l-2.27-12.47h-5.988L33.98 271h5.47zm21.256-16.53c1.5 0 2.666-1.19 2.666-2.61s-1.176-2.61-2.666-2.61-2.666 1.19-2.666 2.61 1.176 2.61 2.666 2.61zm2.83 16.53v-15.094h-5.605V271h5.605zm8.05 0v-7.52c0-2.105 1.08-3.186 3.186-3.186.574 0 1.148.11 1.627.314v-4.703c-.37-.137-.807-.22-1.312-.22-1.79 0-2.953 1.04-3.527 3.186h-.11v-2.967h-5.47V271h5.605zm13.71.383c4.143 0 6.986-2.023 7.45-5.277h-5c-.328.902-1.244 1.436-2.38 1.436-1.504 0-2.57-1.066-2.57-2.543v-.355H92.81v-1.518c0-4.62-3.02-7.602-7.697-7.602-4.744 0-7.71 3.076-7.71 8.012 0 4.908 2.94 7.848 7.89 7.848zm2.297-9.775h-4.703c.11-1.3 1.08-2.23 2.352-2.23 1.313 0 2.256.875 2.352 2.23zM101.816 271v-11.033h2.734v-3.924h-2.898v-.355c0-.684.533-1.148 1.873-1.148a6.04 6.04 0 0 1 1.066.082v-3.35c-.588-.123-1.668-.232-2.625-.232-4.293 0-5.756 1.367-5.756 4.375v.63h-1.996v3.924h1.996V271h5.605zm10.4 0v-7.52c0-2.105 1.08-3.186 3.186-3.186.574 0 1.148.11 1.627.314v-4.703c-.37-.137-.807-.22-1.312-.22-1.79 0-2.953 1.04-3.527 3.186h-.11v-2.967h-5.47V271h5.605zm10.592.22c1.75 0 3.582-.766 4.375-2.242h.11V271h5.47v-10.322c0-3.062-2.803-5.154-6.986-5.154-4.402 0-7.137 2.037-7.273 5.264h5.004c.082-.766.82-1.395 1.97-1.395 1.053 0 1.818.547 1.818 1.56v.738l-3.31.205c-4.033.246-6.262 1.818-6.262 4.717 0 2.72 2.338 4.607 5.086 4.607zm2.092-3.746c-.984 0-1.654-.48-1.654-1.3 0-.738.602-1.244 1.668-1.326l2.38-.164v.984c0 1.107-1.148 1.805-2.393 1.805zM140.8 271v-8.764c0-1.312.684-2.133 1.818-2.133 1.203 0 1.818.725 1.818 2.16V271h5.318v-8.764c0-1.326.67-2.133 1.805-2.133 1.217 0 1.832.71 1.832 2.146V271h5.605v-10.2c0-3.076-2.023-5.195-4.963-5.195-2.297 0-4.13 1.326-4.635 3.322h-.11c-.37-2.12-1.9-3.322-4.197-3.322-2.064 0-3.76 1.312-4.32 3.35h-.11v-3.05h-5.47V271h5.605zm28.092.383c4.143 0 6.986-2.023 7.45-5.277h-5c-.328.902-1.244 1.436-2.38 1.436-1.504 0-2.57-1.066-2.57-2.543v-.355h10.008v-1.518c0-4.62-3.02-7.602-7.697-7.602-4.744 0-7.71 3.076-7.71 8.012 0 4.908 2.94 7.848 7.89 7.848zm2.297-9.775h-4.703c.11-1.3 1.08-2.23 2.352-2.23 1.313 0 2.256.875 2.352 2.23zm14.27 9.775c4.375 0 7.3-2.05 7.3-5.332 0-2.283-1.463-3.54-4.73-4.143l-2.734-.506c-1.367-.26-1.736-.588-1.736-1.12 0-.684.684-1.094 1.695-1.094 1.203 0 1.9.684 1.97 1.6h5.086c-.068-3.227-2.652-5.264-7.055-5.264-4.39 0-7.055 1.928-7.055 5.072 0 2.338 1.572 3.965 4.566 4.512l2.734.506c1.27.232 1.71.533 1.71 1.08 0 .63-.67 1.025-1.75 1.025-1.258 0-1.996-.574-2.187-1.518h-5.414c.26 3.1 2.844 5.182 7.602 5.182z" class="B"/></g><rect x="25.445" y="302" width="173" height="20" rx="10" class="C D"/><g class="B E"><path d="M33.745 317v-11.1h-1.7V317h1.7zm5.35.105c.8 0 1.52-.17 2.16-.5a3.66 3.66 0 0 0 1.5-1.47c.36-.64.54-1.395.54-2.265 0-.86-.18-1.6-.54-2.25a3.66 3.66 0 0 0-1.5-1.47c-.64-.34-1.36-.5-2.16-.5s-1.517.17-2.152.5a3.72 3.72 0 0 0-1.5 1.47c-.365.64-.547 1.4-.547 2.25s.182 1.613.547 2.257.865 1.137 1.5 1.478 1.352.5 2.152.5zm0-1.5c-.44 0-.845-.1-1.215-.3s-.668-.505-.892-.915-.338-.92-.338-1.53c0-.6.113-1.108.338-1.523a2.21 2.21 0 0 1 .892-.922c.37-.2.775-.3 1.215-.3s.845.1 1.215.3a2.21 2.21 0 0 1 .892.922c.225.415.337.923.337 1.523 0 .6-.112 1.12-.337 1.53s-.523.715-.892.915-.775.3-1.215.3zM47.73 317l2.07-6.4 2.04 6.4h1.9l2.295-8.265h-1.62l-1.575 6.7-2.1-6.7h-1.8l-2.07 6.7-1.575-6.7H43.56L45.855 317h1.875zm13.975-4.7v-1.44h-6.18v1.44h6.18zm4.12 4.7v-6.795h1.815v-1.47h-1.815v-.135c0-.6.135-1.008.405-1.252s.74-.353 1.4-.323h0v-1.5c-1.18-.06-2.065.163-2.655.668s-.885 1.262-.885 2.272h0v.27h-1.125v1.47H64.1V317h1.725zm3.55-9.7c.33 0 .597-.1.802-.27s.307-.415.307-.705a.94.94 0 0 0-.307-.72c-.205-.2-.473-.285-.802-.285s-.595.095-.795.285a.95.95 0 0 0-.3.72c0 .3.1.525.3.705s.465.27.795.27zm.855 9.7v-8.265h-1.7V317h1.7zm4.885.105c.75 0 1.4-.185 1.92-.555a2.9 2.9 0 0 0 1.11-1.47h0V317h1.725v-11.1h-1.725v4.755a2.9 2.9 0 0 0-1.11-1.47c-.53-.37-1.17-.555-1.92-.555-.72 0-1.362.17-1.927.5s-1.008.83-1.328 1.47-.48 1.4-.48 2.25c0 .87.16 1.625.48 2.265s.763 1.13 1.328 1.47 1.207.5 1.927.5zm.525-1.515c-.76 0-1.367-.242-1.822-.727s-.683-1.153-.683-2.002.227-1.518.683-2.002 1.063-.728 1.822-.728c.48 0 .9.113 1.3.337s.68.545.9.96.33.892.33 1.433c0 .55-.1 1.03-.33 1.44s-.52.727-.9.952-.8.337-1.3.337zm9.46 1.515c.7 0 1.315-.127 1.875-.382s1.015-.608 1.365-1.058.58-.965.7-1.545h0-1.83c-.1.48-.332.865-.727 1.155s-.877.435-1.448.435c-.65 0-1.195-.205-1.635-.615s-.675-1.04-.705-1.9h6.36a3.97 3.97 0 0 0 .06-.735c0-.72-.162-1.373-.487-1.958s-.8-1.045-1.395-1.38-1.312-.502-2.123-.502c-.8 0-1.507.17-2.123.5s-1.097.83-1.447 1.47-.525 1.4-.525 2.25c0 .87.175 1.625.525 2.265s.832 1.13 1.447 1.47 1.322.5 2.123.5zm2.28-4.68h-4.695c.04-.8.285-1.405.735-1.815s1-.615 1.68-.615c.42 0 .808.087 1.162.262a1.93 1.93 0 0 1 .84.81c.205.365.297.817.278 1.358h0zM91.965 317v-11.1h-1.7V317h1.7zm2.425-9.7c.33 0 .597-.1.803-.27s.308-.415.308-.705a.94.94 0 0 0-.308-.72c-.205-.2-.472-.285-.803-.285s-.595.095-.795.285a.95.95 0 0 0-.3.72c0 .3.1.525.3.705s.465.27.795.27zm.855 9.7v-8.265h-1.7V317h1.7zm5.725 0v-1.485h-.825c-.44 0-.748-.1-.922-.27s-.263-.505-.263-.975h0v-4.08h1.995v-1.455H98.96v-2.055h-1.725v2.055H96.05v1.455h1.185v4.05c0 1 .228 1.697.683 2.123s1.123.637 2.002.637h1.05zm3.76 3.93l4.995-12.195h-1.905l-2.295 6.075-2.475-6.075h-1.92l3.48 8.07-1.785 4.125h1.905zm11.915-3.93l2.07-6.4 2.04 6.4h1.9l2.295-8.265h-1.62l-1.575 6.7-2.1-6.7h-1.8l-2.07 6.7-1.575-6.7h-1.725L114.77 317h1.875zm9.82-9.7c.33 0 .597-.1.802-.27s.308-.415.308-.705a.94.94 0 0 0-.308-.72c-.205-.2-.472-.285-.802-.285s-.595.095-.795.285a.95.95 0 0 0-.3.72c0 .3.1.525.3.705s.465.27.795.27zm.855 9.7v-8.265h-1.7V317h1.7zm3.28 0v-4.185c0-.84.227-1.442.683-1.808s1.058-.548 1.808-.548h.5v-1.86c-.68 0-1.28.157-1.8.472s-.92.743-1.2 1.283h0v-1.62h-1.7V317h1.7zm7.45.105c.7 0 1.315-.127 1.875-.382s1.015-.608 1.365-1.058.58-.965.7-1.545h0-1.83c-.1.48-.333.865-.728 1.155s-.877.435-1.447.435c-.65 0-1.195-.205-1.635-.615s-.675-1.04-.705-1.9h6.36a3.97 3.97 0 0 0 .06-.735c0-.72-.163-1.373-.488-1.958s-.8-1.045-1.395-1.38-1.312-.502-2.123-.502c-.8 0-1.507.17-2.123.5s-1.097.83-1.447 1.47-.525 1.4-.525 2.25c0 .87.175 1.625.525 2.265s.833 1.13 1.447 1.47 1.323.5 2.123.5zm2.28-4.68h-4.695c.04-.8.285-1.405.735-1.815s1-.615 1.68-.615c.42 0 .808.087 1.163.262a1.93 1.93 0 0 1 .84.81c.205.365.298.817.278 1.358h0zm4.915 4.575v-6.795h1.815v-1.47h-1.815v-.135c0-.6.135-1.008.405-1.252s.74-.353 1.4-.323h0v-1.5c-1.18-.06-2.065.163-2.655.668s-.885 1.262-.885 2.272h0v.27h-1.125v1.47h1.125V317h1.725zm4.405 0v-4.185c0-.84.227-1.442.682-1.808s1.058-.548 1.808-.548h.5v-1.86c-.68 0-1.28.157-1.8.472s-.92.743-1.2 1.283h0v-1.62h-1.7V317h1.7zm7.1.105c.75 0 1.4-.185 1.92-.555s.905-.86 1.125-1.47h0V317h1.7v-8.265h-1.7v1.92c-.22-.6-.595-1.1-1.125-1.47s-1.17-.555-1.92-.555c-.72 0-1.362.17-1.927.5s-1.008.83-1.328 1.47-.48 1.4-.48 2.25c0 .87.16 1.625.48 2.265s.762 1.13 1.328 1.47 1.207.5 1.927.5zm.525-1.515c-.76 0-1.368-.242-1.822-.727s-.683-1.153-.683-2.002.227-1.518.683-2.002 1.063-.728 1.822-.728c.48 0 .9.113 1.3.337s.68.545.9.96.33.892.33 1.433c0 .55-.1 1.03-.33 1.44s-.52.727-.9.952-.8.337-1.3.337zm7.495-6.855h-1.7V317h1.7v-4.395c0-.82.197-1.442.593-1.868s.927-.637 1.597-.637c.63 0 1.125.197 1.485.592s.54.952.54 1.673h0V317h1.7v-4.395c0-.82.198-1.442.593-1.868s.928-.637 1.598-.637c.63 0 1.125.197 1.485.592s.54.952.54 1.673h0V317h1.7v-4.815c0-1.15-.292-2.035-.877-2.655s-1.368-.93-2.347-.93c-.67 0-1.27.175-1.8.525s-.915.835-1.155 1.455c-.23-.64-.597-1.13-1.102-1.47s-1.102-.5-1.792-.5c-.66 0-1.235.16-1.725.48s-.84.78-1.05 1.38v-1.725zm17.02 8.37c.7 0 1.315-.127 1.875-.382s1.015-.608 1.365-1.058.58-.965.7-1.545h0-1.83c-.1.48-.333.865-.728 1.155s-.877.435-1.447.435c-.65 0-1.195-.205-1.635-.615s-.675-1.04-.705-1.9h6.36a3.97 3.97 0 0 0 .06-.735c0-.72-.163-1.373-.488-1.958s-.8-1.045-1.395-1.38-1.312-.502-2.123-.502c-.8 0-1.507.17-2.122.5s-1.098.83-1.448 1.47-.525 1.4-.525 2.25c0 .87.175 1.625.525 2.265s.833 1.13 1.448 1.47 1.322.5 2.122.5zm2.28-4.68h-4.695c.04-.8.285-1.405.735-1.815s1-.615 1.68-.615c.42 0 .808.087 1.163.262a1.93 1.93 0 0 1 .84.81c.205.365.297.817.277 1.358h0zm6.175 4.68c.9 0 1.597-.215 2.123-.645s.787-1 .787-1.68c0-.56-.137-1.002-.412-1.327s-.605-.562-1-.712-.887-.295-1.507-.435l-1.088-.3a1.78 1.78 0 0 1-.637-.375c-.17-.16-.255-.37-.255-.63 0-.35.117-.627.352-.832s.567-.308.998-.308c.52 0 .938.137 1.252.412s.507.638.577 1.088h1.62c-.13-.83-.487-1.493-1.072-1.988s-1.363-.743-2.333-.743c-.93 0-1.657.218-2.183.653s-.787 1.002-.787 1.702c0 .54.133.967.398 1.282a2.28 2.28 0 0 0 .96.683c.375.14.862.28 1.463.42l1.1.293c.27.095.495.227.675.397s.27.4.27.7a1.06 1.06 0 0 1-.352.817c-.235.215-.558.322-.968.322-.57 0-1.03-.14-1.38-.42a1.57 1.57 0 0 1-.6-1.095h0-1.665c.13.86.513 1.53 1.148 2s1.468.72 2.498.72z"/><path d="M139.65 463.637c-.324-.134-.696-.06-.944.188l-9.464 9.464c-.248.248-.322.62-.188.944s.45.535.8.535h9.464c.478 0 .866-.388.866-.866v-9.464c0-.35-.2-.666-.535-.8zm-7.705 9.398l6.507-6.507v6.507h-6.507zm13.955-23.28c-.324-.134-.696-.06-.944.188l-2.594 2.594v-17.634c0-.478-.388-.866-.866-.866h-6.654l4.744-4.744a2.62 2.62 0 0 0 .773-1.867c0-.705-.275-1.368-.773-1.867l-2.7-2.7a2.62 2.62 0 0 0-1.867-.773c-.705 0-1.368.275-1.867.773l-11.17 11.17h-26.88v-8.567c0-.478-.388-.866-.866-.866a6.82 6.82 0 0 0-6.811 6.811v36.78a.87.87 0 0 0 .021.186 6.52 6.52 0 0 0 6.539 6.061h26.462l-4.984 4.984c-.248.248-.322.62-.188.944s.45.535.8.535h29.483c.478 0 .866-.388.866-.866V450.56c0-.35-.2-.666-.535-.8zm-11.514-25.664a.91.91 0 0 1 1.285 0l2.7 2.7a.91.91 0 0 1 0 1.285l-1.716 1.716-3.976-3.976 1.716-1.716zm-2.94 2.94l3.976 3.976-1.6 1.6-3.976-3.976 1.6-1.6zm13.258 33.254h-1.598c-.478 0-.866.388-.866.866s.388.866.866.866h1.598v2.6h-1.598c-.478 0-.866.388-.866.866s.388.866.866.866h1.598v2.6h-1.598c-.478 0-.866.388-.866.866s.388.866.866.866h1.598v2.6h-1.598c-.478 0-.866.388-.866.866s.388.866.866.866h1.598v4.13h-26.527l8.747-8.747c.338-.338.338-.886 0-1.225a.84.84 0 0 0-.124-.102c-.337-.23-.8-.197-1.1.102l-3.5 3.5H94.005a4.8 4.8 0 0 1-4.824-4.672l.038-.5.035-.232.005-.026.04-.202.013-.056.043-.17.026-.1.04-.13.044-.13.032-.1.066-.168.02-.048.093-.205c.68-1.4 1.984-2.455 3.547-2.78l.23-.042.037-.006.256-.032.194-.015.062-.004.256-.006c.478 0 .866-.388.866-.866v-6.28c0-.478-.388-.866-.866-.866s-.866.388-.866.866v5.468c-1.462.185-2.82.837-3.9 1.882l-.323.34v-32.247a5.09 5.09 0 0 1 4.213-5.005v26.1c0 .478.388.866.866.866s.866-.388.866-.866v-16.74h25.15l-4.787 4.787c-.338.338-.338.886 0 1.225s.886.338 1.225 0l11.934-11.934 3.976 3.976-17.93 17.93-3.976-3.976 3.442-3.442c.338-.338.338-.886 0-1.225s-.886-.338-1.225 0l-4.054 4.054a.87.87 0 0 0-.061.068l-.018.024-.035.05-.018.03-.027.05-.016.033-.02.052-2.845 8.056a.85.85 0 0 0-.034.132h-2.88c-.478 0-.866.388-.866.866s.388.866.866.866h23.982c.478 0 .866-.388.866-.866s-.388-.866-.866-.866H109.69l5.28-1.864.074-.03.024-.01.06-.034.02-.012.06-.043a.86.86 0 0 0 .085-.074l17.82-17.82h7.52v18.5l-12.387 12.387c-.338.338-.338.886 0 1.225l.066.06c.16.13.353.194.547.194s.388-.065.547-.194a.86.86 0 0 0 .066-.059l15.235-15.235v7.64zm-31.608-7.67l-2.48.876-1.653-1.653.876-2.48 3.258 3.258z" class="C"/><path d="M32.853 459.342c5.21 0 8.695-2.87 8.695-7.37v-12.7H35.75v12.06c0 2.078-1.025 3.213-2.898 3.213s-2.898-1.135-2.898-3.213v-12.06h-5.797v12.7c0 4.498 3.486 7.37 8.695 7.37zM49.938 459l3.377-5.947h.123L56.83 459h6.453l-6.084-9.857v-.11l6.11-9.762h-6.426l-3.117 6.29h-.11l-3.104-6.29H43.8l5.824 9.734v.11L43.813 459h6.125zm19.588 4.28l7.027-24.008H71.22l-7.027 24.008h5.332zm17.838-3.937c5.21 0 8.695-2.87 8.695-7.37v-12.7h-5.797v12.06c0 2.078-1.025 3.213-2.898 3.213s-2.898-1.135-2.898-3.213v-12.06h-5.797v12.7c0 4.498 3.486 7.37 8.695 7.37zm17.564-.342v-19.73H99.13V459h5.797zm17.177 0c5.975 0 9.502-3.69 9.502-10.008s-3.514-9.72-9.502-9.72h-8.436V459h8.436zm-.82-4.607h-1.818V443.88h1.818c2.775 0 4.416 1.79 4.416 5.113 0 3.637-1.518 5.4-4.416 5.4zm20.107 5c4.143 0 6.986-2.023 7.45-5.277h-5c-.328.902-1.244 1.436-2.38 1.436-1.504 0-2.57-1.066-2.57-2.543v-.355h10.008v-1.518c0-4.62-3.02-7.602-7.697-7.602-4.744 0-7.71 3.076-7.71 8.012 0 4.908 2.94 7.848 7.89 7.848zm2.297-9.775h-4.703c.11-1.3 1.08-2.23 2.352-2.23 1.313 0 2.256.875 2.352 2.23zm14.27 9.775c4.375 0 7.3-2.05 7.3-5.332 0-2.283-1.463-3.54-4.73-4.143l-2.734-.506c-1.367-.26-1.736-.588-1.736-1.12 0-.684.684-1.094 1.695-1.094 1.203 0 1.9.684 1.97 1.6h5.086c-.068-3.227-2.652-5.264-7.055-5.264-4.39 0-7.055 1.928-7.055 5.072 0 2.338 1.572 3.965 4.566 4.512l2.734.506c1.27.232 1.71.533 1.71 1.08 0 .63-.67 1.025-1.75 1.025-1.258 0-1.996-.574-2.187-1.518h-5.414c.26 3.1 2.844 5.182 7.602 5.182zm11.904-16.912c1.5 0 2.666-1.19 2.666-2.61s-1.176-2.61-2.666-2.61-2.666 1.19-2.666 2.61 1.176 2.61 2.666 2.61zm2.83 16.53v-15.094h-5.605V459h5.605zm9.976 5.688c4.854 0 8.203-2.215 8.203-5.81v-14.97h-5.605v2.72h-.11c-.588-1.695-2.23-2.94-4.43-2.94-3.76 0-5.975 2.87-5.975 7.725 0 4.73 2.365 7.396 5.893 7.396 2.256 0 4.02-1.107 4.512-2.693h.11v2.898c0 1.27-.807 2.133-2.475 2.133-1.258 0-2.146-.52-2.31-1.244h-5.387c.232 2.803 2.994 4.785 7.574 4.785zm.22-9.926c-1.518 0-2.393-1.135-2.393-3.31 0-2.133.89-3.445 2.393-3.445s2.406 1.313 2.406 3.46c0 2.174-.89 3.295-2.406 3.295zM198.92 459v-8.436c0-1.408.807-2.434 2.133-2.434 1.408 0 2.12.93 2.12 2.447V459h5.605v-9.666c0-3.623-1.86-5.73-5.25-5.73-2.297 0-3.87 1.148-4.635 3.268h-.11v-2.967h-5.47V459h5.605z"/></g><rect x="32.445" y="489" width="167" height="20" rx="10" class="C D"/><g class="E"><path d="M42.007 503.135v-4.194c0-.802.187-1.4.562-1.825s.872-.623 1.493-.623c.603 0 1.078.193 1.425.58s.52.933.52 1.64h0v4.423h1.562v-4.594c0-1.097-.265-1.942-.795-2.533s-1.233-.887-2.1-.887c-.62 0-1.17.162-1.644.487s-.813.782-1.014 1.374h0v-4.437h-1.562v10.592h1.562zm8.164-9.246c.3 0 .546-.086.733-.258a.87.87 0 0 0 .281-.673c0-.277-.094-.506-.28-.687s-.432-.272-.733-.272-.543.09-.726.272-.274.4-.274.687a.88.88 0 0 0 .274.673c.183.172.425.258.726.258zm.78 9.246v-7.886H49.4v7.886h1.562zm5.67 3.865c.74 0 1.38-.162 1.918-.487a3.24 3.24 0 0 0 1.24-1.338c.288-.568.432-1.22.432-1.954h0v-7.972H58.65v1.832c-.2-.582-.543-1.05-1.027-1.403s-1.068-.53-1.753-.53c-.658 0-1.244.162-1.76.487s-.92.792-1.212 1.403-.438 1.326-.438 2.147c0 .83.146 1.55.438 2.16s.696 1.078 1.212 1.403 1.103.487 1.76.487c.685 0 1.27-.177 1.753-.53s.826-.82 1.027-1.403h0v1.918c0 .763-.2 1.345-.603 1.746s-.913.6-1.534.6c-.566 0-1.032-.13-1.397-.394s-.612-.627-.74-1.095h0-1.548c.164.897.573 1.608 1.226 2.133s1.51.787 2.568.787zm-.274-5.2c-.694 0-1.25-.23-1.664-.694s-.623-1.1-.623-1.91.208-1.448.623-1.91.97-.694 1.664-.694c.438 0 .83.107 1.178.322s.62.52.822.916.3.852.3 1.367c0 .525-.1.983-.3 1.374s-.475.694-.822.91-.74.322-1.178.322zm7.3 1.345v-4.194c0-.802.187-1.4.562-1.825s.872-.623 1.493-.623c.603 0 1.078.193 1.425.58s.52.933.52 1.64h0v4.423h1.562v-4.594c0-1.097-.265-1.942-.795-2.533s-1.233-.887-2.1-.887c-.62 0-1.17.162-1.644.487s-.813.782-1.014 1.374h0v-4.437H62.09v10.592h1.562zm11.96-4.494v-1.374h-5.644v1.374h5.644zm4.22 4.494v-6.484h1.658v-1.403H79.83v-.13c0-.563.123-.96.37-1.195s.676-.336 1.288-.308h0v-1.43c-1.078-.057-1.886.155-2.425.637s-.808 1.205-.808 2.168h0v.258h-1.027v1.403h1.027v6.484h1.575zm3.7-9.246c.3 0 .546-.086.733-.258a.87.87 0 0 0 .281-.673c0-.277-.094-.506-.28-.687s-.432-.272-.733-.272-.543.09-.726.272-.274.4-.274.687a.88.88 0 0 0 .274.673c.183.172.425.258.726.258zm.78 9.246v-7.886h-1.562v7.886h1.562zm4.918.1c.685 0 1.27-.177 1.753-.53a2.76 2.76 0 0 0 1.014-1.403h0v1.832h1.575v-10.592h-1.575v4.537a2.76 2.76 0 0 0-1.014-1.403c-.484-.353-1.068-.53-1.753-.53-.658 0-1.244.162-1.76.487s-.92.792-1.212 1.403-.438 1.326-.438 2.147c0 .83.146 1.55.438 2.16s.696 1.078 1.212 1.403 1.103.487 1.76.487zm.48-1.446c-.694 0-1.25-.23-1.664-.694s-.623-1.1-.623-1.91.208-1.448.623-1.91.97-.694 1.664-.694c.438 0 .83.107 1.178.322s.62.52.822.916.3.852.3 1.367c0 .525-.1.983-.3 1.374s-.475.694-.822.91-.74.322-1.178.322zm9.096 1.446c.63 0 1.2-.122 1.712-.365a3.28 3.28 0 0 0 1.247-1.009 3.47 3.47 0 0 0 .63-1.474h0-1.67c-.082.458-.304.825-.664 1.102s-.8.415-1.322.415c-.594 0-1.09-.196-1.493-.587s-.616-.992-.644-1.803h5.808c.037-.2.055-.434.055-.7 0-.687-.148-1.3-.445-1.868s-.72-.997-1.274-1.317-1.2-.48-1.938-.48c-.73 0-1.377.162-1.938.487s-1.002.792-1.322 1.403-.48 1.326-.48 2.147c0 .83.16 1.55.48 2.16s.76 1.078 1.322 1.403 1.208.487 1.938.487zm2.082-4.466h-4.288c.037-.763.26-1.34.67-1.732s.922-.587 1.534-.587c.384 0 .737.083 1.062.25s.58.425.767.773.272.78.253 1.295h0zm4.644 4.365v-10.592h-1.562v10.592h1.562zm2.67-9.246c.3 0 .546-.086.733-.258a.87.87 0 0 0 .281-.673c0-.277-.094-.506-.28-.687s-.432-.272-.733-.272-.543.09-.726.272-.274.4-.274.687a.88.88 0 0 0 .274.673c.183.172.425.258.726.258zm.78 9.246v-7.886h-1.562v7.886h1.562zm5.685 0v-1.417h-.753c-.402 0-.683-.086-.842-.258s-.24-.482-.24-.93h0v-3.893h1.822v-1.388h-1.822v-1.96h-1.575v1.96h-1.082v1.388h1.082v3.865c0 .945.208 1.62.623 2.025s1.025.608 1.83.608h.96zm3.9 3.75l4.562-11.636h-1.74l-2.096 5.797-2.26-5.797h-1.753l3.178 7.7-1.63 3.936h1.74zm10.356 0v-5.582a2.76 2.76 0 0 0 1.014 1.403c.484.353 1.068.53 1.753.53.658 0 1.244-.162 1.76-.487s.92-.792 1.212-1.403.438-1.33.438-2.16c0-.82-.146-1.536-.438-2.147s-.696-1.078-1.212-1.403-1.103-.487-1.76-.487c-.685 0-1.27.177-1.753.53a2.76 2.76 0 0 0-1.014 1.403h0v-1.832h-1.562v11.636h1.562zm2.288-5.095c-.438 0-.83-.107-1.178-.322s-.62-.518-.822-.91-.3-.85-.3-1.374c0-.515.1-.97.3-1.367s.475-.7.822-.916.74-.322 1.178-.322c.694 0 1.25.234 1.67.7s.63 1.102.63 1.904c0 .81-.2 1.448-.63 1.91s-.977.694-1.67.694zm6.96 1.345v-3.993c0-.802.208-1.376.623-1.725s.966-.522 1.65-.522h.466v-1.775c-.62 0-1.17.15-1.644.45a2.99 2.99 0 0 0-1.096 1.224h0v-1.546h-1.562v7.886h1.562zm7.356.1c.73 0 1.388-.162 1.973-.487s1.04-.792 1.37-1.403.493-1.33.493-2.16c0-.82-.164-1.536-.493-2.147s-.785-1.078-1.37-1.403-1.242-.487-1.973-.487-1.386.162-1.966.487-1.037.792-1.37 1.403-.5 1.326-.5 2.147.167 1.54.5 2.154.8 1.085 1.37 1.4 1.235.487 1.966.487zm0-1.43c-.402 0-.772-.095-1.1-.286s-.6-.482-.815-.873-.308-.878-.308-1.46c0-.573.103-1.057.308-1.453s.477-.69.815-.88.708-.286 1.1-.286.772.095 1.1.286.6.484.815.88.308.88.308 1.453c0 .582-.103 1.07-.308 1.46s-.477.682-.815.873-.708.286-1.1.286zm9.137 1.33v-1.417h-.753c-.402 0-.683-.086-.842-.258s-.24-.482-.24-.93h0v-3.893h1.822v-1.388h-1.822v-1.96h-1.575v1.96h-1.082v1.388h1.082v3.865c0 .945.208 1.62.623 2.025s1.025.608 1.83.608h.96zm4.918.1c.73 0 1.388-.162 1.973-.487s1.04-.792 1.37-1.403.493-1.33.493-2.16c0-.82-.164-1.536-.493-2.147s-.785-1.078-1.37-1.403-1.242-.487-1.973-.487-1.386.162-1.966.487-1.037.792-1.37 1.403-.5 1.326-.5 2.147.167 1.54.5 2.154.8 1.085 1.37 1.4 1.235.487 1.966.487zm0-1.43c-.402 0-.772-.095-1.1-.286s-.6-.482-.815-.873-.308-.878-.308-1.46c0-.573.103-1.057.308-1.453s.477-.69.815-.88.708-.286 1.1-.286.772.095 1.1.286.6.484.815.88.308.88.308 1.453c0 .582-.103 1.07-.308 1.46s-.477.682-.815.873-.708.286-1.1.286zm9.137 1.33v-1.417h-.753c-.402 0-.683-.086-.842-.258s-.24-.482-.24-.93h0v-3.893h1.822v-1.388h-1.822v-1.96h-1.575v1.96h-1.082v1.388h1.082v3.865c0 .945.208 1.62.623 2.025s1.025.608 1.83.608h.96zm3.9 3.75l4.562-11.636h-1.74l-2.096 5.797-2.26-5.797h-1.753l3.178 7.7-1.63 3.936h1.74zm7.15 0v-5.582a2.76 2.76 0 0 0 1.014 1.403c.484.353 1.068.53 1.753.53.658 0 1.244-.162 1.76-.487s.92-.792 1.212-1.403.438-1.33.438-2.16c0-.82-.146-1.536-.438-2.147s-.696-1.078-1.212-1.403-1.103-.487-1.76-.487c-.685 0-1.27.177-1.753.53a2.76 2.76 0 0 0-1.014 1.403h0v-1.832h-1.562v11.636h1.562zm2.288-5.095c-.438 0-.83-.107-1.178-.322s-.62-.518-.822-.91-.3-.85-.3-1.374c0-.515.1-.97.3-1.367s.475-.7.822-.916.74-.322 1.178-.322c.694 0 1.25.234 1.67.7s.63 1.102.63 1.904c0 .81-.2 1.448-.63 1.91s-.977.694-1.67.694zm8.753 1.446c.63 0 1.2-.122 1.712-.365a3.28 3.28 0 0 0 1.247-1.009 3.47 3.47 0 0 0 .63-1.474h0-1.67c-.082.458-.304.825-.664 1.102s-.8.415-1.322.415c-.594 0-1.09-.196-1.493-.587s-.616-.992-.644-1.803h5.808c.037-.2.055-.434.055-.7 0-.687-.148-1.3-.445-1.868s-.72-.997-1.274-1.317-1.2-.48-1.938-.48c-.73 0-1.377.162-1.938.487s-1.002.792-1.322 1.403-.48 1.326-.48 2.147c0 .83.16 1.55.48 2.16s.76 1.078 1.322 1.403 1.208.487 1.938.487zm2.082-4.466h-4.288c.037-.763.26-1.34.67-1.732s.922-.587 1.534-.587c.384 0 .737.083 1.062.25s.58.425.767.773.272.78.253 1.295h0z" class="B"/><g class="C"><path d="M149.445 653.18v-12.065h-6.396v-8.093h-10.04v2.168h7.808v2.167H96.944v-2.167h33.836v-2.168H90.25v8.093h-4.164V631h-6.32c-3.485 0-6.32 2.755-6.32 6.142v47.7c0 3.387 2.835 6.142 6.32 6.142h69.68V655.35h-2.23v33.456H79.766c-2.255 0-4.1-1.783-4.1-3.974a3.89 3.89 0 0 1 1.197-2.81c.772-.75 1.8-1.164 2.892-1.164h6.32v-9.032h-2.23v6.864h-4.1c-1.515 0-2.95.514-4.1 1.458v-43.006c0-2.19 1.835-3.974 4.1-3.974h4.1v36.49h2.23v-26.373h4.164v23.338h2.23v-27.096h48.337v35.405H92.482V668.8h-2.23v8.3h52.798v-33.816h4.164v9.897h2.23zM94.713 637.36h-2.23v-2.167h2.23v2.167z" class="B"/><path d="M116.65 666.984c-2.347 0-4.63-.803-6.43-2.26l-1.43 1.664c2.2 1.783 5 2.765 7.858 2.765 6.766 0 12.27-5.348 12.27-11.922 0-2.746-.984-5.426-2.77-7.547l-1.726 1.373a9.61 9.61 0 0 1 2.266 6.174c0 5.38-4.503 9.755-10.04 9.755h0zm-12.27-9.754c0 2.705.958 5.354 2.698 7.46l1.74-1.357a9.48 9.48 0 0 1-2.206-6.102c0-5.38 4.504-9.755 10.04-9.755 2.312 0 4.57.782 6.354 2.202L124.42 648c-2.183-1.736-4.94-2.692-7.767-2.692-6.766 0-12.27 5.348-12.27 11.922h0zm1.86 22.182h11.9v2.167h-11.9zm-8.924 0h2.23v2.167h-2.23zm4.46 0h2.23v2.167h-2.23zm-4.46 4.335h8.924v2.167h-8.924zm-4.462 0h2.23v2.167h-2.23zm45.734-36.49v-5.42h-5.577v2.167h3.346v3.25zm-17.52 5.592l-6.648 6.46-2.483-2.413-1.577 1.533 4.06 3.946 8.225-7.992z"/></g><path d="M6.336 668v-19.73H.54V668h5.797zm8.363 0v-8.764c0-1.312.684-2.133 1.818-2.133 1.203 0 1.818.725 1.818 2.16V668h5.318v-8.764c0-1.326.67-2.133 1.805-2.133 1.217 0 1.832.71 1.832 2.146V668h5.605v-10.2c0-3.076-2.023-5.195-4.963-5.195-2.297 0-4.13 1.326-4.635 3.322h-.11c-.37-2.12-1.9-3.322-4.197-3.322-2.064 0-3.76 1.313-4.32 3.35h-.11v-3.05h-5.47V668H14.7zm26.19 4.826v-7.437H41c.697 1.764 2.338 2.83 4.566 2.83 3.746 0 5.838-2.79 5.838-7.766 0-5-2.105-7.766-5.906-7.766-2.174 0-3.773 1.094-4.498 2.94h-.096v-2.72h-5.62v19.92h5.605zm2.38-8.928c-1.477 0-2.393-1.312-2.406-3.432.014-2.105.943-3.46 2.406-3.46s2.393 1.354 2.393 3.445c0 2.105-.916 3.445-2.393 3.445zM59.138 668v-19.73h-5.605V668h5.605zm10.017.383c4.143 0 6.986-2.023 7.45-5.277h-5c-.328.902-1.244 1.436-2.38 1.436-1.504 0-2.57-1.066-2.57-2.543v-.355h10.008v-1.518c0-4.62-3.02-7.602-7.697-7.602-4.744 0-7.71 3.076-7.71 8.012 0 4.908 2.94 7.848 7.89 7.848zm2.297-9.775H66.75c.11-1.3 1.08-2.23 2.352-2.23 1.313 0 2.256.875 2.352 2.23zM84.327 668v-8.764c0-1.312.684-2.133 1.818-2.133 1.203 0 1.818.725 1.818 2.16V668h5.318v-8.764c0-1.326.67-2.133 1.805-2.133 1.217 0 1.832.71 1.832 2.146V668h5.605v-10.2c0-3.076-2.023-5.195-4.963-5.195-2.297 0-4.13 1.326-4.635 3.322h-.11c-.37-2.12-1.9-3.322-4.197-3.322-2.064 0-3.76 1.313-4.32 3.35h-.11v-3.05h-5.47V668h5.605zm28.092.383c4.143 0 6.986-2.023 7.45-5.277h-5c-.328.902-1.244 1.436-2.38 1.436-1.504 0-2.57-1.066-2.57-2.543v-.355h10.008v-1.518c0-4.62-3.02-7.602-7.697-7.602-4.744 0-7.71 3.076-7.71 8.012 0 4.908 2.94 7.848 7.89 7.848zm2.297-9.775h-4.703c.11-1.3 1.08-2.23 2.352-2.23 1.313 0 2.256.875 2.352 2.23zM127.59 668v-8.436c0-1.408.807-2.434 2.133-2.434 1.408 0 2.12.93 2.12 2.447V668h5.605v-9.666c0-3.623-1.86-5.73-5.25-5.73-2.297 0-3.87 1.148-4.635 3.268h-.11v-2.967h-5.47V668h5.605zm19.533 0c1.066 0 1.777-.096 2.31-.205v-3.883c-.328.055-.533.068-.957.068-1.148 0-1.695-.492-1.695-1.436v-5.578h2.652v-4.06h-2.652v-3.31h-5.605v3.31h-1.996v4.06h1.996v6.822c0 2.98 1.682 4.21 5.947 4.21zm9.02.22c1.75 0 3.582-.766 4.375-2.242h.11V668h5.47v-10.322c0-3.062-2.803-5.154-6.986-5.154-4.402 0-7.137 2.037-7.273 5.264h5.004c.082-.766.82-1.395 1.97-1.395 1.053 0 1.818.547 1.818 1.56v.738l-3.31.205c-4.033.246-6.262 1.818-6.262 4.717 0 2.72 2.338 4.607 5.086 4.607zm2.092-3.746c-.984 0-1.654-.48-1.654-1.3 0-.738.602-1.244 1.668-1.326l2.38-.164v.984c0 1.107-1.148 1.805-2.393 1.805zM175.84 668c1.066 0 1.777-.096 2.31-.205v-3.883c-.328.055-.533.068-.957.068-1.148 0-1.695-.492-1.695-1.436v-5.578h2.652v-4.06h-2.652v-3.31h-5.605v3.31h-1.996v4.06h1.996v6.822c0 2.98 1.682 4.21 5.947 4.21zm7.27-16.53c1.5 0 2.666-1.19 2.666-2.61s-1.176-2.61-2.666-2.61-2.666 1.19-2.666 2.61 1.176 2.61 2.666 2.61zm2.83 16.53v-15.094h-5.605V668h5.605zm10 .383c4.936 0 7.943-2.83 7.943-7.943 0-5-3.076-7.916-7.943-7.916-4.84 0-7.93 2.953-7.93 7.916 0 5.1 3.008 7.943 7.93 7.943zm0-4.006c-1.408 0-2.242-1.395-2.242-3.924 0-2.46.875-3.924 2.242-3.924 1.38 0 2.256 1.463 2.256 3.924 0 2.53-.86 3.924-2.256 3.924zm15.61 3.623v-8.436c0-1.408.807-2.434 2.133-2.434 1.408 0 2.12.93 2.12 2.447V668h5.605v-9.666c0-3.623-1.86-5.73-5.25-5.73-2.297 0-3.87 1.148-4.635 3.268h-.11v-2.967h-5.47V668h5.605z" class="B"/></g><rect x="69.445" y="700" width="83" height="20" rx="10" class="C D"/><g class="E"><path d="M79.743 715.126c1.9 0 3.122-1.05 3.556-2.562h-1.722c-.294.798-.882 1.218-1.834 1.218-1.288 0-2.142-.952-2.142-2.646 0-1.68.854-2.632 2.142-2.632.952 0 1.568.476 1.834 1.218H83.3c-.434-1.624-1.666-2.562-3.556-2.562-2.212 0-3.78 1.568-3.78 3.976 0 2.422 1.568 4 3.78 4zm8.498 0c2.212 0 4.004-1.568 4.004-4s-1.736-3.976-3.934-3.976-3.934 1.554-3.934 3.976 1.666 4 3.864 4zm0-1.386c-1.204 0-2.24-.854-2.24-2.604s1.078-2.6 2.282-2.6c1.2 0 2.324.84 2.324 2.6s-1.176 2.604-2.366 2.604zm8.694 1.386c1.26 0 2.184-.588 2.674-1.288V715h1.6v-10.36h-1.6v3.724c-.588-.728-1.652-1.204-2.66-1.204-2.044 0-3.654 1.568-3.654 3.948s1.6 4.018 3.64 4.018zm.336-1.386c-1.2 0-2.338-.966-2.338-2.632s1.148-2.562 2.338-2.562c1.204 0 2.338.938 2.338 2.6 0 1.666-1.134 2.604-2.338 2.604zm9.366 1.386c1.9 0 3.108-1.078 3.542-2.422h-1.722c-.294.602-.84 1.078-1.82 1.078-1.176 0-2.086-.77-2.198-2.044h5.894c.042-.266.056-.518.056-.784 0-2.268-1.554-3.794-3.752-3.794-2.282 0-3.85 1.554-3.85 3.976s1.638 4 3.85 4zm2.086-4.676h-4.27c.168-1.218 1.036-1.946 2.114-1.946 1.2 0 2.128.756 2.156 1.946zm7.518 4.676c2.03 0 3.626-1.638 3.626-4.018s-1.582-3.948-3.626-3.948c-1.218 0-2.184.574-2.688 1.274v-3.794h-1.596V715h1.596v-1.12c.504.672 1.414 1.246 2.688 1.246zm-.35-1.386c-1.2 0-2.338-.938-2.338-2.604 0-1.652 1.148-2.6 2.338-2.6 1.204 0 2.352.896 2.352 2.562s-1.148 2.632-2.352 2.632zm8.638 1.386c1.288 0 2.212-.616 2.702-1.274V715h1.6v-7.714h-1.6v1.12c-.476-.63-1.372-1.246-2.674-1.246-2.03 0-3.64 1.568-3.64 3.948s1.6 4.018 3.612 4.018zm.364-1.386c-1.2 0-2.338-.966-2.338-2.632s1.148-2.562 2.338-2.562c1.204 0 2.338.938 2.338 2.6 0 1.666-1.134 2.604-2.338 2.604zm8.848 1.386c1.82 0 2.954-.98 2.954-2.282-.084-2.786-4.438-1.918-4.438-3.472 0-.518.448-.868 1.302-.868.868 0 1.386.462 1.442 1.134h1.596c-.084-1.54-1.232-2.478-2.982-2.478-1.82 0-2.968.994-2.968 2.226 0 2.828 4.48 1.96 4.48 3.472 0 .532-.5.924-1.414.924-.882 0-1.484-.518-1.54-1.148h-1.652c.07 1.4 1.372 2.492 3.22 2.492zm7.994 0c1.9 0 3.108-1.078 3.542-2.422h-1.722c-.294.602-.84 1.078-1.82 1.078-1.176 0-2.086-.77-2.198-2.044h5.894c.042-.266.056-.518.056-.784 0-2.268-1.554-3.794-3.752-3.794-2.282 0-3.85 1.554-3.85 3.976s1.638 4 3.85 4zm2.086-4.676h-4.27c.168-1.218 1.036-1.946 2.114-1.946 1.2 0 2.128.756 2.156 1.946z" class="B"/><g class="C"><path d="M115.528 919.696c1.702 0 3.088-1.386 3.088-3.088s-1.386-3.088-3.088-3.088-3.088 1.386-3.088 3.088 1.386 3.088 3.088 3.088zm0-4.117a1.03 1.03 0 0 1 1.029 1.029 1.03 1.03 0 0 1-1.029 1.029 1.03 1.03 0 0 1-1.029-1.029 1.03 1.03 0 0 1 1.029-1.029z" class="B"/><path d="M105.235 917.637h2.058v2.058h-2.058zm4.117-6.175h2.058v2.058h-2.058z"/><path d="M101.12 907.345a4.12 4.12 0 0 0-4.117 4.117 4.12 4.12 0 0 0 4.117 4.117 4.12 4.12 0 0 0 4.117-4.117 4.12 4.12 0 0 0-4.117-4.117zm0 6.175a2.06 2.06 0 0 1-2.058-2.058 2.06 2.06 0 0 1 2.058-2.058 2.06 2.06 0 0 1 2.058 2.058 2.06 2.06 0 0 1-2.058 2.058z" class="B"/><path d="M105.235 860h2.058v2.058h-2.058zm6.175 3.088h2.058v2.058H111.4zm-2.058 5.146h2.058v2.058h-2.058zm-2.058 7.206v6.175c0 1.702 1.386 3.088 3.088 3.088s3.088-1.386 3.088-3.088v-3.088h-2.058v3.088a1.03 1.03 0 0 1-1.029 1.029 1.03 1.03 0 0 1-1.029-1.029v-6.175h-2.058z"/><path d="M140.23 882.643h-12.35c-1.702 0-3.088 1.386-3.088 3.088 0 1.342.86 2.487 2.058 2.912v10.292c-1.957-3.805-5.197-6.92-9.263-8.64v-18.12c1.198-.425 2.058-1.57 2.058-2.912 0-1.702-1.386-3.088-3.088-3.088H114.5v2.058h2.058a1.03 1.03 0 0 1 1.029 1.029 1.03 1.03 0 0 1-1.029 1.029h-3.088v2.058h2.058V891a1.03 1.03 0 0 0 .665.963c6.374 2.4 10.657 8.594 10.657 15.4 0 1-.1 2.005-.292 2.984-6.176-.723-10.105-2.287-14.246-3.94-4.643-1.852-9.442-3.763-17.512-4.327 1.538-4.55 5.016-8.312 9.77-10.108a1.03 1.03 0 0 0 .665-.963v-18.64h2.058V870.3h-3.088a1.03 1.03 0 0 1-1.029-1.029 1.03 1.03 0 0 1 1.029-1.029h4.117v-2.058h-4.117c-1.702 0-3.088 1.386-3.088 3.088 0 1.342.86 2.487 2.058 2.912v18.12a18.42 18.42 0 0 0-9.263 8.586v-10.237c1.198-.425 2.058-1.57 2.058-2.912 0-1.702-1.386-3.088-3.088-3.088h-12.35c-1.702 0-3.088 1.386-3.088 3.088 0 1.342.86 2.487 2.058 2.912v30.024a7.14 7.14 0 0 0 7.201 7.204l.224-.003c3.852-.117 6.985-3.463 6.985-7.46v-2.58c2.793 5.353 8.17 9.24 14.346 9.927.724.08 1.44.12 2.154.12a18.31 18.31 0 0 0 12.317-4.718c.78-.697 1.472-1.468 2.115-2.276l.2-.257a17.28 17.28 0 0 0 .66-.924 19.59 19.59 0 0 0 .356-.547c.18-.287.355-.574.518-.87.1-.164.175-.332.26-.5v2.626c0 3.998 3.133 7.344 6.984 7.46l.224.003c1.885 0 3.657-.717 5.014-2.034a7.15 7.15 0 0 0 2.188-5.17v-30.024c1.198-.425 2.058-1.57 2.058-2.912 0-1.702-1.386-3.088-3.088-3.088zM80.534 884.7h12.35a1.03 1.03 0 0 1 1.029 1.029 1.03 1.03 0 0 1-1.029 1.029h-3.088v2.058h2.058v11.9c-2.654.564-4.456 1.626-6.196 2.663-1.3.767-2.528 1.5-4.096 2.02v-16.58h6.175v-2.058h-7.205a1.03 1.03 0 0 1-1.029-1.029 1.03 1.03 0 0 1 1.029-1.029zm11.322 33.706c0 2.896-2.237 5.32-4.988 5.403a5.09 5.09 0 0 1-3.742-1.45 5.11 5.11 0 0 1-1.562-3.694V907.55c2.106-.6 3.65-1.52 5.15-2.413 1.56-.927 3.046-1.813 5.142-2.327v15.596zm2.087-10.096a16.57 16.57 0 0 1 .31-4.226c8 .5 12.514 2.306 17.295 4.215 4.034 1.6 8.197 3.272 14.513 4.045-.097.307-.217.603-.33.9l-.214.556c-.123.286-.26.564-.397.84-.1.184-.182.37-.28.55-.156.287-.32.57-.493.845-.086.138-.177.274-.266.4-.207.3-.416.617-.642.9-.018.023-.036.043-.054.066a16.6 16.6 0 0 1-10.481 6.185l-.17.025a18.11 18.11 0 0 1-1.17.128c-.2.014-.422.02-.633.028-.283.01-.565.022-.85.018a17.39 17.39 0 0 1-1.592-.097c-7.325-.817-13.383-6.693-14.405-13.975-.067-.475-.112-.95-.14-1.42zm45.258 10.355a5.11 5.11 0 0 1-1.563 3.694c-1.007.978-2.338 1.5-3.742 1.45-2.75-.082-4.987-2.506-4.987-5.403v-15.595c2.097.514 3.583 1.4 5.142 2.327 1.5.894 3.044 1.814 5.15 2.413v11.115zm-6.175-31.906v2.058h6.175v16.573c-1.568-.522-2.807-1.253-4.096-2.02-1.74-1.037-3.543-2.1-6.196-2.663v-11.9h2.058v-2.058h-3.088a1.03 1.03 0 0 1-1.029-1.029 1.03 1.03 0 0 1 1.029-1.029h12.35a1.03 1.03 0 0 1 1.029 1.029 1.03 1.03 0 0 1-1.029 1.029h-7.205zm-1.03 31.907c0 1.702 1.386 3.088 3.088 3.088s3.088-1.386 3.088-3.088-1.386-3.088-3.088-3.088-3.088 1.386-3.088 3.088zm4.117 0a1.03 1.03 0 0 1-1.029 1.029 1.03 1.03 0 0 1-1.029-1.029 1.03 1.03 0 0 1 1.029-1.029 1.03 1.03 0 0 1 1.029 1.029z" class="B"/><path d="M133.025 869.263h2.058v2.058h-2.058zm5.145 5.147h2.058v2.058h-2.058zm-7.204 3.087h2.058v2.058h-2.058zm2.06 30.363c0 .283-.23.515-.515.515s-.515-.232-.515-.515v-.515h-2.058v.515c0 1.42 1.155 2.573 2.573 2.573s2.573-1.154 2.573-2.573v-.515h-2.058v.515z"/><path d="M85.68 915.58c-1.702 0-3.088 1.386-3.088 3.088s1.386 3.088 3.088 3.088 3.088-1.386 3.088-3.088-1.386-3.088-3.088-3.088zm0 4.117a1.03 1.03 0 0 1-1.029-1.029 1.03 1.03 0 0 1 1.029-1.029 1.03 1.03 0 0 1 1.029 1.029 1.03 1.03 0 0 1-1.029 1.029z" class="B"/><path d="M86.7 869.263h2.058v2.058H86.7zm-4.118 6.177h2.058v2.058h-2.058zm6.176 3.086h2.058v2.058h-2.058zm-3.088 28.82v.515c0 1.42 1.155 2.573 2.573 2.573s2.573-1.154 2.573-2.573v-.515h-2.058v.515c0 .283-.23.515-.515.515s-.515-.232-.515-.515v-.515H85.68z"/></g></g><rect x="63.445" y="939" width="95" height="20" rx="10" class="C D"/><g class="E"><path d="M73.3 954v-6.412h1.428v-1.302H73.3v-.546c0-.882.336-1.218 1.316-1.218v-1.33c-2.016 0-2.926.77-2.926 2.548v.546h-.9v1.302h.9V954h1.6zm3.654-8.736c.56 0 1.008-.448 1.008-1.022s-.448-1.022-1.008-1.022a1.022 1.022 0 1 0 0 2.044zM77.74 954v-7.714h-1.596V954h1.596zm2.856 0l1.568-2.618L83.83 954h1.806l-2.492-3.906 2.492-3.808H83.97l-1.568 2.618-1.666-2.618H78.93l2.492 3.92L78.93 954h1.666zm9.548.126c1.9 0 3.108-1.078 3.542-2.422h-1.722c-.294.602-.84 1.078-1.82 1.078-1.176 0-2.086-.77-2.198-2.044h5.894c.042-.266.056-.518.056-.784 0-2.268-1.554-3.794-3.752-3.794-2.282 0-3.85 1.554-3.85 3.976s1.638 4 3.85 4zm2.086-4.676h-4.27c.168-1.218 1.036-1.946 2.114-1.946 1.2 0 2.128.756 2.156 1.946zm6.342 4.676c1.26 0 2.184-.588 2.674-1.288V954h1.6v-10.36h-1.6v3.724c-.588-.728-1.652-1.204-2.66-1.204-2.044 0-3.654 1.568-3.654 3.948s1.6 4.018 3.64 4.018zm.336-1.386c-1.2 0-2.338-.966-2.338-2.632s1.148-2.562 2.338-2.562c1.204 0 2.338.938 2.338 2.6s-1.134 2.604-2.338 2.604zm10.5-7.476c.56 0 1.008-.448 1.008-1.022s-.448-1.022-1.008-1.022a1.022 1.022 0 1 0 0 2.044zm.784 8.736v-7.714h-1.596V954h1.596zm4.9.126c1.82 0 2.954-.98 2.954-2.282-.084-2.786-4.438-1.918-4.438-3.472 0-.518.448-.868 1.302-.868.868 0 1.386.462 1.442 1.134h1.596c-.084-1.54-1.232-2.478-2.982-2.478-1.82 0-2.968.994-2.968 2.226 0 2.828 4.48 1.96 4.48 3.472 0 .532-.5.924-1.414.924-.882 0-1.484-.518-1.54-1.148h-1.652c.07 1.4 1.372 2.492 3.22 2.492zm7.476 0c1.82 0 2.954-.98 2.954-2.282-.084-2.786-4.438-1.918-4.438-3.472 0-.518.448-.868 1.302-.868.868 0 1.386.462 1.442 1.134h1.596c-.084-1.54-1.232-2.478-2.982-2.478-1.82 0-2.968.994-2.968 2.226 0 2.828 4.48 1.96 4.48 3.472 0 .532-.5.924-1.414.924-.882 0-1.484-.518-1.54-1.148h-1.652c.07 1.4 1.372 2.492 3.22 2.492zm7.784-.014c.9 0 1.778-.378 2.282-1.036V954h1.596v-7.714h-1.596v4.298c0 1.414-.77 2.142-1.946 2.142-1.162 0-1.932-.728-1.932-2.142v-4.298h-1.582v4.536c0 2.156 1.372 3.3 3.178 3.3zm9.296.014c1.9 0 3.108-1.078 3.542-2.422h-1.722c-.294.602-.84 1.078-1.82 1.078-1.176 0-2.086-.77-2.198-2.044h5.894c.042-.266.056-.518.056-.784 0-2.268-1.554-3.794-3.752-3.794-2.282 0-3.85 1.554-3.85 3.976s1.638 4 3.85 4zm2.086-4.676h-4.27c.168-1.218 1.036-1.946 2.114-1.946 1.2 0 2.128.756 2.156 1.946zm6.034 4.676c1.82 0 2.954-.98 2.954-2.282-.084-2.786-4.438-1.918-4.438-3.472 0-.518.448-.868 1.302-.868.868 0 1.386.462 1.442 1.134h1.596c-.084-1.54-1.232-2.478-2.982-2.478-1.82 0-2.968.994-2.968 2.226 0 2.828 4.48 1.96 4.48 3.472 0 .532-.5.924-1.414.924-.882 0-1.484-.518-1.54-1.148h-1.652c.07 1.4 1.372 2.492 3.22 2.492zM21.76 890.464l-3.624-4.56c.992-.8 1.768-1.788 2.328-2.964s.84-2.468.84-3.876c0-1.664-.38-3.16-1.14-4.488a8.14 8.14 0 0 0-3.12-3.108c-1.32-.744-2.78-1.116-4.38-1.116-1.584 0-3.04.372-4.368 1.116s-2.376 1.78-3.144 3.108S4 877.4 4 879.064s.384 3.16 1.152 4.488 1.816 2.364 3.144 3.108 2.784 1.116 4.368 1.116a8.33 8.33 0 0 0 1.584-.144l1.896 2.832h5.616zm-9.096-7.08c-1.2 0-2.144-.392-2.832-1.176S8.8 880.376 8.8 879.064c0-1.344.344-2.404 1.032-3.18s1.632-1.164 2.832-1.164 2.14.388 2.82 1.164 1.02 1.836 1.02 3.18c0 1.312-.344 2.36-1.032 3.144s-1.624 1.176-2.808 1.176zm15 4.344c.992 0 1.856-.216 2.592-.648s1.296-1.008 1.68-1.728v2.256h4.704v-13.464h-4.704v7.128c0 .816-.208 1.448-.624 1.896s-.976.672-1.68.672c-.688 0-1.236-.22-1.644-.66s-.612-1.044-.612-1.812v-7.224h-4.704v7.8c0 1.792.444 3.204 1.332 4.236s2.108 1.548 3.66 1.548zm15.984.048c.944 0 1.764-.204 2.46-.612a3.77 3.77 0 0 0 1.548-1.692v2.136h4.704v-13.464h-4.704v2.136a3.77 3.77 0 0 0-1.548-1.692c-.696-.408-1.516-.612-2.46-.612-1.072 0-2.04.276-2.904.828s-1.544 1.348-2.04 2.388-.744 2.264-.744 3.672.248 2.636.744 3.684 1.176 1.848 2.04 2.4 1.832.828 2.904.828zm1.56-4.128c-.736 0-1.332-.244-1.788-.732s-.684-1.172-.684-2.052c0-.864.228-1.54.684-2.028s1.052-.732 1.788-.732c.704 0 1.288.248 1.752.744s.696 1.168.696 2.016c0 .864-.232 1.544-.696 2.04s-1.048.744-1.752.744zm13.872 3.96v-17.76h-4.728v17.76h4.728zm4.416-14.832c.816 0 1.476-.224 1.98-.672s.756-1.008.756-1.68c0-.704-.248-1.284-.744-1.74s-1.16-.684-1.992-.684-1.504.228-2.016.684-.768 1.036-.768 1.74a2.14 2.14 0 0 0 .768 1.68c.512.448 1.184.672 2.016.672zm2.328 14.832v-13.464h-4.728v13.464h4.728zm10.032 0v-4.032h-1.272c-.432 0-.74-.088-.924-.264s-.276-.472-.276-.888v-4.344h2.424v-3.936h-2.424v-3.264h-4.728v3.264h-1.728v3.936h1.728v4.248c0 1.888.464 3.24 1.392 4.056s2.216 1.224 3.864 1.224h1.944zm7.632 6.432l8.52-19.896h-5.232l-2.664 7.536-2.88-7.536h-5.256l5.616 12.888-3.288 7.008h5.184zm16.656-6.432l.936-2.832h6.024l.936 2.832h4.992l-6.192-16.92h-5.448l-6.216 16.92h4.968zm5.784-6.384h-3.672l1.848-5.52 1.824 5.52zm13.992 6.552c1.12 0 2.092-.172 2.916-.516s1.452-.82 1.884-1.428.648-1.304.648-2.088c0-.976-.252-1.752-.756-2.328s-1.096-.992-1.776-1.248-1.54-.496-2.58-.72c-.896-.208-1.54-.396-1.932-.564s-.588-.42-.588-.756c0-.272.092-.484.276-.636s.452-.228.804-.228c.496 0 .916.12 1.26.36s.572.6.684 1.08h4.416c-.272-1.424-.936-2.568-1.992-3.432s-2.472-1.296-4.248-1.296c-1.744 0-3.088.384-4.032 1.152s-1.416 1.76-1.416 2.976c0 .976.244 1.74.732 2.292s1.06.952 1.716 1.2 1.496.476 2.52.684c.896.176 1.548.352 1.956.528s.612.456.612.84c0 .256-.096.464-.288.624s-.472.24-.84.24c-.544 0-.996-.12-1.356-.36s-.572-.608-.636-1.104h-4.536c.24 1.52.92 2.688 2.04 3.504s2.624 1.224 4.512 1.224zm13.008 0c1.12 0 2.092-.172 2.916-.516s1.452-.82 1.884-1.428.648-1.304.648-2.088c0-.976-.252-1.752-.756-2.328s-1.096-.992-1.776-1.248-1.54-.496-2.58-.72c-.896-.208-1.54-.396-1.932-.564s-.588-.42-.588-.756c0-.272.092-.484.276-.636s.452-.228.804-.228c.496 0 .916.12 1.26.36s.572.6.684 1.08h4.416c-.272-1.424-.936-2.568-1.992-3.432s-2.472-1.296-4.248-1.296c-1.744 0-3.088.384-4.032 1.152s-1.416 1.76-1.416 2.976c0 .976.244 1.74.732 2.292s1.06.952 1.716 1.2 1.496.476 2.52.684c.896.176 1.548.352 1.956.528s.612.456.612.84c0 .256-.096.464-.288.624s-.472.24-.84.24c-.544 0-.996-.12-1.356-.36s-.572-.608-.636-1.104h-4.536c.24 1.52.92 2.688 2.04 3.504s2.624 1.224 4.512 1.224zm11.76-.048c.992 0 1.856-.216 2.592-.648s1.296-1.008 1.68-1.728v2.256h4.704v-13.464h-4.704v7.128c0 .816-.208 1.448-.624 1.896s-.976.672-1.68.672c-.688 0-1.236-.22-1.644-.66s-.612-1.044-.612-1.812v-7.224h-4.704v7.8c0 1.792.444 3.204 1.332 4.236s2.108 1.548 3.66 1.548zm15.72-.12V881.8c0-1.008.264-1.716.792-2.124s1.32-.612 2.376-.612h1.368v-5.04c-.896 0-1.744.24-2.544.72s-1.464 1.12-1.992 1.92v-2.52h-4.728v13.464h4.728zm10.488.168c.944 0 1.764-.204 2.46-.612a3.77 3.77 0 0 0 1.548-1.692v2.136h4.704v-13.464h-4.704v2.136a3.77 3.77 0 0 0-1.548-1.692c-.696-.408-1.516-.612-2.46-.612-1.072 0-2.04.276-2.904.828s-1.544 1.348-2.04 2.388-.744 2.264-.744 3.672.248 2.636.744 3.684 1.176 1.848 2.04 2.4 1.832.828 2.904.828zm1.56-4.128c-.736 0-1.332-.244-1.788-.732s-.684-1.172-.684-2.052c0-.864.228-1.54.684-2.028s1.052-.732 1.788-.732c.704 0 1.288.248 1.752.744s.696 1.168.696 2.016c0 .864-.232 1.544-.696 2.04s-1.048.744-1.752.744zm13.872 3.96v-7.152c0-.8.208-1.428.624-1.884s.976-.684 1.68-.684c.688 0 1.236.22 1.644.66s.612 1.052.612 1.836v7.224h4.68v-7.824c0-1.776-.44-3.18-1.32-4.212s-2.096-1.548-3.648-1.548c-.992 0-1.856.216-2.592.648s-1.296 1.008-1.68 1.728v-2.256H181.6v13.464h4.728zm17.304.168c1.744 0 3.208-.488 4.392-1.464s1.928-2.32 2.232-4.032h-4.992c-.112.464-.316.82-.612 1.068s-.676.372-1.14.372c-.576 0-1.044-.24-1.404-.72s-.54-1.192-.54-2.136c0-.928.18-1.636.54-2.124s.828-.732 1.404-.732c.464 0 .844.124 1.14.372s.5.604.612 1.068h4.992c-.304-1.712-1.048-3.052-2.232-4.02s-2.648-1.452-4.392-1.452c-1.328 0-2.512.276-3.552.828s-1.848 1.348-2.424 2.388-.864 2.264-.864 3.672.288 2.636.864 3.684 1.38 1.848 2.412 2.4 2.22.828 3.564.828zm14.064 0c1.104 0 2.12-.216 3.048-.648a6.31 6.31 0 0 0 2.304-1.788 5.71 5.71 0 0 0 1.176-2.556h-4.992a1.68 1.68 0 0 1-.624.888c-.304.224-.688.336-1.152.336-1.248 0-1.912-.76-1.992-2.28h8.904a5.66 5.66 0 0 0 .12-1.104c0-1.328-.284-2.496-.852-3.504a5.82 5.82 0 0 0-2.388-2.328c-1.024-.544-2.208-.816-3.552-.816-1.328 0-2.512.276-3.552.828s-1.848 1.348-2.424 2.388-.864 2.264-.864 3.672.288 2.636.864 3.684 1.38 1.848 2.412 2.4 2.22.828 3.564.828zm-2.208-8.016c.064-.688.292-1.208.684-1.56s.9-.528 1.524-.528c.576 0 1.056.176 1.44.528s.568.872.552 1.56h-4.2zm-93.08 41.016c.816 0 1.548-.136 2.196-.408s1.188-.648 1.62-1.128c.208-.208.352-.368.432-.48l1.464 1.848h4.704l-8.208-11.112-.492-.768a1.27 1.27 0 0 1-.132-.576c0-.24.076-.432.228-.576s.356-.216.612-.216c.592 0 .912.336.96 1.008.048.24.072.552.072.936h4.392c.048-.928-.064-1.8-.336-2.616-.736-2.16-2.464-3.24-5.184-3.24-1.088 0-2.02.196-2.796.588s-1.364.908-1.764 1.548-.6 1.32-.6 2.04c0 .752.192 1.528.576 2.328l.288.504c-1.072.24-1.948.804-2.628 1.692s-1.02 1.988-1.02 3.3c0 .992.216 1.892.648 2.7s1.072 1.448 1.92 1.92 1.864.708 3.048.708zm.024-3.912c-.464 0-.848-.14-1.152-.42s-.456-.652-.456-1.116.144-.828.432-1.092.664-.396 1.128-.396.856.14 1.176.42.48.644.48 1.092-.148.812-.444 1.092-.684.42-1.164.42zm23.184 3.744v-13.224h4.584v-3.768h-13.824v3.768h4.536v13.224h4.704zm11.688.168c1.104 0 2.12-.216 3.048-.648a6.31 6.31 0 0 0 2.304-1.788 5.71 5.71 0 0 0 1.176-2.556h-4.992a1.68 1.68 0 0 1-.624.888c-.304.224-.688.336-1.152.336-1.248 0-1.912-.76-1.992-2.28h8.904a5.66 5.66 0 0 0 .12-1.104c0-1.328-.284-2.496-.852-3.504a5.82 5.82 0 0 0-2.388-2.328c-1.024-.544-2.208-.816-3.552-.816-1.328 0-2.512.276-3.552.828s-1.848 1.348-2.424 2.388-.864 2.264-.864 3.672.288 2.636.864 3.684 1.38 1.848 2.412 2.4 2.22.828 3.564.828zm-2.208-8.016c.064-.688.292-1.208.684-1.56s.9-.528 1.524-.528c.576 0 1.056.176 1.44.528s.568.872.552 1.56h-4.2zm16.392 8.016c1.12 0 2.092-.172 2.916-.516s1.452-.82 1.884-1.428.648-1.304.648-2.088c0-.976-.252-1.752-.756-2.328s-1.096-.992-1.776-1.248-1.54-.496-2.58-.72c-.896-.208-1.54-.396-1.932-.564s-.588-.42-.588-.756c0-.272.092-.484.276-.636s.452-.228.804-.228c.496 0 .916.12 1.26.36s.572.6.684 1.08h4.416c-.272-1.424-.936-2.568-1.992-3.432s-2.472-1.296-4.248-1.296c-1.744 0-3.088.384-4.032 1.152s-1.416 1.76-1.416 2.976c0 .976.244 1.74.732 2.292s1.06.952 1.716 1.2 1.496.476 2.52.684c.896.176 1.548.352 1.956.528s.612.456.612.84c0 .256-.096.464-.288.624s-.472.24-.84.24c-.544 0-.996-.12-1.356-.36s-.572-.608-.636-1.104h-4.536c.24 1.52.92 2.688 2.04 3.504s2.624 1.224 4.512 1.224zm14.928-.168v-4.032h-1.272c-.432 0-.74-.088-.924-.264s-.276-.472-.276-.888v-4.344h2.424v-3.936h-2.424v-3.264h-4.728v3.264h-1.728v3.936h1.728v4.248c0 1.888.464 3.24 1.392 4.056s2.216 1.224 3.864 1.224h1.944zm3.96-14.832c.816 0 1.476-.224 1.98-.672s.756-1.008.756-1.68c0-.704-.248-1.284-.744-1.74s-1.16-.684-1.992-.684-1.504.228-2.016.684-.768 1.036-.768 1.74a2.14 2.14 0 0 0 .768 1.68c.512.448 1.184.672 2.016.672zm2.328 14.832v-13.464h-4.728v13.464h4.728zm6.744 0v-7.152c0-.8.208-1.428.624-1.884s.976-.684 1.68-.684c.688 0 1.236.22 1.644.66s.612 1.052.612 1.836v7.224h4.68v-7.824c0-1.776-.44-3.18-1.32-4.212s-2.096-1.548-3.648-1.548c-.992 0-1.856.216-2.592.648s-1.296 1.008-1.68 1.728v-2.256h-4.728v13.464h4.728zm18.096 6.6c1.536 0 2.808-.304 3.816-.912s1.752-1.42 2.232-2.436.72-2.148.72-3.396v-13.32h-4.704v2.136a3.77 3.77 0 0 0-1.548-1.692c-.696-.408-1.516-.612-2.46-.612-1.072 0-2.04.276-2.904.828s-1.544 1.348-2.04 2.388-.744 2.264-.744 3.672.248 2.636.744 3.684 1.176 1.848 2.04 2.4 1.832.828 2.904.828c.944 0 1.764-.204 2.46-.612a3.77 3.77 0 0 0 1.548-1.692v1.992c0 1.776-.8 2.664-2.4 2.664-.624 0-1.12-.12-1.488-.36s-.608-.584-.72-1.032h-4.632c.208 1.696.932 3.032 2.172 4.008s2.908 1.464 5.004 1.464zm-.384-10.56c-.736 0-1.332-.244-1.788-.732s-.684-1.172-.684-2.052c0-.864.228-1.54.684-2.028s1.052-.732 1.788-.732c.704 0 1.288.248 1.752.744s.696 1.168.696 2.016c0 .864-.232 1.544-.696 2.04s-1.048.744-1.752.744z" class="B"/><g class="C"><path d="M111.445 1055.4c-3.756 0-6.8 3.12-6.8 6.97s3.046 6.967 6.8 6.97 6.8-3.12 6.8-6.97-3.044-6.97-6.8-6.97zm0 11.618c-2.504 0-4.533-2.08-4.533-4.647s2.03-4.647 4.533-4.647 4.533 2.08 4.533 4.647-2.03 4.647-4.533 4.647zm12.15 5.404a14.6 14.6 0 0 0-1.181-1.087l.01-.034c3.736-11.818-.443-24.754-10.32-31.95a1.11 1.11 0 0 0-1.317 0c-9.878 7.196-14.057 20.132-10.32 31.95l.01.034c-6.232 5.13-7.23 14.465-2.226 20.854a14.72 14.72 0 0 0 1.06 1.211 1.12 1.12 0 0 0 1.159.281c.407-.14.703-.502.764-.938l.856-6.14c.08-.572.557-.996 1.12-.997h3.452l-.86 4.415a1.16 1.16 0 0 0 .884 1.37 1.08 1.08 0 0 0 .227.024h9.067c.626 0 1.133-.52 1.134-1.162a1.22 1.22 0 0 0-.023-.233l-.86-4.415h3.452c.564.001 1.04.426 1.12.998l.856 6.138c.06.436.357.8.764.938a1.12 1.12 0 0 0 1.159-.281c5.655-5.8 5.662-15.18.015-20.98zm-12.15-30.68a26.03 26.03 0 0 1 6.7 7.85h-13.4a26.03 26.03 0 0 1 6.7-7.85zm-8.235 41.543c-1.7.007-3.12 1.28-3.365 2.993l-.5 3.524c-1.514-2.344-2.213-5.142-1.982-7.943h-.001c.25-3.112 1.624-6.017 3.853-8.144l3 9.57H103.2zm5.084 5.8l.68-3.485h4.94l.68 3.485h-6.3zm-1.7-5.8l-3.98-12.695c-1.932-6.135-1.583-12.787.98-18.674h15.68a26.73 26.73 0 0 1 .98 18.674l-3.98 12.696h-9.68zm16.93 6.517l-.5-3.524c-.246-1.713-1.676-2.985-3.365-2.993h-1.013l3-9.57c2.228 2.128 3.6 5.033 3.85 8.144a12.73 12.73 0 0 1-1.982 7.943z" class="B"/><path d="M106.912 1093.658v3.788c-2.752-.86-5.743-.112-7.797 1.954-1.722-2.1-4.26-3.317-6.936-3.325a8.66 8.66 0 0 0-2.44.35c-.915-5.582-5.64-9.663-11.16-9.643h-1.133v2.324h1.133c4.633-.015 8.522 3.573 8.995 8.298a9.17 9.17 0 0 0-2.8 2.606 11.1 11.1 0 0 0-7.328-2.77v2.324c5.005.006 9.06 4.164 9.067 9.295h2.267a11.73 11.73 0 0 0-2.38-7.103 6.89 6.89 0 0 1 2.817-2.656c.01 0 .024 0 .035-.012a6.59 6.59 0 0 1 2.927-.685c2.197.01 4.253 1.106 5.525 2.942a8.85 8.85 0 0 0-.992 4.029h2.267a6.4 6.4 0 0 1 .944-3.357h-.007c.016-.022.037-.038.053-.062 1.532-2.307 4.45-3.166 6.943-2.042v3.044h2.267v-9.295h-2.267zm37.4-4.554h1.133v-2.324h-1.133c-5.52-.02-10.245 4.06-11.16 9.643a8.77 8.77 0 0 0-2.44-.35c-2.676.007-5.213 1.222-6.936 3.322-2.054-2.066-5.045-2.815-7.797-1.954v-3.788h-2.267v9.295h2.267v-3.04c2.492-1.124 5.4-.266 6.943 2.04.016.023.037.04.053.062h-.007c.618 1.005.945 2.17.944 3.358h2.267a8.85 8.85 0 0 0-.992-4.029c1.272-1.836 3.328-2.93 5.525-2.942a6.59 6.59 0 0 1 2.927.688c.01.006.024.007.035.012a6.89 6.89 0 0 1 2.823 2.654 11.73 11.73 0 0 0-2.386 7.103h2.267c.006-5.13 4.062-9.3 9.067-9.295v-2.324c-2.687-.001-5.285.982-7.328 2.77a9.17 9.17 0 0 0-2.8-2.606c.473-4.725 4.362-8.312 8.995-8.298zm-38.534-16.266h2.267v2.324h-2.267zm4.534 0h2.267v2.324h-2.267zm4.533 0h2.267v2.324h-2.267zm-24.933 27.884h2.267v2.324h-2.267zm-12.467-18.59h2.267v2.324h-2.267zm63.467 10.457h2.267v2.324h-2.267zm-9.067-4.648h2.267v2.324h-2.267zm-12.467 18.588h2.267v2.324h-2.267zm23.8-26.72h2.267v2.324h-2.267z"/></g><path d="M74.132 1084v-4.607h-7.738v-15.12h-5.797V1084h13.535zm6.736.22c1.75 0 3.582-.766 4.375-2.242h.11V1084h5.47v-10.322c0-3.062-2.803-5.154-6.986-5.154-4.402 0-7.137 2.037-7.273 5.264h5.004c.082-.766.82-1.395 1.97-1.395 1.053 0 1.818.547 1.818 1.56v.738l-3.31.205c-4.033.246-6.262 1.818-6.262 4.717 0 2.72 2.338 4.607 5.086 4.607zm2.092-3.746c-.984 0-1.654-.48-1.654-1.3 0-.738.602-1.244 1.668-1.326l2.38-.164v.984c0 1.107-1.148 1.805-2.393 1.805zm15.855 3.828c2.256 0 3.664-1.217 4.266-3.268h.11V1084h5.47v-15.094h-5.605v8.436c0 1.463-.82 2.434-2.078 2.434-1.312 0-2.174-.848-2.174-2.447v-8.422h-5.605v9.68c0 3.596 2.38 5.715 5.62 5.715zm17.892-.3v-8.436c0-1.408.807-2.434 2.133-2.434 1.408 0 2.12.93 2.12 2.447V1084h5.605v-9.666c0-3.623-1.86-5.73-5.25-5.73-2.297 0-3.87 1.148-4.635 3.268h-.11v-2.967h-5.47V1084h5.605zm19.724.383c4.484 0 7.273-2.447 7.328-6.535h-5.1c-.096 1.5-.902 2.365-2.16 2.365-1.5 0-2.27-1.312-2.27-3.773 0-2.434.793-3.746 2.27-3.746 1.203 0 2.05.93 2.16 2.46h5.1c-.068-4.088-2.967-6.63-7.355-6.63-4.854 0-7.848 2.994-7.848 7.916 0 4.977 2.98 7.943 7.875 7.943zm14.994-.383v-8.436c0-1.408.752-2.434 2.146-2.434 1.408 0 2.146.93 2.146 2.447V1084h5.605v-9.666c0-3.623-1.832-5.73-5.223-5.73-2.297 0-3.95 1.148-4.703 3.268h-.11v-7.602h-5.47V1084h5.605z" class="B"/></g><rect x="25.445" y="1116" width="172" height="20" rx="10" class="C D"/><path d="M34.085 1131v-11.1h-1.7v11.1h1.7zm5.35.105c.8 0 1.52-.17 2.16-.5a3.66 3.66 0 0 0 1.5-1.47c.36-.64.54-1.395.54-2.265 0-.86-.18-1.6-.54-2.25a3.66 3.66 0 0 0-1.5-1.47c-.64-.34-1.36-.5-2.16-.5s-1.518.17-2.153.5a3.72 3.72 0 0 0-1.5 1.47c-.365.64-.547 1.4-.547 2.25s.182 1.613.547 2.258.865 1.138 1.5 1.477 1.352.5 2.153.5zm0-1.5c-.44 0-.845-.1-1.215-.3s-.667-.505-.892-.915-.337-.92-.337-1.53c0-.6.112-1.107.337-1.522a2.21 2.21 0 0 1 .892-.923c.37-.2.775-.3 1.215-.3s.845.1 1.215.3a2.21 2.21 0 0 1 .892.923c.225.415.338.922.338 1.522 0 .6-.112 1.12-.338 1.53s-.522.715-.892.915-.775.3-1.215.3zM48.07 1131l2.07-6.4 2.04 6.4h1.9l2.295-8.265h-1.62l-1.575 6.7-2.1-6.7h-1.8l-2.07 6.7-1.575-6.7H43.9l2.295 8.265h1.875zm13.975-4.7v-1.44h-6.18v1.44h6.18zm4.12 4.7v-6.795h1.815v-1.47h-1.815v-.135c0-.6.135-1.007.405-1.252s.74-.353 1.4-.322h0v-1.5c-1.18-.06-2.065.162-2.655.668s-.885 1.262-.885 2.272h0v.27h-1.125v1.47h1.125V1131h1.725zm3.55-9.7c.33 0 .597-.1.802-.27s.308-.415.308-.705a.94.94 0 0 0-.308-.72c-.205-.2-.472-.285-.802-.285s-.595.095-.795.285a.95.95 0 0 0-.3.72c0 .3.1.525.3.705s.465.27.795.27zm.855 9.7v-8.265h-1.7V1131h1.7zm4.885.105c.75 0 1.4-.185 1.92-.555a2.9 2.9 0 0 0 1.11-1.47h0v1.92H80.2v-11.1h-1.725v4.755a2.9 2.9 0 0 0-1.11-1.47c-.53-.37-1.17-.555-1.92-.555-.72 0-1.362.17-1.927.5s-1.008.83-1.328 1.47-.48 1.4-.48 2.25c0 .87.16 1.625.48 2.265s.763 1.13 1.328 1.47 1.207.5 1.927.5zm.525-1.515c-.76 0-1.368-.242-1.822-.727s-.683-1.152-.683-2.003.227-1.517.683-2.002 1.063-.727 1.822-.727c.48 0 .9.112 1.3.337s.68.545.9.96.33.892.33 1.432c0 .55-.1 1.03-.33 1.44s-.52.727-.9.953-.8.337-1.3.337zm9.46 1.515c.7 0 1.315-.128 1.875-.382s1.015-.608 1.365-1.058.58-.965.7-1.545h0-1.83c-.1.48-.332.865-.727 1.155s-.877.435-1.448.435c-.65 0-1.195-.205-1.635-.615s-.675-1.04-.705-1.9h6.36a3.97 3.97 0 0 0 .06-.735c0-.72-.162-1.372-.487-1.957s-.8-1.045-1.395-1.38-1.312-.502-2.123-.502c-.8 0-1.508.17-2.123.5s-1.097.83-1.448 1.47-.525 1.4-.525 2.25c0 .87.175 1.625.525 2.265s.832 1.13 1.448 1.47 1.322.5 2.123.5zm2.28-4.68h-4.695c.04-.8.285-1.405.735-1.815s1-.615 1.68-.615c.42 0 .808.088 1.162.263a1.93 1.93 0 0 1 .84.81c.205.365.297.817.278 1.357h0zm4.585 4.575v-11.1h-1.7v11.1h1.7zm2.425-9.7c.33 0 .597-.1.803-.27s.308-.415.308-.705a.94.94 0 0 0-.308-.72c-.205-.2-.472-.285-.803-.285s-.595.095-.795.285a.95.95 0 0 0-.3.72c0 .3.1.525.3.705s.465.27.795.27zm.855 9.7v-8.265h-1.7V1131h1.7zm5.725 0v-1.485h-.825c-.44 0-.748-.1-.922-.27s-.263-.505-.263-.975h0v-4.08h1.995v-1.455H99.3v-2.055h-1.725v2.055H96.4v1.455h1.185v4.05c0 1 .227 1.697.683 2.122s1.123.638 2.002.638h1.05zm3.76 3.93l4.995-12.195h-1.905l-2.295 6.075-2.475-6.075h-1.92l3.48 8.07-1.785 4.125h1.905zm11.915-3.93l2.07-6.4 2.04 6.4h1.9l2.295-8.265h-1.62l-1.575 6.7-2.1-6.7h-1.8l-2.07 6.7-1.575-6.7h-1.725L115.1 1131h1.875zm9.82-9.7c.33 0 .597-.1.802-.27s.308-.415.308-.705a.94.94 0 0 0-.308-.72c-.205-.2-.472-.285-.802-.285s-.595.095-.795.285a.95.95 0 0 0-.3.72c0 .3.1.525.3.705s.465.27.795.27zm.855 9.7v-8.265h-1.7V1131h1.7zm3.28 0v-4.185c0-.84.227-1.443.683-1.808s1.058-.547 1.808-.547h.5v-1.86c-.68 0-1.28.158-1.8.473s-.92.743-1.2 1.283h0v-1.62h-1.7V1131h1.7zm7.45.105c.7 0 1.315-.128 1.875-.382s1.015-.608 1.365-1.058.58-.965.7-1.545h0-1.83c-.1.48-.332.865-.727 1.155s-.877.435-1.447.435c-.65 0-1.195-.205-1.635-.615s-.675-1.04-.705-1.9h6.36a3.97 3.97 0 0 0 .06-.735c0-.72-.162-1.372-.487-1.957s-.8-1.045-1.395-1.38-1.312-.502-2.123-.502c-.8 0-1.507.17-2.123.5s-1.097.83-1.447 1.47-.525 1.4-.525 2.25c0 .87.175 1.625.525 2.265s.833 1.13 1.447 1.47 1.323.5 2.123.5zm2.28-4.68h-4.695c.04-.8.285-1.405.735-1.815s1-.615 1.68-.615c.42 0 .808.088 1.162.263a1.93 1.93 0 0 1 .84.81c.205.365.298.817.278 1.357h0zm4.915 4.575v-6.795h1.815v-1.47h-1.815v-.135c0-.6.135-1.007.405-1.252s.74-.353 1.4-.322h0v-1.5c-1.18-.06-2.065.162-2.655.668s-.885 1.262-.885 2.272h0v.27h-1.125v1.47h1.125V1131h1.725zm4.405 0v-4.185c0-.84.228-1.443.683-1.808s1.058-.547 1.808-.547h.5v-1.86c-.68 0-1.28.158-1.8.473s-.92.743-1.2 1.283h0v-1.62h-1.7V1131h1.7zm7.1.105c.75 0 1.4-.185 1.92-.555s.905-.86 1.125-1.47h0v1.92h1.7v-8.265h-1.7v1.92c-.22-.6-.595-1.1-1.125-1.47s-1.17-.555-1.92-.555c-.72 0-1.363.17-1.928.5s-1.007.83-1.327 1.47-.48 1.4-.48 2.25c0 .87.16 1.625.48 2.265s.762 1.13 1.327 1.47 1.208.5 1.928.5zm.525-1.515c-.76 0-1.368-.242-1.822-.727s-.683-1.152-.683-2.003.227-1.517.683-2.002 1.063-.727 1.822-.727c.48 0 .9.112 1.3.337s.68.545.9.96.33.892.33 1.432c0 .55-.1 1.03-.33 1.44s-.52.727-.9.953-.8.337-1.3.337zm7.495-6.855h-1.7V1131h1.7v-4.395c0-.82.197-1.443.593-1.868s.927-.638 1.597-.638c.63 0 1.125.197 1.485.593s.54.952.54 1.672h0V1131h1.7v-4.395c0-.82.198-1.443.593-1.868s.928-.638 1.597-.638c.63 0 1.125.197 1.485.593s.54.952.54 1.672h0V1131h1.7v-4.815c0-1.15-.292-2.035-.877-2.655s-1.368-.93-2.347-.93c-.67 0-1.27.175-1.8.525s-.915.835-1.155 1.455c-.23-.64-.597-1.13-1.102-1.47s-1.102-.5-1.792-.5c-.66 0-1.235.16-1.725.48s-.84.78-1.05 1.38v-1.725zm17.02 8.37c.7 0 1.315-.128 1.875-.382s1.015-.608 1.365-1.058.58-.965.7-1.545h0-1.83c-.1.48-.333.865-.728 1.155s-.877.435-1.447.435c-.65 0-1.195-.205-1.635-.615s-.675-1.04-.705-1.9h6.36a3.97 3.97 0 0 0 .06-.735c0-.72-.163-1.372-.488-1.957s-.8-1.045-1.395-1.38-1.312-.502-2.123-.502c-.8 0-1.507.17-2.123.5s-1.097.83-1.447 1.47-.525 1.4-.525 2.25c0 .87.175 1.625.525 2.265s.833 1.13 1.447 1.47 1.323.5 2.123.5zm2.28-4.68h-4.695c.04-.8.285-1.405.735-1.815s1-.615 1.68-.615c.42 0 .808.088 1.163.263a1.93 1.93 0 0 1 .84.81c.205.365.298.817.278 1.357h0zm6.175 4.68c.9 0 1.597-.215 2.123-.645s.787-1 .787-1.68c0-.56-.137-1.003-.412-1.327s-.605-.562-1-.713-.887-.295-1.507-.435l-1.088-.3a1.78 1.78 0 0 1-.637-.375c-.17-.16-.255-.37-.255-.63 0-.35.117-.628.352-.832s.567-.308.998-.308c.52 0 .938.138 1.252.413s.507.638.577 1.087h1.62c-.13-.83-.487-1.492-1.072-1.987s-1.363-.742-2.333-.742c-.93 0-1.657.217-2.183.652s-.787 1.003-.787 1.702c0 .54.132.968.398 1.283a2.28 2.28 0 0 0 .96.683c.375.14.862.28 1.462.42l1.1.293c.27.095.495.228.675.398s.27.4.27.7a1.06 1.06 0 0 1-.352.818c-.235.215-.558.322-.968.322-.57 0-1.03-.14-1.38-.42a1.57 1.57 0 0 1-.6-1.095h0-1.665c.13.86.513 1.53 1.148 2s1.468.72 2.498.72z" class="B E"/><rect x="39.445" y="1146" width="145" height="20" rx="10" class="C D"/><path d="M50.603 1161.126c1.26 0 2.184-.588 2.674-1.288V1161h1.6v-10.36h-1.6v3.724c-.588-.728-1.652-1.204-2.66-1.204-2.044 0-3.654 1.568-3.654 3.948s1.6 4.018 3.64 4.018zm.336-1.386c-1.2 0-2.338-.966-2.338-2.632s1.148-2.562 2.338-2.562c1.204 0 2.338.938 2.338 2.6 0 1.666-1.134 2.604-2.338 2.604zm9.366 1.386c1.9 0 3.108-1.078 3.542-2.422h-1.722c-.294.602-.84 1.078-1.82 1.078-1.176 0-2.086-.77-2.198-2.044H64c.042-.266.056-.518.056-.784 0-2.268-1.554-3.794-3.752-3.794-2.282 0-3.85 1.554-3.85 3.976s1.638 4 3.85 4zm2.086-4.676h-4.27c.168-1.218 1.036-1.946 2.114-1.946 1.2 0 2.128.756 2.156 1.946zm4.83 8.218v-4.788c.504.602 1.414 1.246 2.688 1.246 2.03 0 3.626-1.638 3.626-4.018s-1.596-3.948-3.626-3.948c-1.26 0-2.198.616-2.688 1.26v-1.134h-1.596v11.382h1.596zm2.338-4.928c-1.2 0-2.338-.938-2.338-2.604 0-1.652 1.148-2.6 2.338-2.6 1.204 0 2.352.896 2.352 2.562s-1.148 2.632-2.352 2.632zm7.154 1.26v-10.36h-1.596V1161h1.596zm5.446.126c2.212 0 4.004-1.568 4.004-4s-1.736-3.976-3.934-3.976-3.934 1.554-3.934 3.976 1.666 4 3.864 4zm0-1.386c-1.204 0-2.24-.854-2.24-2.604s1.078-2.6 2.282-2.6c1.2 0 2.324.84 2.324 2.6s-1.176 2.604-2.366 2.604zm7.798 4.886l4.732-11.34h-1.652l-2.254 5.88-2.17-5.88h-1.778l3.038 7.588-1.568 3.752h1.652zm9.254-3.5c1.9 0 3.108-1.078 3.542-2.422h-1.722c-.294.602-.84 1.078-1.82 1.078-1.176 0-2.086-.77-2.198-2.044h5.894c.042-.266.056-.518.056-.784 0-2.268-1.554-3.794-3.752-3.794-2.282 0-3.85 1.554-3.85 3.976s1.638 4 3.85 4zm2.086-4.676h-4.27c.168-1.218 1.036-1.946 2.114-1.946 1.2 0 2.128.756 2.156 1.946zm6.342 4.676c1.26 0 2.184-.588 2.674-1.288V1161h1.6v-10.36h-1.6v3.724c-.588-.728-1.652-1.204-2.66-1.204-2.044 0-3.654 1.568-3.654 3.948s1.6 4.018 3.64 4.018zm.336-1.386c-1.2 0-2.338-.966-2.338-2.632s1.148-2.562 2.338-2.562c1.204 0 2.338.938 2.338 2.6 0 1.666-1.134 2.604-2.338 2.604zm12.866 1.26l1.554-5.698 1.554 5.698h1.68l2.394-7.714h-1.568l-1.596 6.174-1.568-6.174h-1.666l-1.638 6.202-1.6-6.202h-1.624l2.408 7.714h1.68zm11.7.126c1.9 0 3.108-1.078 3.542-2.422h-1.722c-.294.602-.84 1.078-1.82 1.078-1.176 0-2.086-.77-2.198-2.044h5.894c.042-.266.056-.518.056-.784 0-2.268-1.554-3.794-3.752-3.794-2.282 0-3.85 1.554-3.85 3.976s1.638 4 3.85 4zm2.086-4.676h-4.27c.168-1.218 1.036-1.946 2.114-1.946 1.2 0 2.128.756 2.156 1.946zm7.518 4.676c2.03 0 3.626-1.638 3.626-4.018s-1.582-3.948-3.626-3.948c-1.218 0-2.184.574-2.688 1.274v-3.794h-1.596V1161h1.596v-1.12c.504.672 1.414 1.246 2.688 1.246zm-.35-1.386c-1.2 0-2.338-.938-2.338-2.604 0-1.652 1.148-2.6 2.338-2.6 1.204 0 2.352.896 2.352 2.562s-1.148 2.632-2.352 2.632zm12.278 1.386c1.288 0 2.212-.616 2.702-1.274V1161h1.6v-7.714h-1.6v1.12c-.476-.63-1.372-1.246-2.674-1.246-2.03 0-3.64 1.568-3.64 3.948s1.6 4.018 3.612 4.018zm.364-1.386c-1.2 0-2.338-.966-2.338-2.632s1.148-2.562 2.338-2.562c1.204 0 2.338.938 2.338 2.6 0 1.666-1.134 2.604-2.338 2.604zm7.644 4.928v-4.788c.504.602 1.414 1.246 2.688 1.246 2.03 0 3.626-1.638 3.626-4.018s-1.596-3.948-3.626-3.948c-1.26 0-2.198.616-2.688 1.26v-1.134h-1.596v11.382h1.596zm2.338-4.928c-1.2 0-2.338-.938-2.338-2.604 0-1.652 1.148-2.6 2.338-2.6 1.204 0 2.352.896 2.352 2.562s-1.148 2.632-2.352 2.632zm7.154 4.928v-4.788c.504.602 1.414 1.246 2.688 1.246 2.03 0 3.626-1.638 3.626-4.018s-1.596-3.948-3.626-3.948c-1.26 0-2.198.616-2.688 1.26v-1.134h-1.596v11.382h1.596zm2.338-4.928c-1.2 0-2.338-.938-2.338-2.604 0-1.652 1.148-2.6 2.338-2.6 1.204 0 2.352.896 2.352 2.562s-1.148 2.632-2.352 2.632z" class="B E"/><rect x="57.445" y="1176" width="109" height="20" rx="10" class="C D"/><path d="M67.1 1191v-4.312c0-1.414.77-2.142 1.946-2.142 1.162 0 1.932.728 1.932 2.142V1191h1.582v-4.312c0-1.414.77-2.142 1.946-2.142 1.162 0 1.932.728 1.932 2.142V1191H78v-4.55c0-2.156-1.372-3.3-3.178-3.3-1.12 0-2.212.588-2.688 1.526-.532-1.008-1.554-1.526-2.772-1.526-.924 0-1.764.378-2.282 1.008v-.882h-1.596V1191H67.1zm16.03.126c1.288 0 2.212-.616 2.702-1.274V1191h1.6v-7.714h-1.6v1.12c-.476-.63-1.372-1.246-2.674-1.246-2.03 0-3.64 1.568-3.64 3.948s1.6 4.018 3.612 4.018zm.364-1.386c-1.2 0-2.338-.966-2.338-2.632s1.148-2.562 2.338-2.562c1.204 0 2.338.938 2.338 2.6s-1.134 2.604-2.338 2.604zm6.86-7.476c.56 0 1.008-.448 1.008-1.022s-.448-1.022-1.008-1.022a1.022 1.022 0 1 0 0 2.044zm.784 8.736v-7.714h-1.596V1191h1.596zm3.696 0v-4.312c0-1.414.77-2.142 1.946-2.142 1.162 0 1.932.728 1.932 2.142V1191h1.582v-4.55c0-2.156-1.358-3.3-3.164-3.3-.924 0-1.778.378-2.296 1.008v-.882H93.23V1191h1.596zm11.228 0v-1.33h-.98c-.672 0-.896-.238-.896-.812v-4.27h1.876v-1.302h-1.876v-1.918h-1.6v1.918h-.9v1.302h.9v4.27c0 1.568.854 2.142 2.226 2.142h1.26zm4.788.126c1.9 0 3.108-1.078 3.542-2.422h-1.722c-.294.602-.84 1.078-1.82 1.078-1.176 0-2.086-.77-2.198-2.044h5.894c.042-.266.056-.518.056-.784 0-2.268-1.554-3.794-3.752-3.794-2.282 0-3.85 1.554-3.85 3.976s1.638 4 3.85 4zm2.086-4.676h-4.27c.168-1.218 1.036-1.946 2.114-1.946 1.2 0 2.128.756 2.156 1.946zm4.83 4.55v-4.312c0-1.414.77-2.142 1.946-2.142 1.162 0 1.932.728 1.932 2.142V1191h1.582v-4.55c0-2.156-1.358-3.3-3.164-3.3-.924 0-1.778.378-2.296 1.008v-.882h-1.596V1191h1.596zm10.57.126c1.288 0 2.212-.616 2.702-1.274V1191h1.6v-7.714h-1.6v1.12c-.476-.63-1.372-1.246-2.674-1.246-2.03 0-3.64 1.568-3.64 3.948s1.6 4.018 3.612 4.018zm.364-1.386c-1.2 0-2.338-.966-2.338-2.632s1.148-2.562 2.338-2.562c1.204 0 2.338.938 2.338 2.6s-1.134 2.604-2.338 2.604zm7.644 1.26v-4.312c0-1.414.77-2.142 1.946-2.142 1.162 0 1.932.728 1.932 2.142V1191h1.582v-4.55c0-2.156-1.358-3.3-3.164-3.3-.924 0-1.778.378-2.296 1.008v-.882h-1.596V1191h1.596zm10.738.126c1.9 0 3.122-1.05 3.556-2.562h-1.722c-.294.798-.882 1.218-1.834 1.218-1.288 0-2.142-.952-2.142-2.646 0-1.68.854-2.632 2.142-2.632.952 0 1.568.476 1.834 1.218h1.722c-.434-1.624-1.666-2.562-3.556-2.562-2.212 0-3.78 1.568-3.78 3.976 0 2.422 1.568 4 3.78 4zm8.47 0c1.9 0 3.108-1.078 3.542-2.422h-1.722c-.294.602-.84 1.078-1.82 1.078-1.176 0-2.086-.77-2.198-2.044h5.894c.042-.266.056-.518.056-.784 0-2.268-1.554-3.794-3.752-3.794-2.282 0-3.85 1.554-3.85 3.976s1.638 4 3.85 4zm2.086-4.676h-4.27c.168-1.218 1.036-1.946 2.114-1.946 1.2 0 2.128.756 2.156 1.946zM60.133 550v-4.768c0-2.032 1.056-2.656 2.448-2.656h.384v-1.504c-1.392 0-2.336.608-2.832 1.584v-1.424h-1.456V550h1.456zm8.304.144c2.176 0 3.584-1.248 4.032-2.848H70.9c-.32.944-1.152 1.616-2.464 1.616-1.488 0-2.736-.976-2.848-2.752h7.008c.032-.304.048-.56.048-.88 0-2.4-1.664-4.192-4.208-4.192-2.56 0-4.336 1.744-4.336 4.512 0 2.784 1.84 4.544 4.336 4.544zm2.704-5.168h-5.536c.16-1.712 1.344-2.656 2.768-2.656 1.504 0 2.784.944 2.768 2.656zm4.176-5.168c.528 0 .96-.432.96-.992s-.432-.992-.96-.992c-.56 0-.992.432-.992.992s.432.992.992.992zM76.02 550v-8.768h-1.456V550h1.456zm6.544 0v-1.232h-1.072c-.896 0-1.216-.304-1.216-1.168v-5.168h2.288v-1.2h-2.288v-2.208H78.82v2.208h-1.136v1.2h1.136v5.168c0 1.76.88 2.4 2.432 2.4h1.312zm5.552.144c2.176 0 3.584-1.248 4.032-2.848H90.58c-.32.944-1.152 1.616-2.464 1.616-1.488 0-2.736-.976-2.848-2.752h7.008c.032-.304.048-.56.048-.88 0-2.4-1.664-4.192-4.208-4.192-2.56 0-4.336 1.744-4.336 4.512 0 2.784 1.84 4.544 4.336 4.544zm2.704-5.168h-5.536c.16-1.712 1.344-2.656 2.768-2.656 1.504 0 2.784.944 2.768 2.656zM95.7 550v-4.768c0-2.032 1.056-2.656 2.448-2.656h.384v-1.504c-1.392 0-2.336.608-2.832 1.584v-1.424h-1.456V550H95.7zm8.112.144c1.616 0 2.752-.832 3.28-1.776V550h1.472v-8.768h-1.472v1.6c-.512-.912-1.632-1.744-3.264-1.744-2.352 0-4.16 1.76-4.16 4.496 0 2.72 1.808 4.56 4.144 4.56zm.304-1.28c-1.6 0-2.96-1.216-2.96-3.28s1.36-3.232 2.96-3.232 2.976 1.216 2.976 3.248c0 2.064-1.376 3.264-2.976 3.264zM115.093 550v-1.232h-1.072c-.896 0-1.216-.304-1.216-1.168v-5.168h2.288v-1.2h-2.288v-2.208h-1.456v2.208h-1.136v1.2h1.136v5.168c0 1.76.88 2.4 2.432 2.4h1.312zm5.552.144c2.176 0 3.584-1.248 4.032-2.848h-1.568c-.32.944-1.152 1.616-2.464 1.616-1.488 0-2.736-.976-2.848-2.752h7.008c.032-.304.048-.56.048-.88 0-2.4-1.664-4.192-4.208-4.192-2.56 0-4.336 1.744-4.336 4.512 0 2.784 1.84 4.544 4.336 4.544zm2.704-5.168h-5.536c.16-1.712 1.344-2.656 2.768-2.656 1.504 0 2.784.944 2.768 2.656zm11.216 5.152c1.168 0 2.24-.512 2.8-1.424V550h1.456v-8.768h-1.456v4.816c0 1.888-1.008 2.816-2.512 2.816-1.472 0-2.448-.912-2.448-2.688v-4.944h-1.44v5.136c0 2.512 1.584 3.76 3.6 3.76zm8.176-.128v-4.848c0-1.888 1.024-2.816 2.512-2.816 1.472 0 2.448.912 2.448 2.704V550h1.44v-5.168c0-2.512-1.552-3.76-3.584-3.76-1.184 0-2.24.496-2.816 1.408v-1.248h-1.456V550h1.456zm12.848 0v-1.232h-1.072c-.896 0-1.216-.304-1.216-1.168v-5.168h2.288v-1.2h-2.29v-2.208h-1.456v2.208h-1.136v1.2h1.136v5.168c0 1.76.88 2.4 2.432 2.4h1.312zm2.512-10.192c.528 0 .96-.432.96-.992s-.432-.992-.96-.992c-.56 0-.992.432-.992.992s.432.992.992.992zm.704 10.192v-8.768h-1.456V550h1.456zm3.936 0v-11.84h-1.456V550h1.456zm10.816 0v-1.232h-1.072c-.896 0-1.216-.304-1.216-1.168v-5.168h2.288v-1.2h-2.288v-2.208h-1.456v2.208h-1.136v1.2h1.136v5.168c0 1.76.88 2.4 2.432 2.4h1.312zm3.216 0v-4.848c0-1.888 1.024-2.816 2.512-2.816 1.472 0 2.448.912 2.448 2.704V550h1.44v-5.168c0-2.512-1.552-3.76-3.504-3.76-1.232 0-2.32.496-2.896 1.424v-4.336h-1.456V550h1.456zm12.576.144c2.176 0 3.584-1.248 4.032-2.848h-1.568c-.32.944-1.152 1.616-2.464 1.616-1.488 0-2.736-.976-2.848-2.752h7.008c.032-.304.048-.56.048-.88 0-2.4-1.664-4.192-4.208-4.192-2.56 0-4.336 1.744-4.336 4.512 0 2.784 1.84 4.544 4.336 4.544zm2.704-5.168h-5.536c.16-1.712 1.344-2.656 2.768-2.656 1.504 0 2.784.944 2.768 2.656zM62.293 573.68c1.6 0 2.736-.816 3.264-1.792v1.648h1.472v-11.84h-1.472v4.64c-.608-1.008-1.872-1.712-3.248-1.712-2.368 0-4.176 1.76-4.176 4.496 0 2.72 1.808 4.56 4.16 4.56zm.288-1.28c-1.6 0-2.96-1.216-2.96-3.28s1.36-3.232 2.96-3.232 2.976 1.216 2.976 3.248c0 2.064-1.376 3.264-2.976 3.264zm10.704 1.28c2.176 0 3.584-1.248 4.032-2.848H75.75c-.32.944-1.152 1.616-2.464 1.616-1.488 0-2.736-.976-2.848-2.752h7.008c.032-.304.048-.56.048-.88 0-2.4-1.664-4.192-4.208-4.192-2.56 0-4.336 1.744-4.336 4.512 0 2.784 1.84 4.544 4.336 4.544zm2.704-5.168h-5.536c.16-1.712 1.344-2.656 2.768-2.656 1.504 0 2.784.944 2.768 2.656zm6.528 5.168c1.936 0 3.2-1.088 3.2-2.528-.064-3.136-5.152-2-5.152-4.08 0-.704.64-1.216 1.712-1.216 1.168 0 1.84.64 1.904 1.52h1.456c-.096-1.712-1.376-2.752-3.312-2.752-1.952 0-3.216 1.104-3.216 2.448 0 3.264 5.184 2.128 5.184 4.08 0 .72-.64 1.296-1.792 1.296-1.232 0-1.984-.64-2.064-1.488h-1.504c.096 1.6 1.536 2.72 3.584 2.72zm6-10.336c.528 0 .96-.432.96-.992s-.432-.992-.96-.992c-.56 0-.992.432-.992.992s.432.992.992.992zm.704 10.192v-8.768h-1.456v8.768h1.456zm6.64 4.32c2.576 0 4.192-1.712 4.192-4.128v-8.96H98.58v1.6c-.512-.944-1.664-1.744-3.264-1.744-2.352 0-4.16 1.76-4.16 4.496 0 2.72 1.808 4.56 4.16 4.56 1.6 0 2.736-.848 3.264-1.792v1.84c0 1.872-1.168 2.864-2.72 2.864-1.44 0-2.48-.72-2.8-1.776h-1.44c.288 1.872 1.936 3.04 4.24 3.04zm-.256-5.456c-1.6 0-2.96-1.216-2.96-3.28s1.36-3.232 2.96-3.232 2.976 1.216 2.976 3.248c0 2.064-1.376 3.264-2.976 3.264zm8.368 1.136v-4.848c0-1.888 1.024-2.816 2.512-2.816 1.472 0 2.448.912 2.448 2.704v4.96h1.44v-5.168c0-2.512-1.552-3.76-3.584-3.76-1.184 0-2.24.496-2.816 1.408v-1.248h-1.456v8.768h1.456zm13.808-10.192c.528 0 .96-.432.96-.992s-.432-.992-.96-.992c-.56 0-.992.432-.992.992s.432.992.992.992zm.704 10.192v-8.768h-1.456v8.768h1.456zm5.584.144c1.936 0 3.2-1.088 3.2-2.528-.064-3.136-5.152-2-5.152-4.08 0-.704.64-1.216 1.712-1.216 1.168 0 1.84.64 1.904 1.52h1.456c-.096-1.712-1.376-2.752-3.312-2.752-1.952 0-3.216 1.104-3.216 2.448 0 3.264 5.184 2.128 5.184 4.08 0 .72-.64 1.296-1.792 1.296-1.232 0-1.984-.64-2.064-1.488h-1.504c.096 1.6 1.536 2.72 3.584 2.72zm13.12 0c1.616 0 2.752-.832 3.28-1.776v1.632h1.472v-8.768h-1.472v1.6c-.512-.912-1.632-1.744-3.264-1.744-2.352 0-4.16 1.76-4.16 4.496 0 2.72 1.808 4.56 4.144 4.56zm.304-1.28c-1.6 0-2.96-1.216-2.96-3.28s1.36-3.232 2.96-3.232 2.976 1.216 2.976 3.248c0 2.064-1.376 3.264-2.976 3.264zm8.368 5.296v-5.776c.544.896 1.68 1.76 3.28 1.76 2.352 0 4.16-1.84 4.16-4.56 0-2.736-1.808-4.496-4.16-4.496-1.6 0-2.752.832-3.28 1.76v-1.616h-1.456v12.928h1.456zm2.976-5.296c-1.584 0-2.976-1.2-2.976-3.264 0-2.032 1.392-3.248 2.976-3.248 1.616 0 2.976 1.168 2.976 3.232s-1.36 3.28-2.976 3.28zm7.84 5.296v-5.776c.544.896 1.68 1.76 3.28 1.76 2.352 0 4.16-1.84 4.16-4.56 0-2.736-1.808-4.496-4.16-4.496-1.6 0-2.752.832-3.28 1.76v-1.616h-1.456v12.928h1.456zm2.976-5.296c-1.584 0-2.976-1.2-2.976-3.264 0-2.032 1.392-3.248 2.976-3.248 1.616 0 2.976 1.168 2.976 3.232s-1.36 3.28-2.976 3.28zm7.84 1.136v-4.768c0-2.032 1.056-2.656 2.448-2.656h.384v-1.504c-1.392 0-2.336.608-2.832 1.584v-1.424h-1.456v8.768h1.456zm8.336.144c2.496 0 4.496-1.76 4.496-4.544 0-2.768-1.936-4.512-4.432-4.512-2.48 0-4.432 1.744-4.432 4.512 0 2.784 1.888 4.544 4.368 4.544zm0-1.28c-1.52 0-2.88-1.04-2.88-3.264 0-2.208 1.392-3.248 2.928-3.248 1.504 0 2.96 1.04 2.96 3.248 0 2.224-1.488 3.264-3.008 3.264zm10.512 1.136l3.44-8.768h-1.552l-2.72 7.424-2.736-7.424h-1.568l3.44 8.768h1.696zm8.672.144c2.176 0 3.584-1.248 4.032-2.848h-1.568c-.32.944-1.152 1.616-2.464 1.616-1.488 0-2.736-.976-2.848-2.752h7.008c.032-.304.048-.56.048-.88 0-2.4-1.664-4.192-4.208-4.192-2.56 0-4.336 1.744-4.336 4.512 0 2.784 1.84 4.544 4.336 4.544zm2.704-5.168h-5.536c.16-1.712 1.344-2.656 2.768-2.656 1.504 0 2.784.944 2.768 2.656zm7.04 5.168c1.6 0 2.736-.816 3.264-1.792v1.648h1.472v-11.84h-1.472v4.64c-.608-1.008-1.872-1.712-3.248-1.712-2.368 0-4.176 1.76-4.176 4.496 0 2.72 1.808 4.56 4.16 4.56zm.288-1.28c-1.6 0-2.96-1.216-2.96-3.28s1.36-3.232 2.96-3.232 2.976 1.216 2.976 3.248c0 2.064-1.376 3.264-2.976 3.264z" class="B E"/><g class="D I"><use xlink:href="#B"/><use xlink:href="#C"/></g><path d="M58.133 751v-4.768c0-2.032 1.056-2.656 2.448-2.656h.384v-1.504c-1.392 0-2.336.608-2.832 1.584v-1.424h-1.456V751h1.456zm8.304.144c2.176 0 3.584-1.248 4.032-2.848H68.9c-.32.944-1.152 1.616-2.464 1.616-1.488 0-2.736-.976-2.848-2.752h7.008c.032-.304.048-.56.048-.88 0-2.4-1.664-4.192-4.208-4.192-2.56 0-4.336 1.744-4.336 4.512 0 2.784 1.84 4.544 4.336 4.544zm2.704-5.168h-5.536c.16-1.712 1.344-2.656 2.768-2.656 1.504 0 2.784.944 2.768 2.656zm4.176-5.168c.528 0 .96-.432.96-.992s-.432-.992-.96-.992c-.56 0-.992.432-.992.992s.432.992.992.992zM74.02 751v-8.768h-1.456V751h1.456zm6.544 0v-1.232h-1.072c-.896 0-1.216-.304-1.216-1.168v-5.168h2.288v-1.2h-2.288v-2.208H76.82v2.208h-1.136v1.2h1.136v5.168c0 1.76.88 2.4 2.432 2.4h1.312zm5.552.144c2.176 0 3.584-1.248 4.032-2.848H88.58c-.32.944-1.152 1.616-2.464 1.616-1.488 0-2.736-.976-2.848-2.752h7.008c.032-.304.048-.56.048-.88 0-2.4-1.664-4.192-4.208-4.192-2.56 0-4.336 1.744-4.336 4.512 0 2.784 1.84 4.544 4.336 4.544zm2.704-5.168h-5.536c.16-1.712 1.344-2.656 2.768-2.656 1.504 0 2.784.944 2.768 2.656zM93.7 751v-4.768c0-2.032 1.056-2.656 2.448-2.656h.384v-1.504c-1.392 0-2.336.608-2.832 1.584v-1.424h-1.456V751H93.7zm8.112.144c1.616 0 2.752-.832 3.28-1.776V751h1.472v-8.768h-1.472v1.6c-.512-.912-1.632-1.744-3.264-1.744-2.352 0-4.16 1.76-4.16 4.496 0 2.72 1.808 4.56 4.144 4.56zm.304-1.28c-1.6 0-2.96-1.216-2.96-3.28s1.36-3.232 2.96-3.232 2.976 1.216 2.976 3.248c0 2.064-1.376 3.264-2.976 3.264zM113.093 751v-1.232h-1.072c-.896 0-1.216-.304-1.216-1.168v-5.168h2.288v-1.2h-2.288v-2.208h-1.456v2.208h-1.136v1.2h1.136v5.168c0 1.76.88 2.4 2.432 2.4h1.312zm5.552.144c2.176 0 3.584-1.248 4.032-2.848h-1.568c-.32.944-1.152 1.616-2.464 1.616-1.488 0-2.736-.976-2.848-2.752h7.008c.032-.304.048-.56.048-.88 0-2.4-1.664-4.192-4.208-4.192-2.56 0-4.336 1.744-4.336 4.512 0 2.784 1.84 4.544 4.336 4.544zm2.704-5.168h-5.536c.16-1.712 1.344-2.656 2.768-2.656 1.504 0 2.784.944 2.768 2.656zm11.216 5.152c1.168 0 2.24-.512 2.8-1.424V751h1.456v-8.768h-1.456v4.816c0 1.888-1.008 2.816-2.512 2.816-1.472 0-2.448-.912-2.448-2.688v-4.944h-1.44v5.136c0 2.512 1.584 3.76 3.6 3.76zm8.176-.128v-4.848c0-1.888 1.024-2.816 2.512-2.816 1.472 0 2.448.912 2.448 2.704V751h1.44v-5.168c0-2.512-1.552-3.76-3.584-3.76-1.184 0-2.24.496-2.816 1.408v-1.248h-1.456V751h1.456zm12.848 0v-1.232h-1.072c-.896 0-1.216-.304-1.216-1.168v-5.168h2.288v-1.2H151.3v-2.208h-1.456v2.208h-1.136v1.2h1.136v5.168c0 1.76.88 2.4 2.432 2.4h1.312zm2.512-10.192c.528 0 .96-.432.96-.992s-.432-.992-.96-.992c-.56 0-.992.432-.992.992s.432.992.992.992zm.704 10.192v-8.768h-1.456V751h1.456zm3.936 0v-11.84h-1.456V751h1.456zm10.816 0v-1.232h-1.072c-.896 0-1.216-.304-1.216-1.168v-5.168h2.288v-1.2h-2.288v-2.208h-1.456v2.208h-1.136v1.2h1.136v5.168c0 1.76.88 2.4 2.432 2.4h1.312zm3.216 0v-4.848c0-1.888 1.024-2.816 2.512-2.816 1.472 0 2.448.912 2.448 2.704V751h1.44v-5.168c0-2.512-1.552-3.76-3.504-3.76-1.232 0-2.32.496-2.896 1.424v-4.336h-1.456V751h1.456zm12.576.144c2.176 0 3.584-1.248 4.032-2.848h-1.568c-.32.944-1.152 1.616-2.464 1.616-1.488 0-2.736-.976-2.848-2.752h7.008c.032-.304.048-.56.048-.88 0-2.4-1.664-4.192-4.208-4.192-2.56 0-4.336 1.744-4.336 4.512 0 2.784 1.84 4.544 4.336 4.544zm2.704-5.168h-5.536c.16-1.712 1.344-2.656 2.768-2.656 1.504 0 2.784.944 2.768 2.656zm-131.92 32.72v-5.776c.544.896 1.68 1.76 3.28 1.76 2.352 0 4.16-1.84 4.16-4.56 0-2.736-1.808-4.496-4.16-4.496-1.6 0-2.752.832-3.28 1.76v-1.616h-1.456v12.928h1.456zm2.976-5.296c-1.584 0-2.976-1.2-2.976-3.264 0-2.032 1.392-3.248 2.976-3.248 1.616 0 2.976 1.168 2.976 3.232s-1.36 3.28-2.976 3.28zm7.84 1.136v-4.768c0-2.032 1.056-2.656 2.448-2.656h.384v-1.504c-1.392 0-2.336.608-2.832 1.584v-1.424h-1.456v8.768h1.456zm8.336.144c2.496 0 4.496-1.76 4.496-4.544 0-2.768-1.936-4.512-4.432-4.512-2.48 0-4.432 1.744-4.432 4.512 0 2.784 1.888 4.544 4.368 4.544zm0-1.28c-1.52 0-2.88-1.04-2.88-3.264 0-2.208 1.392-3.248 2.928-3.248 1.504 0 2.96 1.04 2.96 3.248 0 2.224-1.488 3.264-3.008 3.264zm10.032 1.28c1.6 0 2.736-.816 3.264-1.792v1.648h1.472v-11.84H90.58v4.64c-.608-1.008-1.872-1.712-3.248-1.712-2.368 0-4.176 1.76-4.176 4.496 0 2.72 1.808 4.56 4.16 4.56zm.288-1.28c-1.6 0-2.96-1.216-2.96-3.28s1.36-3.232 2.96-3.232 2.976 1.216 2.976 3.248c0 2.064-1.376 3.264-2.976 3.264zm10.432 1.264c1.168 0 2.24-.512 2.8-1.424v1.296h1.456v-8.768h-1.456v4.816c0 1.888-1.008 2.816-2.512 2.816-1.472 0-2.448-.912-2.448-2.688v-4.944h-1.44v5.136c0 2.512 1.584 3.76 3.6 3.76zm10.448.016c2.176 0 3.6-1.216 4.048-2.96h-1.568c-.32 1.104-1.184 1.728-2.48 1.728-1.6 0-2.784-1.136-2.784-3.312 0-2.144 1.184-3.28 2.784-3.28 1.296 0 2.176.672 2.48 1.728h1.568c-.448-1.84-1.872-2.96-4.048-2.96-2.496 0-4.272 1.76-4.272 4.512 0 2.784 1.776 4.544 4.272 4.544zm10.048-.144v-1.232h-1.072c-.896 0-1.216-.304-1.216-1.168v-5.168h2.288v-1.2h-2.288v-2.208h-1.456v2.208h-1.136v1.2h1.136v5.168c0 1.76.88 2.4 2.432 2.4h1.312zm6.784-10.192c.528 0 .96-.432.96-.992s-.432-.992-.96-.992c-.56 0-.992.432-.992.992s.432.992.992.992zm.704 10.192v-8.768h-1.456v8.768h1.456zm5.584.144c1.936 0 3.2-1.088 3.2-2.528-.064-3.136-5.152-2-5.152-4.08 0-.704.64-1.216 1.712-1.216 1.168 0 1.84.64 1.904 1.52h1.456c-.096-1.712-1.376-2.752-3.312-2.752-1.952 0-3.216 1.104-3.216 2.448 0 3.264 5.184 2.128 5.184 4.08 0 .72-.64 1.296-1.792 1.296-1.232 0-1.984-.64-2.064-1.488h-1.504c.096 1.6 1.536 2.72 3.584 2.72zm13.12 0c1.616 0 2.752-.832 3.28-1.776v1.632h1.472v-8.768h-1.472v1.6c-.512-.912-1.632-1.744-3.264-1.744-2.352 0-4.16 1.76-4.16 4.496 0 2.72 1.808 4.56 4.144 4.56zm.304-1.28c-1.6 0-2.96-1.216-2.96-3.28s1.36-3.232 2.96-3.232 2.976 1.216 2.976 3.248c0 2.064-1.376 3.264-2.976 3.264zm8.368 5.296v-5.776c.544.896 1.68 1.76 3.28 1.76 2.352 0 4.16-1.84 4.16-4.56 0-2.736-1.808-4.496-4.16-4.496-1.6 0-2.752.832-3.28 1.76v-1.616h-1.456v12.928h1.456zm2.976-5.296c-1.584 0-2.976-1.2-2.976-3.264 0-2.032 1.392-3.248 2.976-3.248 1.616 0 2.976 1.168 2.976 3.232s-1.36 3.28-2.976 3.28zm7.84 5.296v-5.776c.544.896 1.68 1.76 3.28 1.76 2.352 0 4.16-1.84 4.16-4.56 0-2.736-1.808-4.496-4.16-4.496-1.6 0-2.752.832-3.28 1.76v-1.616h-1.456v12.928h1.456zm2.976-5.296c-1.584 0-2.976-1.2-2.976-3.264 0-2.032 1.392-3.248 2.976-3.248 1.616 0 2.976 1.168 2.976 3.232s-1.36 3.28-2.976 3.28zm7.84 1.136v-4.768c0-2.032 1.056-2.656 2.448-2.656h.384v-1.504c-1.392 0-2.336.608-2.832 1.584v-1.424h-1.456v8.768h1.456zm8.336.144c2.496 0 4.496-1.76 4.496-4.544 0-2.768-1.936-4.512-4.432-4.512-2.48 0-4.432 1.744-4.432 4.512 0 2.784 1.888 4.544 4.368 4.544zm0-1.28c-1.52 0-2.88-1.04-2.88-3.264 0-2.208 1.392-3.248 2.928-3.248 1.504 0 2.96 1.04 2.96 3.248 0 2.224-1.488 3.264-3.008 3.264zm10.512 1.136l3.44-8.768h-1.552l-2.72 7.424-2.736-7.424h-1.568l3.44 8.768h1.696zm8.672.144c2.176 0 3.584-1.248 4.032-2.848h-1.568c-.32.944-1.152 1.616-2.464 1.616-1.488 0-2.736-.976-2.848-2.752h7.008c.032-.304.048-.56.048-.88 0-2.4-1.664-4.192-4.208-4.192-2.56 0-4.336 1.744-4.336 4.512 0 2.784 1.84 4.544 4.336 4.544zm2.704-5.168h-5.536c.16-1.712 1.344-2.656 2.768-2.656 1.504 0 2.784.944 2.768 2.656zm7.04 5.168c1.6 0 2.736-.816 3.264-1.792v1.648h1.472v-11.84h-1.472v4.64c-.608-1.008-1.872-1.712-3.248-1.712-2.368 0-4.176 1.76-4.176 4.496 0 2.72 1.808 4.56 4.16 4.56zm.288-1.28c-1.6 0-2.96-1.216-2.96-3.28s1.36-3.232 2.96-3.232 2.976 1.216 2.976 3.248c0 2.064-1.376 3.264-2.976 3.264zM58.405 798.072v-7.568h1.84v-1.2h-1.84v-.624c0-1.136.432-1.616 1.744-1.616v-1.216c-2.24 0-3.2.88-3.2 2.832v.624h-1.136v1.2h1.136v7.568h1.456zm7.36.144c2.496 0 4.496-1.76 4.496-4.544 0-2.768-1.936-4.512-4.432-4.512-2.48 0-4.432 1.744-4.432 4.512 0 2.784 1.888 4.544 4.368 4.544zm0-1.28c-1.52 0-2.88-1.04-2.88-3.264 0-2.208 1.392-3.248 2.928-3.248 1.504 0 2.96 1.04 2.96 3.248 0 2.224-1.488 3.264-3.008 3.264zm7.872 1.136v-4.768c0-2.032 1.056-2.656 2.448-2.656h.384v-1.504c-1.392 0-2.336.608-2.832 1.584v-1.424H72.18v8.768h1.456zm10.24 0v-11.84H82.42v11.84h1.456zm6.08.144c1.616 0 2.752-.832 3.28-1.776v1.632h1.472v-8.768h-1.472v1.6c-.512-.912-1.632-1.744-3.264-1.744-2.352 0-4.16 1.76-4.16 4.496 0 2.72 1.808 4.56 4.144 4.56zm.304-1.28c-1.6 0-2.96-1.216-2.96-3.28s1.36-3.232 2.96-3.232 2.976 1.216 2.976 3.248c0 2.064-1.376 3.264-2.976 3.264zm10.432 1.264c1.168 0 2.24-.512 2.8-1.424v1.296h1.456v-8.768h-1.456v4.816c0 1.888-1.008 2.816-2.512 2.816-1.472 0-2.448-.912-2.448-2.688v-4.944h-1.44v5.136c0 2.512 1.584 3.76 3.6 3.76zm8.176-.128v-4.848c0-1.888 1.024-2.816 2.512-2.816 1.472 0 2.448.912 2.448 2.704v4.96h1.44v-5.168c0-2.512-1.552-3.76-3.584-3.76-1.184 0-2.24.496-2.816 1.408v-1.248h-1.456v8.768h1.456zm12.512.144c2.176 0 3.6-1.216 4.048-2.96h-1.568c-.32 1.104-1.184 1.728-2.48 1.728-1.6 0-2.784-1.136-2.784-3.312 0-2.144 1.184-3.28 2.784-3.28 1.296 0 2.176.672 2.48 1.728h1.568c-.448-1.84-1.872-2.96-4.048-2.96-2.496 0-4.272 1.76-4.272 4.512 0 2.784 1.776 4.544 4.272 4.544zm7.44-.144v-4.848c0-1.888 1.024-2.816 2.512-2.816 1.472 0 2.448.912 2.448 2.704v4.96h1.44v-5.168c0-2.512-1.552-3.76-3.504-3.76-1.232 0-2.32.496-2.896 1.424v-4.336h-1.456v11.84h1.456z" class="B E"/><g class="D I"><use xlink:href="#B" x="-5" y="212"/><use xlink:href="#C" x="-5" y="212"/></g><g stroke="#fa357c" class="F G H"><path d="M114.273 394l-3.536 3.525L107.2 394m3.56-46.102v49.028"/><path d="M114.48 609.5l-3.536 3.525-3.536-3.525"/><path opacity=".2" d="M110.697 727.797v87m-.013-296.48v75"/><path d="M110.492 518.255v14m.368 195.903v6M110.445 585v26"/><path d="M114.273 820l-3.536 3.525L107.2 820m3.406-12v14.93"/><path d="M114.273 1020l-3.536 3.525L107.2 1020m3.56-46.102v49.028"/><path d="M114.273 199l-3.536 3.525L107.2 199m3.56-46.102v49.028"/></g></g></svg>